<svg xmlns="http://www.w3.org/2000/svg" xmlns:svg="http://www.w3.org/2000/svg" id="svg87" data-name="Camada 1" version="1.1" viewBox="0 0 2048 2048"><metadata id="metadata2"/><defs id="defs9"><style id="style4">.cls-1{fill:none}.cls-4{clip-path:url(#a)}.cls-5{fill:#343434}.cls-6{fill:#48708c}.cls-7{fill:#b9b9b9}.cls-8{fill:#525252}.cls-9{fill:#fdfdfd}.cls-10{fill:#343435}.cls-11{fill:#353535}.cls-12{fill:#49718d}.cls-13{fill:#6f2d2b}.cls-14{fill:#fcfcfc}.cls-15{fill:#fbfcfc}</style></defs><title id="title11">Logo</title><g id="g929" transform="matrix(1.1891781,0,0,1.1891781,-291.61663,-417.20076)"><g id="g69" class="cls-4" clip-path="url(#a)"><path id="path19" fill="#343434" d="M 766.84,1542.43 290,1039.57 c -20.59,-21.72 -19.74,-38.1 2.5,-59.64 8.23,-8 22.34,-14.52 22.8,-24.63 0.46,-10.11 -13.21,-17 -20.75,-25.28 -19.72,-21.55 -21,-17 1.17,-38 22.92,-21.78 46.11,-43.29 68.71,-65.4 8.06,-7.88 14.05,-9.15 21.58,0 7.74,9.35 17,17.39 24.81,26.71 5.72,6.85 9.55,5.82 15.66,0 41.79,-40.07 83.91,-79.79 125.92,-119.63 40.07,-38 79.9,-76.25 120.4,-113.79 8.42,-7.81 8,-12.09 0.39,-19.4 -13.77,-13.23 -26.26,-27.76 -39.72,-41.31 -5.64,-5.68 -5.24,-10.08 0.39,-15.42 Q 705.2,476.29 776.37,408.63 c 6.28,-6 11.17,-5.31 16.69,0.67 13.24,14.36 27.21,28.07 40.11,42.74 6.25,7.11 10.13,6.22 16.63,-0.1 26.5,-25.77 53.46,-51.07 80.35,-76.43 18.46,-17.41 36.57,-17.32 54.31,0.06 2.48,2.43 4.8,5 7.19,7.54 q 467,492.47 934.2,984.75 c 9.06,9.53 11.49,19.24 12.7,32.22 3.31,35.32 -9.65,61 -38,82.52 -19.72,15 -36.31,34.11 -54.71,50.94 -5.76,5.26 -8.15,10.73 -8.24,18.34 -0.23,18 -1.51,36 -1.84,54 -0.14,7.6 -2.73,13.26 -8.34,18.57 q -208.08,197.05 -415.88,394.41 c -6,5.67 -12.07,8.48 -20.14,7.67 -5.66,-0.57 -11.51,0.31 -17.12,-0.44 -30.11,-4 -55.89,1.07 -77.44,26.92 -13.38,16.05 -34,12.49 -49.53,-3.9 Q 1094.46,1887.97 941.64,1726.79 Z" class="cls-5"/><path id="path21" fill="#48708c" d="m 776.25,1533.61 -476,-502 c -17.5,-18.45 -17.21,-27.31 1.44,-45.05 23.92,-22.76 23.92,-22.76 45.8,0.32 q 50.2,52.94 100.42,105.86 c 11.5,12.1 12.79,12.06 25.29,0.22 25.55,-24.2 50.86,-48.65 76.72,-72.5 8.17,-7.53 8.17,-12.87 0.76,-20.59 C 512.16,959.8 474.3,919.09 435.6,879.18 c -8.11,-8.37 -7.49,-12.91 1,-20.88 Q 558.19,743.85 679,628.47 c 8.33,-8 12.85,-8.63 20.87,0 37.47,40.47 75.9,80 113.47,120.41 8,8.64 13.44,9.29 22.46,0.6 q 67.34,-64.92 135.72,-128.73 c 9,-8.44 9.06,-14.38 0.95,-22.82 -37.9,-39.46 -75.11,-79.58 -113.28,-118.79 -9,-9.21 -8.1,-14.34 1.25,-22.8 25.43,-23 49.9,-47.05 74.86,-70.56 16.11,-15.18 28.11,-15 42.91,0.64 q 470.22,495.81 940.5,991.54 c 5.49,5.79 6.83,11.83 7.7,19.65 3.68,33 -7.93,57.75 -35,78.34 -20.42,15.55 -37.63,35.31 -56.67,52.77 -6.37,5.85 -10.46,11.92 -9.5,20.63 a 15.5,15.5 0 0 1 -0.09,2.63 c -1.12,20.17 2.95,42.57 -4.84,59.88 -7.58,16.85 -27.18,28.61 -41.71,42.4 Q 1594.42,1829 1410.32,2003.84 c -7.74,7.36 -15.27,11.38 -25.78,10 -5.61,-0.74 -11.54,0.42 -17.11,-0.47 -28.89,-4.65 -52.4,2.71 -72.42,26.55 -13.52,16.11 -25.3,14 -40,-1.51 Q 1015.6,1786 776.25,1533.61 Z" class="cls-6"/><path id="path23" fill="#b9b9b9" d="m 732.69,645.77 c -26.87,-28.33 -53.55,-56.85 -80.75,-84.87 -6.67,-6.87 -8.05,-11 0.15,-18.6 Q 714.2,484.63 775.15,425.69 c 6.71,-6.46 10.31,-6.51 16.59,0.17 q 82.46,87.74 165.7,174.72 c 6.76,7 6.55,10.94 -0.73,17.73 q -61.47,57.39 -122,115.75 c -7.61,7.34 -11.91,7.23 -18.86,-0.3 -27.39,-29.66 -55.4,-58.71 -83.16,-87.99 z" class="cls-7"/><path id="path25" fill="#525252" d="m 458.53,922 c 24.8,26.15 49.35,52.54 74.55,78.3 7.23,7.38 7,12 -0.77,19.08 -21.41,19.47 -42.36,39.47 -63,59.72 -6.76,6.63 -11,6.12 -17.14,-0.4 q -75,-79.68 -150.58,-158.78 c -6.29,-6.58 -6.17,-10.81 0.69,-17.11 q 32.44,-29.83 64,-60.67 c 6.75,-6.61 11,-6.23 17.14,0.36 24.75,26.77 50.02,53.08 75.11,79.5 z" class="cls-8"/><path id="path27" fill="#343434" d="M 1450,1035.8 1076.14,641.55 c -13.58,-14.33 -13.58,-14.34 1.52,-28.66 9.37,-8.89 18.94,-17.58 28,-26.73 6.3,-6.32 11.82,-7.26 17.61,-0.09 1.9,2.36 4.16,4.43 6.25,6.64 l 745.93,786.59 c 14.48,15.27 14.48,15.27 -1.6,30.52 q -11.64,11 -23.27,22.07 c -13.14,12.41 -13.18,12.43 -25,0 q -31.41,-33 -62.77,-66.17 z" class="cls-5"/><path id="path29" fill="#fdfdfd" d="m 1329.3,1152.5 c 16.63,-1.77 33.28,-2.09 49.54,2.27 37.64,10.1 63.07,45.82 59.22,83.15 -3.76,36.53 -35.92,67.73 -73.28,71.11 -36.47,3.29 -71.58,-22.79 -81.27,-60.16 -3.46,-13.35 -4.46,-27.14 -1.8,-40.47 2.53,-12.68 -2.38,-13 -12.47,-12.43 -35.34,2 -64.3,-9.67 -84.52,-39.47 -20.74,-30.56 -16.25,-70.82 11.43,-97.39 27.93,-26.82 71.17,-29.61 100.35,-7 27.12,21 37.48,48.93 33.85,83 -0.51,4.81 -1.21,9.61 -1.72,14.43 a 11.45,11.45 0 0 0 0.67,2.96 z" class="cls-9"/><path id="path31" fill="#343434" d="M 956.41,1661.08 Q 808.06,1504.65 659.71,1348.2 c -13,-13.66 -13,-13.68 0.83,-26.78 10,-9.5 20.19,-18.84 30,-28.54 6,-6 11.29,-6.23 16.65,0.2 1.66,2 3.57,3.79 5.36,5.68 q 295.82,311.92 591.61,623.86 c 13.7,14.44 13.7,14.46 -1.3,28.69 -10,9.5 -20.18,18.86 -30,28.54 -5.28,5.19 -9.74,5.28 -14.39,-0.21 -2.24,-2.65 -4.76,-5.06 -7.15,-7.58 z" class="cls-5"/><path id="path33" fill="#343434" d="m 1225,1497 q 126,132.81 251.89,265.63 c 11.82,12.46 11.82,12.49 -0.81,24.48 -26.81,25.45 -53.94,50.57 -80.3,76.48 -9,8.86 -14.92,7.73 -22.78,-0.57 Q 1120.4,1596.26 867.42,1329.88 c -7.81,-8.23 -8.85,-14.21 0.52,-22.8 q 41.86,-38.35 82.39,-78.15 c 8.47,-8.32 13.35,-7.89 21.15,0.39 Q 1097.88,1363.44 1225,1497 Z" class="cls-5"/><path id="path35" fill="#343435" d="m 1613.4,1656.8 c -14.52,13.77 -29.36,27.23 -43.43,41.44 -7.56,7.63 -13.49,8.5 -20.78,0.52 -13.17,-14.39 -26.65,-28.51 -40.26,-42.48 -7,-7.15 -6.4,-13.09 1,-20 q 44.79,-41.94 89.06,-84.43 c 7.25,-6.95 13.27,-7.42 20.09,0 13.51,14.67 27.16,29.22 41.21,43.37 7,7 5.61,12.23 -1.33,18.57 -15.42,14.05 -30.4,28.63 -45.56,43.01 z" class="cls-10"/><path id="path37" fill="#353535" d="m 1062.1,908.06 c -9.68,9.17 -19.51,18.18 -29,27.57 -6.08,6 -11,5.76 -16.66,-0.25 q -25.26,-27.09 -51,-53.77 c -6.66,-6.92 -5.44,-12.78 1.29,-19.07 q 26.76,-25.06 53.19,-50.47 c 7.48,-7.22 13.44,-6.27 20,0.88 q 24.22,26.26 49.2,51.85 c 6.72,6.86 6.42,12.18 -0.91,18.58 -8.94,7.88 -17.4,16.43 -26.11,24.68 z" class="cls-11"/><path id="path39" fill="#343434" d="m 679.3,1030.1 c 24.19,26 22,62.4 -5.23,87.9 -25.24,23.61 -64.26,22.43 -87.5,-2.65 -23.39,-25.25 -21,-63.77 5.61,-88.49 25.82,-23.98 63.07,-22.59 87.12,3.24 z" class="cls-5"/><path id="path41" fill="#343434" d="m 772.73,1218.6 c -25.59,24.42 -64.69,24.5 -87.81,0.18 -23.34,-24.55 -21.69,-65.35 3.6,-89.1 24.77,-23.27 63.45,-22.46 86.73,1.81 24.39,25.43 23.32,62.49 -2.52,87.11 z" class="cls-5"/><path id="path43" fill="#343434" d="m 937.27,521.65 c -19.56,-20.83 -17.91,-56.31 3.55,-76.08 21.46,-19.77 56.69,-18.94 76.4,1.84 19.34,20.4 17.41,56.12 -4.11,76.09 -21.75,20.19 -55.92,19.35 -75.84,-1.85 z" class="cls-5"/><path id="path45" fill="#525252" d="M 1457.06,1027.26 1089.6,639.77 c -11.71,-12.36 -11.7,-12.37 0.89,-24.34 22.3,-21.21 22.3,-21.21 43,0.66 l 726.86,766.48 c 12.62,13.31 12.61,13.32 -1,26.24 -21.31,20.24 -21.31,20.24 -41.14,-0.67 z" class="cls-8"/><path id="path47" fill="#49718d" d="m 1282.4,1078.3 c 23,24.48 21.95,54 14,76.83 -1.82,5.25 -6.34,8.19 -12,9.32 -22.44,4.44 -43.53,2.71 -62.65,-10.49 -15.7,-10.84 -23.06,-25.73 -20.5,-44.72 2.71,-20.18 15.32,-33.64 34,-40.59 18.68,-6.95 35.27,-1.87 47.15,9.65 z" class="cls-12"/><path id="path49" fill="#49718d" d="m 1393.3,1266.1 c -25.48,24.25 -64.5,15.47 -79,-17.87 a 44.51,44.51 0 0 1 -3.75,-12.47 c -2,-17.86 -5.41,-38 10.09,-50.64 17.17,-14 56.91,-6 74.68,11.31 14.36,14 17.63,38.68 7.89,57.25 a 48.52,48.52 0 0 1 -9.91,12.42 z" class="cls-12"/><path id="path51" fill="#525252" d="M 964.8,1654 675.31,1348.71 c -11.81,-12.46 -11.8,-12.47 0.7,-24.36 22.38,-21.29 22.38,-21.29 43,0.49 L 1288.19,1925 c 12.71,13.4 12.71,13.41 -0.8,26.24 -21.41,20.33 -21.41,20.33 -41.16,-0.49 z" class="cls-8"/><path id="path53" fill="#525252" d="m 1128.7,1586.2 q -122.32,-129 -244.85,-257.78 c -8.8,-9.2 -8.44,-14.37 1.08,-22.89 q 33.33,-29.8 64.92,-61.56 c 8.59,-8.6 13.31,-7.47 21,0.63 q 198.58,210.11 397.7,419.72 c 32,33.7 63.7,67.61 96,101 7.31,7.52 6.75,12 -0.91,19 -22.68,20.72 -45.11,41.74 -66.82,63.46 -8.58,8.57 -13.33,7.51 -21,-0.62 Q 1252.61,1716.38 1128.7,1586.2 Z" class="cls-8"/><path id="path55" fill="#525252" d="m 1605.7,1649.4 c -12.27,11.63 -24.78,23 -36.7,35 -6.19,6.23 -10.57,6 -16.13,-0.32 -8.86,-10.1 -18.23,-19.78 -27.72,-29.29 -5.17,-5.19 -6.5,-9.28 -0.18,-15.17 q 38.58,-35.92 76.52,-72.51 c 5.41,-5.19 9.37,-5.06 14.22,0.28 q 14.41,15.9 29.54,31.15 c 5.22,5.25 4.62,9.26 -0.76,14.21 -13.1,12.02 -25.88,24.41 -38.79,36.65 z" class="cls-8"/><path id="path57" fill="#525252" d="m 1052.3,899.52 c -6.78,6.44 -13.7,12.73 -20.3,19.35 -4.81,4.82 -8.72,4.74 -13.26,-0.16 q -18.57,-20.07 -37.63,-39.67 c -4.63,-4.77 -4.54,-8.57 0.5,-13.23 q 20.58,-19 40.69,-38.59 c 4.88,-4.74 8.68,-4.79 13.24,0.13 q 18.55,20.07 37.62,39.68 c 4.61,4.75 4.65,8.66 -0.47,13.25 -6.96,6.23 -13.65,12.81 -20.39,19.24 z" class="cls-8"/><path id="path59" fill="#b9b9b9" d="m 596.71,1107.2 c -18.91,-19.84 -17.67,-51.58 2.76,-70.75 19.75,-18.53 51.75,-18.4 70.27,0.29 18.85,19 17.79,51.66 -2.3,71 -20.44,19.66 -51.71,19.41 -70.73,-0.54 z" class="cls-7"/><path id="path61" fill="#b9b9b9" d="m 694.13,1210 c -19.23,-20 -18.22,-51 2.31,-70.65 20.28,-19.35 52.44,-19.08 71.09,0.59 17.76,18.74 16.71,51.59 -2.27,70.46 -19.36,19.23 -52.38,19.04 -71.13,-0.4 z" class="cls-7"/><path id="path63" fill="#6f2d2b" d="m 1004.3,514.2 c -17.65,16.58 -40.91,16.19 -57.08,-1 -16.17,-17.19 -15.56,-41.76 1.1,-57.59 17.06,-16.21 43.61,-16.09 59,0.28 16.22,17.26 14.97,41.43 -3.02,58.31 z" class="cls-13"/><path id="path65" fill="#fcfcfc" d="m 1245.37,1123 c -3.26,-3.44 -6.42,-7 -9.82,-10.3 -4.35,-4.23 -3.85,-8.09 0.39,-12.3 4.48,-4.47 8.87,-4 12.36,0.29 a 229.51,229.51 0 0 0 21.22,22.54 c 4.24,4 3.45,8.48 -1.19,12.34 -4,3.37 -7.65,3.75 -11.29,-0.44 -3.64,-4.19 -7.68,-8.18 -11.54,-12.25 z" class="cls-14"/><path id="path67" fill="#fbfcfc" d="m 1376.4,1245.9 c -2.65,2.06 -6.71,5.92 -7.83,4.14 -7.74,-12.28 -20.43,4.06 -28.31,-4.72 -2.28,-2.53 -0.65,-31.62 2.08,-33.85 a 44.68,44.68 0 0 1 6.38,-3.93 c 7.84,12.57 19.82,-5 28,3.19 a 3.89,3.89 0 0 1 0.87,1 c 0.93,1.86 2.8,5.24 2.54,5.41 -12.15,8.32 3.41,19.97 -3.73,28.76 z" class="cls-15"/></g><path id="path6" fill="none" d="m 783.83,397.35 c 0,0 156.66,-43.79 194.28,-35.93 37.62,7.86 649.62,675.69 649.62,675.69 l 21.27,338.2 -376.57,132.61 -759.81,20 c 0,0 -204.36,-410.2 -220.38,-422.82 -21.06,-12.63 -21.11,-162.6 -15.47,-191.21 5.64,-28.61 145.09,-167.26 170.35,-211.27 25.26,-44.01 336.71,-305.27 336.71,-305.27 z" class="cls-1"/><rect id="rect77" width="60.404" height="62.897" x="1329.5" y="1194.5" fill="#48708c"/><rect id="rect79" width="56.569" height="57.144" x="1224.8" y="1091.7" fill="#48708c"/><rect id="rect81" width="52.12" height="12.419" x="1643.7" y="-162.48" fill="#fdfdfd" stroke-width="1.062" ry="6.21" transform="rotate(47.131)"/><rect id="rect83" width="52.12" height="12.419" x="1798.1" y="-165.27" fill="#fdfdfd" stroke-width="1.062" ry="6.21" transform="rotate(47.131)"/><rect id="rect85" width="52.12" height="12.419" x="133.32" y="1817.7" fill="#fdfdfd" stroke-width="1.062" ry="6.21" transform="rotate(-42.869)"/></g></svg>