<svg xmlns="http://www.w3.org/2000/svg" width="166.7" height="171.014"><path fill="#00979D" stroke="#81C9CB" stroke-miterlimit="10" stroke-width=".932" d="M164.203 85.47c0 44.655-36.201 80.854-80.846 80.854-44.66 0-80.859-36.199-80.859-80.854 0-44.645 36.199-80.846 80.859-80.846 44.647 0 80.846 36.201 80.846 80.846z"/><linearGradient id="a" x1="2.498" x2="164.203" y1="85.271" y2="85.271" gradientTransform="matrix(1 0 0 -1 0 170.812)" gradientUnits="userSpaceOnUse"><stop offset=".117" stop-color="#FFF" stop-opacity="0"/><stop offset=".252" stop-color="#C0D1D3" stop-opacity=".153"/><stop offset=".387" stop-color="#91B3B7" stop-opacity=".306"/><stop offset=".52" stop-color="#6D9FA3" stop-opacity=".457"/><stop offset=".65" stop-color="#4D9195" stop-opacity=".604"/><stop offset=".776" stop-color="#30888B" stop-opacity=".746"/><stop offset=".895" stop-color="#148386" stop-opacity=".881"/><stop offset="1" stop-color="#008184"/></linearGradient><linearGradient id="b" x1="1.998" x2="164.703" y1="85.271" y2="85.271" gradientTransform="matrix(1 0 0 -1 0 170.812)" gradientUnits="userSpaceOnUse"><stop offset="0" stop-color="#FFF" stop-opacity="0"/><stop offset=".153" stop-color="#C0D1D3" stop-opacity=".153"/><stop offset=".306" stop-color="#91B3B7" stop-opacity=".306"/><stop offset=".457" stop-color="#6D9FA3" stop-opacity=".457"/><stop offset=".604" stop-color="#4D9195" stop-opacity=".604"/><stop offset=".746" stop-color="#30888B" stop-opacity=".746"/><stop offset=".881" stop-color="#148386" stop-opacity=".881"/><stop offset="1" stop-color="#008184"/></linearGradient><path fill="url(#a)" stroke="url(#b)" stroke-miterlimit="10" d="M164.203 85.537c0 44.655-36.201 80.854-80.846 80.854-44.66 0-80.859-36.201-80.859-80.854 0-44.645 36.199-80.846 80.859-80.846 44.647.002 80.846 36.201 80.846 80.846z" opacity=".5"/><g fill="#FFF"><path d="M114.232 114.383c-1.523 0-3.081-.109-4.615-.338-12.851-1.834-21.444-11.064-26.258-18.16-4.829 7.096-13.422 16.335-26.268 18.167-1.528.22-3.084.328-4.615.328-7.99 0-15.491-2.973-21.133-8.373-5.696-5.444-8.839-12.75-8.839-20.54 0-7.8 3.143-15.096 8.847-20.55 5.637-5.4 13.143-8.365 21.137-8.365 1.523 0 3.074.109 4.602.328 12.846 1.832 21.439 11.064 26.268 18.16 4.815-7.096 13.407-16.325 26.258-18.16a32.549 32.549 0 014.607-.328c7.99 0 15.496 2.973 21.133 8.365 5.701 5.454 8.837 12.75 8.837 20.55 0 7.79-3.128 15.096-8.829 20.54-5.647 5.4-13.142 8.376-21.132 8.376M89.05 85.47c2.509 4.78 9.913 16.708 22.016 18.441 1.059.146 2.126.227 3.165.227 10.871 0 19.72-8.373 19.72-18.671s-8.847-18.671-19.728-18.671c-1.039 0-2.106.074-3.155.227C98.963 68.752 91.559 80.68 89.05 85.47M52.488 66.799c-10.886 0-19.737 8.373-19.737 18.671 0 10.296 8.847 18.671 19.723 18.671 1.044 0 2.111-.081 3.17-.227 12.103-1.733 19.505-13.654 22.016-18.441-2.504-4.78-9.913-16.718-22.016-18.441a21.15 21.15 0 00-3.156-.233"/><path d="M44.23 82.643h17.999v5.8H44.23zm78.083 0h-6.094V76.54H110.4v6.103h-6.091v5.8h6.091v6.101h5.819v-6.101h6.094z"/></g></svg>