<svg id="Camada_1" data-name="Camada 1" xmlns="http://www.w3.org/2000/svg" xmlns:xlink="http://www.w3.org/1999/xlink" viewBox="0 0 445 280"><defs><style>.cls-1{fill:url(#Gradiente_sem_nome_9);}</style><linearGradient id="Gradiente_sem_nome_9" x1="3.12" y1="140" x2="441.88" y2="140" gradientUnits="userSpaceOnUse"><stop offset="0" stop-color="#2b6c4f"/><stop offset="1" stop-color="#49b86e"/></linearGradient></defs><title>Prancheta 1</title><path class="cls-1" d="M431.46,33.27,410.34,12.14A36.06,36.06,0,0,0,384.72,1.72a34.53,34.53,0,0,0-25.35,10.42L222.5,149,85.63,12.14A34.5,34.5,0,0,0,60.28,1.73,36.07,36.07,0,0,0,34.66,12.14L13.82,33.27A34.92,34.92,0,0,0,3.12,58.9a33.48,33.48,0,0,0,10.7,25.34L197.15,267.58a33.49,33.49,0,0,0,25.35,10.7,35,35,0,0,0,25.62-10.7L431.46,84.24A34.5,34.5,0,0,0,441.88,58.9,36,36,0,0,0,431.46,33.27Z"/></svg>