<svg id="Camada_1" data-name="Camada 1" xmlns="http://www.w3.org/2000/svg" xmlns:xlink="http://www.w3.org/1999/xlink" viewBox="0 0 2048 2048"><defs><style>.cls-1{fill:none;}.cls-2{fill:#2b6c4f;}.cls-3{fill:#49b86e;}.cls-4{clip-path:url(#clip-path);}.cls-5{fill:#343434;}.cls-6{fill:#48708c;}.cls-7{fill:#b9b9b9;}.cls-8{fill:#525252;}.cls-9{fill:#fdfdfd;}.cls-10{fill:#343435;}.cls-11{fill:#353535;}.cls-12{fill:#49718d;}.cls-13{fill:#6f2d2b;}.cls-14{fill:#fcfcfc;}.cls-15{fill:#fbfcfc;}</style><clipPath id="clip-path"><path class="cls-1" d="M783.83,397.35s156.66-43.79,194.28-35.93,649.62,675.69,649.62,675.69l21.27,338.2-376.57,132.61-759.81,20s-204.36-410.2-220.38-422.82c-21.06-12.63-21.11-162.6-15.47-191.21S421.86,746.63,447.12,702.62,783.83,397.35,783.83,397.35Z"/></clipPath></defs><title>Logo</title><path class="cls-2" d="M734.71,849.33l-371-215.77L109.33,1076a171.8,171.8,0,0,0,.23,171.66L183,1374.55h249.9Z"/><path class="cls-2" d="M1024.67,344.87s300.66,523,300.66,523l373.26-212L1444.41,213.69a171.79,171.79,0,0,0-149-86.19H1147.25v4.12Z"/><path class="cls-3" d="M903.9,789.33l1.09-1.89A47.22,47.22,0,0,0,887.57,723l-60.32-34.66,197.42-343.45L1147.24,131.6v-4.1H751.57A171.81,171.81,0,0,0,602,214.72L455.15,474.39l-60.3-34.65a47.22,47.22,0,0,0-64.45,17.4l0,.05A47.2,47.2,0,0,0,325.72,493l37.94,140.53,67.18,248.88a47.23,47.23,0,0,0,57.89,33.28L875.27,811.39A47.24,47.24,0,0,0,903.9,789.33Z"/><g class="cls-4"><path class="cls-5" d="M766.84,1542.43,290,1039.57c-20.59-21.72-19.74-38.1,2.5-59.64,8.23-8,22.34-14.52,22.8-24.63s-13.21-17-20.75-25.28c-19.72-21.55-21-17,1.17-38,22.92-21.78,46.11-43.29,68.71-65.4,8.06-7.88,14.05-9.15,21.58,0,7.74,9.35,17,17.39,24.81,26.71,5.72,6.85,9.55,5.82,15.66,0,41.79-40.07,83.91-79.79,125.92-119.63,40.07-38,79.9-76.25,120.4-113.79,8.42-7.81,8-12.09.39-19.4-13.77-13.23-26.26-27.76-39.72-41.31-5.64-5.68-5.24-10.08.39-15.42q71.34-67.49,142.51-135.15c6.28-6,11.17-5.31,16.69.67,13.24,14.36,27.21,28.07,40.11,42.74,6.25,7.11,10.13,6.22,16.63-.1,26.5-25.77,53.46-51.07,80.35-76.43,18.46-17.41,36.57-17.32,54.31.06,2.48,2.43,4.8,5,7.19,7.54q467,492.47,934.2,984.75c9.06,9.53,11.49,19.24,12.7,32.22,3.31,35.32-9.65,61-38,82.52-19.72,15-36.31,34.11-54.71,50.94-5.76,5.26-8.15,10.73-8.24,18.34-.23,18-1.51,36-1.84,54-.14,7.6-2.73,13.26-8.34,18.57q-208.08,197.05-415.88,394.41c-6,5.67-12.07,8.48-20.14,7.67-5.66-.57-11.51.31-17.12-.44-30.11-4-55.89,1.07-77.44,26.92-13.38,16.05-34,12.49-49.53-3.9q-152.85-161.14-305.67-322.32Z"/><path class="cls-6" d="M776.25,1533.61l-476-502c-17.5-18.45-17.21-27.31,1.44-45.05,23.92-22.76,23.92-22.76,45.8.32q50.2,52.94,100.42,105.86c11.5,12.1,12.79,12.06,25.29.22,25.55-24.2,50.86-48.65,76.72-72.5,8.17-7.53,8.17-12.87.76-20.59-38.52-40.07-76.38-80.78-115.08-120.69-8.11-8.37-7.49-12.91,1-20.88Q558.19,743.85,679,628.47c8.33-8,12.85-8.63,20.87,0,37.47,40.47,75.9,80,113.47,120.41,8,8.64,13.44,9.29,22.46.6q67.34-64.92,135.72-128.73c9-8.44,9.06-14.38.95-22.82-37.9-39.46-75.11-79.58-113.28-118.79-9-9.21-8.1-14.34,1.25-22.8,25.43-23,49.9-47.05,74.86-70.56,16.11-15.18,28.11-15,42.91.64q470.22,495.81,940.5,991.54c5.49,5.79,6.83,11.83,7.7,19.65,3.68,33-7.93,57.75-35,78.34-20.42,15.55-37.63,35.31-56.67,52.77-6.37,5.85-10.46,11.92-9.5,20.63a15.5,15.5,0,0,1-.09,2.63c-1.12,20.17,2.95,42.57-4.84,59.88-7.58,16.85-27.18,28.61-41.71,42.4Q1594.42,1829,1410.32,2003.84c-7.74,7.36-15.27,11.38-25.78,10-5.61-.74-11.54.42-17.11-.47-28.89-4.65-52.4,2.71-72.42,26.55-13.52,16.11-25.3,14-40-1.51Q1015.6,1786,776.25,1533.61Z"/><path class="cls-7" d="M732.69,645.77c-26.87-28.33-53.55-56.85-80.75-84.87-6.67-6.87-8.05-11,.15-18.6q62.11-57.67,123.06-116.61c6.71-6.46,10.31-6.51,16.59.17q82.46,87.74,165.7,174.72c6.76,7,6.55,10.94-.73,17.73q-61.47,57.39-122,115.75c-7.61,7.34-11.91,7.23-18.86-.3C788.46,704.1,760.45,675.05,732.69,645.77Z"/><path class="cls-8" d="M458.53,922c24.8,26.15,49.35,52.54,74.55,78.3,7.23,7.38,7,12-.77,19.08-21.41,19.47-42.36,39.47-63,59.72-6.76,6.63-11,6.12-17.14-.4q-75-79.68-150.58-158.78c-6.29-6.58-6.17-10.81.69-17.11q32.44-29.83,64-60.67c6.75-6.61,11-6.23,17.14.36C408.17,869.27,433.44,895.58,458.53,922Z"/><path class="cls-5" d="M1450,1035.77,1076.14,641.52c-13.58-14.33-13.58-14.34,1.52-28.66,9.37-8.89,18.94-17.58,28-26.73,6.3-6.32,11.82-7.26,17.61-.09,1.9,2.36,4.16,4.43,6.25,6.64l745.93,786.59c14.48,15.27,14.48,15.27-1.6,30.52q-11.64,11-23.27,22.07c-13.14,12.41-13.18,12.43-25,0q-31.41-33-62.77-66.17Z"/><path class="cls-9" d="M1329.31,1152.52c16.63-1.77,33.28-2.09,49.54,2.27,37.64,10.1,63.07,45.82,59.22,83.15-3.76,36.53-35.92,67.73-73.28,71.11-36.47,3.29-71.58-22.79-81.27-60.16-3.46-13.35-4.46-27.14-1.8-40.47,2.53-12.68-2.38-13-12.47-12.43-35.34,2-64.3-9.67-84.52-39.47-20.74-30.56-16.25-70.82,11.43-97.39,27.93-26.82,71.17-29.61,100.35-7,27.12,21,37.48,48.93,33.85,83-.51,4.81-1.21,9.61-1.72,14.43A11.45,11.45,0,0,0,1329.31,1152.52Z"/><path class="cls-5" d="M956.41,1661.08q-148.35-156.43-296.7-312.88c-13-13.66-13-13.68.83-26.78,10-9.5,20.19-18.84,30-28.54,6-6,11.29-6.23,16.65.2,1.66,2,3.57,3.79,5.36,5.68q295.82,311.92,591.61,623.86c13.7,14.44,13.7,14.46-1.3,28.69-10,9.5-20.18,18.86-30,28.54-5.28,5.19-9.74,5.28-14.39-.21-2.24-2.65-4.76-5.06-7.15-7.58Z"/><path class="cls-5" d="M1225,1497q126,132.81,251.89,265.63c11.82,12.46,11.82,12.49-.81,24.48-26.81,25.45-53.94,50.57-80.3,76.48-9,8.86-14.92,7.73-22.78-.57q-252.6-266.76-505.58-533.14c-7.81-8.23-8.85-14.21.52-22.8q41.86-38.35,82.39-78.15c8.47-8.32,13.35-7.89,21.15.39Q1097.88,1363.44,1225,1497Z"/><path class="cls-10" d="M1613.39,1656.84c-14.52,13.77-29.36,27.23-43.43,41.44-7.56,7.63-13.49,8.5-20.78.52-13.17-14.39-26.65-28.51-40.26-42.48-7-7.15-6.4-13.09,1-20q44.79-41.94,89.06-84.43c7.25-6.95,13.27-7.42,20.09,0,13.51,14.67,27.16,29.22,41.21,43.37,7,7,5.61,12.23-1.33,18.57C1643.53,1627.88,1628.55,1642.46,1613.39,1656.84Z"/><path class="cls-11" d="M1062.06,908.06c-9.68,9.17-19.51,18.18-29,27.57-6.08,6-11,5.76-16.66-.25q-25.26-27.09-51-53.77c-6.66-6.92-5.44-12.78,1.29-19.07q26.76-25.06,53.19-50.47c7.48-7.22,13.44-6.27,20,.88q24.22,26.26,49.2,51.85c6.72,6.86,6.42,12.18-.91,18.58C1079.23,891.26,1070.77,899.81,1062.06,908.06Z"/><path class="cls-5" d="M679.3,1030.08c24.19,26,22,62.4-5.23,87.9-25.24,23.61-64.26,22.43-87.5-2.65-23.39-25.25-21-63.77,5.61-88.49C618,1002.86,655.25,1004.25,679.3,1030.08Z"/><path class="cls-5" d="M772.73,1218.62c-25.59,24.42-64.69,24.5-87.81.18-23.34-24.55-21.69-65.35,3.6-89.1,24.77-23.27,63.45-22.46,86.73,1.81C799.64,1156.94,798.57,1194,772.73,1218.62Z"/><path class="cls-5" d="M937.27,521.65c-19.56-20.83-17.91-56.31,3.55-76.08s56.69-18.94,76.4,1.84c19.34,20.4,17.41,56.12-4.11,76.09C991.36,543.69,957.19,542.85,937.27,521.65Z"/><path class="cls-8" d="M1457.06,1027.26,1089.6,639.77c-11.71-12.36-11.7-12.37.89-24.34,22.3-21.21,22.3-21.21,43,.66l726.86,766.48c12.62,13.31,12.61,13.32-1,26.24-21.31,20.24-21.31,20.24-41.14-.67Z"/><path class="cls-12" d="M1282.4,1078.31c23,24.48,21.95,54,14,76.83-1.82,5.25-6.34,8.19-12,9.32-22.44,4.44-43.53,2.71-62.65-10.49-15.7-10.84-23.06-25.73-20.5-44.72,2.71-20.18,15.32-33.64,34-40.59S1270.52,1066.79,1282.4,1078.31Z"/><path class="cls-12" d="M1393.31,1266.09c-25.48,24.25-64.5,15.47-79-17.87a44.51,44.51,0,0,1-3.75-12.47c-2-17.86-5.41-38,10.09-50.64,17.17-14,56.91-6,74.68,11.31,14.36,14,17.63,38.68,7.89,57.25A48.52,48.52,0,0,1,1393.31,1266.09Z"/><path class="cls-8" d="M964.8,1654,675.31,1348.71c-11.81-12.46-11.8-12.47.7-24.36,22.38-21.29,22.38-21.29,43,.49L1288.19,1925c12.71,13.4,12.71,13.41-.8,26.24-21.41,20.33-21.41,20.33-41.16-.49Z"/><path class="cls-8" d="M1128.73,1586.22q-122.32-129-244.85-257.78c-8.8-9.2-8.44-14.37,1.08-22.89q33.33-29.8,64.92-61.56c8.59-8.6,13.31-7.47,21,.63q198.58,210.11,397.7,419.72c32,33.7,63.7,67.61,96,101,7.31,7.52,6.75,12-.91,19-22.68,20.72-45.11,41.74-66.82,63.46-8.58,8.57-13.33,7.51-21-.62Q1252.64,1716.4,1128.73,1586.22Z"/><path class="cls-8" d="M1605.72,1649.36c-12.27,11.63-24.78,23-36.7,35-6.19,6.23-10.57,6-16.13-.32-8.86-10.1-18.23-19.78-27.72-29.29-5.17-5.19-6.5-9.28-.18-15.17q38.58-35.92,76.52-72.51c5.41-5.19,9.37-5.06,14.22.28q14.41,15.9,29.54,31.15c5.22,5.25,4.62,9.26-.76,14.21C1631.41,1624.73,1618.63,1637.12,1605.72,1649.36Z"/><path class="cls-8" d="M1052.26,899.52c-6.78,6.44-13.7,12.73-20.3,19.35-4.81,4.82-8.72,4.74-13.26-.16q-18.57-20.07-37.63-39.67c-4.63-4.77-4.54-8.57.5-13.23q20.58-19,40.69-38.59c4.88-4.74,8.68-4.79,13.24.13q18.55,20.07,37.62,39.68c4.61,4.75,4.65,8.66-.47,13.25C1065.69,886.51,1059,893.09,1052.26,899.52Z"/><path class="cls-7" d="M596.71,1107.24c-18.91-19.84-17.67-51.58,2.76-70.75,19.75-18.53,51.75-18.4,70.27.29,18.85,19,17.79,51.66-2.3,71C647,1127.44,615.73,1127.19,596.71,1107.24Z"/><path class="cls-7" d="M694.13,1210c-19.23-20-18.22-51,2.31-70.65,20.28-19.35,52.44-19.08,71.09.59,17.76,18.74,16.71,51.59-2.27,70.46C745.9,1229.63,712.88,1229.44,694.13,1210Z"/><path class="cls-13" d="M1004.34,514.2c-17.65,16.58-40.91,16.19-57.08-1s-15.56-41.76,1.1-57.59c17.06-16.21,43.61-16.09,59,.28C1023.58,473.15,1022.33,497.32,1004.34,514.2Z"/><path class="cls-14" d="M1245.37,1123c-3.26-3.44-6.42-7-9.82-10.3-4.35-4.23-3.85-8.09.39-12.3,4.48-4.47,8.87-4,12.36.29a229.51,229.51,0,0,0,21.22,22.54c4.24,4,3.45,8.48-1.19,12.34-4,3.37-7.65,3.75-11.29-.44s-7.68-8.18-11.54-12.25Z"/><path class="cls-15" d="M1376.42,1245.91c-2.65,2.06-6.71,5.92-7.83,4.14-7.74-12.28-20.43,4.06-28.31-4.72-2.28-2.53-.65-31.62,2.08-33.85a44.68,44.68,0,0,1,6.38-3.93c7.84,12.57,19.82-5,28,3.19a3.89,3.89,0,0,1,.87,1c.93,1.86,2.8,5.24,2.54,5.41C1368,1225.47,1383.56,1237.12,1376.42,1245.91Z"/></g><path class="cls-2" d="M1616.59,1374.54H1010.8l-2.19,429.21h510a171.82,171.82,0,0,0,149-86.32l74.33-129.56-4-2.29Z"/><path class="cls-3" d="M874.47,1257.77h-2.21A47.21,47.21,0,0,0,825,1305v69.57H183l212.38,367.06a124.51,124.51,0,0,0,107.76,62.15H825.05v69.53a47.21,47.21,0,0,0,47.21,47.21h.06a47.17,47.17,0,0,0,33.38-13.83l285.23-285.23a47.2,47.2,0,0,0,0-66.77l-180.16-180.12L907.87,1271.61A47.19,47.19,0,0,0,874.47,1257.77Z"/><path class="cls-3" d="M1790,815l60.33-34.67a47.22,47.22,0,0,0,17.39-64.49h0a47.21,47.21,0,0,0-28.61-22L1449.64,588.66a47.22,47.22,0,0,0-57.89,33.27l-104.33,386.48a47.24,47.24,0,0,0,4.65,35.84l1.1,1.91a47.21,47.21,0,0,0,64.45,17.4l60.29-34.64,198.68,345.62,121.31,211,4,2.29,196.82-343.14a171.8,171.8,0,0,0-.08-171.11Z"/></svg>