<svg id="Camada_1" data-name="Camada 1" xmlns="http://www.w3.org/2000/svg" viewBox="0 0 1000 1000"><defs><style>.cls-1{fill:#49b86e;}.cls-2{fill:#e8e8e8;}.cls-3{fill:#d6d6d6;}.cls-4{fill:#edbb4c;}.cls-5{fill:#ffd15c;}.cls-10,.cls-19,.cls-23,.cls-6{fill:#fcfcfc;}.cls-7{fill:#279fc9;}.cls-8{fill:#34abe0;}.cls-9{fill:#802927;}.cls-10{font-size:55.39px;}.cls-10,.cls-19,.cls-23{font-family:Nunito-Bold, Nunito;font-weight:700;}.cls-11{letter-spacing:-0.01em;}.cls-12{letter-spacing:-0.01em;}.cls-13{letter-spacing:-0.02em;}.cls-14{letter-spacing:0em;}.cls-15{letter-spacing:-0.01em;}.cls-16{fill:#41b787;}.cls-17{fill:#f4f4f4;}.cls-18{fill:#29718f;}.cls-19{font-size:56.82px;}.cls-20{letter-spacing:-0.07em;}.cls-21{fill:#ffbc05;}.cls-22{fill:#fff;}.cls-23{font-size:68.76px;}.cls-24{letter-spacing:0em;}.cls-25{letter-spacing:-0.09em;}.cls-26{fill:#aa8058;}.cls-27{fill:#e3aa75;}.cls-28{fill:#bf6065;}.cls-29{fill:#ff8087;}.cls-30{fill:#979598;}.cls-31{fill:#c9c6ca;}.cls-32{fill:#2b6c4f;}.cls-33{letter-spacing:0em;}</style></defs><title>Residuos</title><circle class="cls-1" cx="215" cy="805" r="188"/><path class="cls-2" d="M357.91,826.49l-7.78,32.7a108.66,108.66,0,0,1-93.95-37.85,38.93,38.93,0,0,1,12-15,16.81,16.81,0,0,0,6.76-13l0-.82a16.47,16.47,0,0,0-2.81-9.52,17.16,17.16,0,0,0-3.41-3.77,38.69,38.69,0,0,1-14.23-30.81l.39-19.6a38.79,38.79,0,0,1,25.16-35.53,11.86,11.86,0,0,0,7.73-10.83l.29-14.25,43,.87-.28,14.25a11.82,11.82,0,0,0,7.28,11.13A38.83,38.83,0,0,1,361.82,731l-.41,19.6A38.7,38.7,0,0,1,346,780.76a16.82,16.82,0,0,0-6.7,11.89c0,.38-.05.76-.06,1.14l0,.82a16.76,16.76,0,0,0,6.22,13.3A38.76,38.76,0,0,1,357.91,826.49Z"/><path class="cls-3" d="M331.12,669.05l-.19,9.63-27-.55a4.65,4.65,0,0,0-3.3,1.29,4.6,4.6,0,0,0-1.41,3.24c-.1,4.86-1.6,9.15-3.76,10.91-6.85,5.56-11.89,19.44-12.22,35.79l-.4,19.6c-.25,12.39,2.26,23.47,6.36,30.65,1.85,3.23,2.9,8.07,2.79,13.23v.82c-.11,5.16-1.36,10-3.33,13.09-4.4,7-7.35,18-7.6,30.37l-.12,5.78a108.72,108.72,0,0,1-24.74-21.56,38.78,38.78,0,0,1,12-15,16.74,16.74,0,0,0,6.75-13l0-.82a16.78,16.78,0,0,0-6.22-13.3,38.68,38.68,0,0,1-14.23-30.81l.4-19.59a38.78,38.78,0,0,1,25.15-35.54,11.84,11.84,0,0,0,7.74-10.82l.29-14.25Z"/><path class="cls-4" d="M334.57,652.1l-.36,18-49.22-1,.36-18a9.63,9.63,0,0,1,9.82-9.43l30,.61A9.62,9.62,0,0,1,334.57,652.1Z"/><path class="cls-5" d="M334.57,652.1l-.36,18-35-.71.37-18A9.62,9.62,0,0,1,309.4,642l15.74.32A9.62,9.62,0,0,1,334.57,652.1Z"/><path class="cls-6" d="M338.46,758.15h0a10.19,10.19,0,0,1-10-10.4l.5-24.6a10.17,10.17,0,0,1,10.39-10h0a10.18,10.18,0,0,1,10,10.4l-.5,24.6A10.19,10.19,0,0,1,338.46,758.15Z"/><path class="cls-6" d="M346.85,847l-.26,12.45q-4.83.33-9.75.24c-3.59-.08-7.14-.32-10.63-.74l.26-12.36a10.19,10.19,0,0,1,20.38.41Z"/><path class="cls-2" d="M152.52,777.92l-.28.77a16.8,16.8,0,0,0,1.81,14.58,38.69,38.69,0,0,1,4,33.7l-6.31,18.09a108.79,108.79,0,0,1-86.66-66.67,38.84,38.84,0,0,1,16.09-10.53,16.79,16.79,0,0,0,10.46-10.3l.27-.77a16.77,16.77,0,0,0-1.8-14.57,38.69,38.69,0,0,1-4-33.7L92.55,690a38.79,38.79,0,0,1,34.93-26,11.86,11.86,0,0,0,10.71-7.9l4.69-13.46,40.62,14.16-4.69,13.46a11.84,11.84,0,0,0,3.48,12.84,38.78,38.78,0,0,1,11.21,42.06l-6.45,18.52A38.71,38.71,0,0,1,163,767.63,16.73,16.73,0,0,0,152.52,777.92Z"/><path class="cls-3" d="M183.5,656.82l-3.17,9.1L154.83,657a4.62,4.62,0,0,0-5.89,2.84c-1.6,4.59-4.36,8.2-6.95,9.2-8.24,3.17-17.33,14.81-22.71,30.25l-6.45,18.51c-4.08,11.7-5.13,23-3.45,31.12.75,3.64.25,8.56-1.45,13.43l-.27.78c-1.69,4.87-4.37,9-7.22,11.42-6.35,5.31-12.56,14.82-16.63,26.52l-1.91,5.46a109.09,109.09,0,0,1-16.84-28.17,38.78,38.78,0,0,1,16.09-10.53,16.79,16.79,0,0,0,10.46-10.3l.27-.77a16.77,16.77,0,0,0-1.8-14.57,38.67,38.67,0,0,1-4-33.7L92.55,690a38.76,38.76,0,0,1,34.93-26,11.85,11.85,0,0,0,10.7-7.9l4.69-13.46Z"/><path class="cls-7" d="M192,641.77l-5.92,17-46.49-16.2,5.92-17a9.62,9.62,0,0,1,12.26-5.93l28.3,9.87A9.63,9.63,0,0,1,192,641.77Z"/><path class="cls-8" d="M192,641.77l-5.92,17-33.05-11.52,5.92-17a9.63,9.63,0,0,1,12.26-5.92l14.86,5.18A9.63,9.63,0,0,1,192,641.77Z"/><path class="cls-6" d="M162.87,743.8h0a10.19,10.19,0,0,1-6.27-13l8.1-23.23a10.19,10.19,0,0,1,13-6.27h0a10.18,10.18,0,0,1,6.27,13l-8.09,23.23A10.2,10.2,0,0,1,162.87,743.8Z"/><path class="cls-6" d="M143.3,830.92l-4.1,11.76q-4.69-1.18-9.34-2.8-5.09-1.77-9.88-4l4.07-11.68a10.19,10.19,0,0,1,19.25,6.71Z"/><path class="cls-2" d="M270.19,808.63l.1.82a16.76,16.76,0,0,0,8.06,12.27,38.66,38.66,0,0,1,18.48,28.46l2.36,19A108.79,108.79,0,0,1,192,847.75a38.85,38.85,0,0,1,9.76-16.56,16.73,16.73,0,0,0,4.83-13.86l-.1-.82a16.76,16.76,0,0,0-8.06-12.27,38.73,38.73,0,0,1-18.48-28.46l-2.41-19.46a38.79,38.79,0,0,1,19.83-38.76,11.83,11.83,0,0,0,6.1-11.81L201.7,691.6l42.69-5.28,1.75,14.15a11.84,11.84,0,0,0,8.8,10,38.8,38.8,0,0,1,28.67,32.76l2.4,19.46a38.72,38.72,0,0,1-11,32.11A16.73,16.73,0,0,0,270.19,808.63Z"/><path class="cls-3" d="M244.39,686.32l1.18,9.56-26.81,3.31a4.63,4.63,0,0,0-4,5.16c.6,4.82-.27,9.28-2.15,11.33-6,6.49-9,20.94-7,37.17L208,772.31c1.52,12.29,5.58,22.9,10.67,29.42,2.29,2.94,4,7.57,4.66,12.7l.1.81c.63,5.12.08,10-1.42,13.44-3.35,7.57-4.71,18.84-3.19,31.14l.71,5.74A109.16,109.16,0,0,1,192,847.75a38.86,38.86,0,0,1,9.77-16.57,16.75,16.75,0,0,0,4.82-13.85l-.1-.82a16.76,16.76,0,0,0-8.06-12.27,38.68,38.68,0,0,1-18.48-28.46l-2.4-19.46a38.78,38.78,0,0,1,19.81-38.76,11.82,11.82,0,0,0,6.11-11.81l-1.75-14.15Z"/><path class="cls-9" d="M245.38,669.05l2.21,17.84-48.86,6.05-2.2-17.85a9.62,9.62,0,0,1,8.37-10.74l29.74-3.68A9.63,9.63,0,0,1,245.38,669.05Z"/><path class="cls-9" d="M245.38,669.05l2.21,17.84-34.73,4.3-2.21-17.85A9.62,9.62,0,0,1,219,662.61l15.61-1.94A9.63,9.63,0,0,1,245.38,669.05Z"/><path class="cls-6" d="M264.37,773.45h0A10.18,10.18,0,0,1,253,764.59l-3-24.42a10.19,10.19,0,0,1,8.86-11.36h0a10.2,10.2,0,0,1,11.37,8.86l3,24.42A10.19,10.19,0,0,1,264.37,773.45Z"/><path class="cls-6" d="M285.37,860.24l1.53,12.36q-4.72,1-9.62,1.62a106.46,106.46,0,0,1-10.62.79l-1.52-12.27a10.19,10.19,0,0,1,16.38-9.28A10.08,10.08,0,0,1,285.37,860.24Z"/><path class="cls-9" d="M374.1,757.79l-.84,9.35-1.9,21L358.88,926a187.89,187.89,0,0,1-287.76,0L56.74,767.15l-.85-9.36Z"/><path class="cls-9" d="M371.37,788.09l-2.8,30.82-3,33.48L358.88,926A188.14,188.14,0,0,1,129,972.2L115.83,827.14a35.82,35.82,0,0,1,35.68-39Z"/><path class="cls-9" d="M388,772.05H42a7.42,7.42,0,0,1-7.42-7.42v-22.9A7.42,7.42,0,0,1,42,734.31H388a7.42,7.42,0,0,1,7.42,7.42v22.9A7.42,7.42,0,0,1,388,772.05Z"/><path class="cls-6" d="M210.36,938.31V970.7c-15.18,0-25-.08-31.37-1.91A14.94,14.94,0,0,1,170.3,962h0c-1.21-3.35-3.13-11.06-.19-16.85,1.94-3.83,6.91-3.94,8.41-6.85Z"/><path class="cls-6" d="M183.72,899l16.16,32.31-13.76-7.42s-2.53,4.58-7.6,14.41q-2.25,4.35-5.17,10.1c-2.93,5.78-4.26,10.24-3,13.59L153.25,933.1a9.8,9.8,0,0,1-.31-9.38l7.06-14-12.74-7.43Z"/><path class="cls-6" d="M240.22,912.07l28-16.19c7.59,13.14,12.44,21.71,14,28.11a14.91,14.91,0,0,1-1.52,10.92h0c-2.29,2.73-8,8.24-14.49,8.6-4.29.23-6.87-4-10.13-3.86Z"/><path class="cls-6" d="M219.5,954.79l19.91-30.15.44,15.62s5.24-.1,16.29-.61q4.89-.24,11.32-.58c6.48-.36,11-1.43,13.3-4.16l-16.51,29.22a9.8,9.8,0,0,1-8,5l-15.65.89-.06,14.74Z"/><path class="cls-6" d="M201.81,899.94l-28-16.19c7.58-13.14,12.58-21.63,17.33-26.21a14.89,14.89,0,0,1,10.22-4.13h0c3.51.62,11.14,2.82,14.69,8.25,2.35,3.6,0,8,1.72,10.71Z"/><path class="cls-6" d="M249.16,896.53l-36.06-2.17,13.31-8.2s-2.71-4.49-8.68-13.79q-2.64-4.12-6.16-9.52c-3.55-5.44-6.74-8.82-10.25-9.44l33.56-.31a9.77,9.77,0,0,1,8.28,4.42l8.6,13.11,12.8-7.32Z"/><text class="cls-10" transform="translate(81.45 821.95)">P<tspan class="cls-11" x="36.56" y="0">L</tspan><tspan class="cls-12" x="66.96" y="0">Á</tspan><tspan class="cls-13" x="107.62" y="0">S</tspan><tspan class="cls-14" x="142.12" y="0">TI</tspan><tspan class="cls-15" x="191.64" y="0">C</tspan><tspan x="228.47" y="0">O</tspan></text><circle class="cls-16" cx="780.5" cy="805.5" r="188.5"/><rect class="cls-3" x="669.72" y="632.86" width="169.86" height="196.44" transform="translate(-131.05 1296.34) rotate(-76.64)"/><path class="cls-3" d="M807.5,857.19,690.78,829.47a76.47,76.47,0,0,1-56.73-92.08l21.58-90.87,191.13,45.4Z"/><rect class="cls-2" x="705.86" y="646.56" width="196.45" height="169.87" transform="translate(-109.68 142.7) rotate(-9.5)"/><rect class="cls-17" x="717.86" y="632.05" width="196.45" height="169.87" transform="translate(-107.12 144.48) rotate(-9.5)"/><path class="cls-18" d="M940,758.16l-.85,9.38-1.9,21L924.76,926.83a188.39,188.39,0,0,1-288.52,0L621.82,767.55l-.85-9.39Z"/><path class="cls-18" d="M937.28,788.54,924.76,926.83a188.62,188.62,0,0,1-230.54,46.31L681.07,827.7a35.91,35.91,0,0,1,35.77-39.16Z"/><path class="cls-18" d="M954,772.46H607a7.44,7.44,0,0,1-7.44-7.44V742.07a7.44,7.44,0,0,1,7.44-7.44H954a7.44,7.44,0,0,1,7.44,7.44V765A7.44,7.44,0,0,1,954,772.46Z"/><path class="cls-6" d="M775.85,939.17v32.47c-15.22,0-25.09-.08-31.45-1.91a14.92,14.92,0,0,1-8.71-6.8h0c-1.21-3.36-3.13-11.08-.19-16.88,1.94-3.85,6.93-4,8.43-6.87Z"/><path class="cls-6" d="M749.14,899.77l16.2,32.4-13.79-7.45s-2.54,4.6-7.63,14.45q-2.25,4.37-5.18,10.13c-2.94,5.8-4.27,10.27-3.06,13.63l-17.09-29a9.8,9.8,0,0,1-.31-9.41l7.07-14-12.77-7.45Z"/><path class="cls-6" d="M805.78,912.86l28.12-16.24c7.61,13.18,12.48,21.77,14.07,28.19a15,15,0,0,1-1.53,11h0c-2.3,2.73-8,8.26-14.53,8.62-4.3.23-6.89-4-10.16-3.87Z"/><path class="cls-6" d="M785,955.69l20-30.23.45,15.66s5.25-.1,16.33-.61c3.27-.16,7-.35,11.35-.59,6.5-.35,11-1.43,13.34-4.16l-16.56,29.3a9.8,9.8,0,0,1-8,5l-15.69.89-.07,14.78Z"/><path class="cls-6" d="M767.28,900.7l-28.12-16.24c7.61-13.18,12.61-21.68,17.38-26.28A14.9,14.9,0,0,1,766.78,854h0c3.51.62,11.17,2.82,14.72,8.27,2.36,3.61,0,8,1.73,10.74Z"/><path class="cls-6" d="M814.76,897.27,778.6,895.1l13.34-8.22s-2.71-4.51-8.7-13.84c-1.77-2.75-3.82-5.93-6.18-9.54-3.56-5.45-6.76-8.84-10.27-9.47l33.65-.31a9.81,9.81,0,0,1,8.3,4.44l8.62,13.14L830.19,864Z"/><text class="cls-19" transform="translate(700.31 826.17)"><tspan class="cls-20">P</tspan><tspan x="33.24" y="0">APEL</tspan></text><circle class="cls-16" cx="500" cy="525.5" r="180.5"/><path class="cls-3" d="M367.21,402.61a3.71,3.71,0,0,1-3.2-.14l-15.29-8.06a3.72,3.72,0,1,1,3.47-6.59l15.29,8.07a3.73,3.73,0,0,1-.27,6.72Z"/><path class="cls-2" d="M492,535.68c-1,.73-2,1.44-3,2.13a98.76,98.76,0,0,1-16.46,8.9,99.81,99.81,0,0,1-17.82,5.66,97.37,97.37,0,0,1-17.8,2.17h0a97.74,97.74,0,0,1-14.23-.62,4.1,4.1,0,0,1-.49-.06l-.16,0c-1.83-.22-3.65-.5-5.47-.82s-3.35-.65-5-1q-4.22-1-8.32-2.33l-52.8-131.51h0l-.48-13L416,377l9,9.39h0Z"/><path class="cls-3" d="M364.51,398.9l.14,3.84.34,9.19h0l54.38,135.45,2.6,6.47c-1.83-.23-3.65-.5-5.47-.83s-3.35-.64-5-1q-4.22-1-8.32-2.34l-52.8-131.51h0l-.48-13Z"/><path class="cls-8" d="M439.64,390.19l57.07,134.34a9.14,9.14,0,0,1-.24,7.68q-2.19,1.8-4.5,3.47c-1,.73-2,1.44-3,2.13l-34.28,14.56a97.48,97.48,0,0,1-17.8,2.17h0a97.74,97.74,0,0,1-14.23-.62l-.49-.07-.16,0c-1.83-.22-3.66-.49-5.47-.82s-3.35-.65-5-1q-4.22-1-8.32-2.34a98,98,0,0,1-12-4.83L342.94,431.28a9.17,9.17,0,0,1,4.85-12l79.81-33.9A9.18,9.18,0,0,1,439.64,390.19Z"/><path class="cls-7" d="M362.31,413.07l59.82,140.8-.16,0q-2.75-.33-5.47-.82c-1.68-.3-3.35-.65-5-1q-4.22-1-8.32-2.34a96.38,96.38,0,0,1-12-4.83L342.94,431.28a9.17,9.17,0,0,1,4.85-12Z"/><polygon class="cls-2" points="659.05 416.1 666.41 407.06 657.85 399.15 662.35 388.4 651.9 383.25 653.18 371.67 641.7 369.65 639.68 358.18 628.11 359.47 622.93 349.03 612.19 353.55 604.28 345 595.23 352.35 585.24 346.36 578.64 355.96 567.36 353.04 563.74 364.12 552.1 364.49 551.73 376.14 540.66 379.77 543.59 391.04 534 397.66 540 407.65 532.65 416.69 541.21 424.6 536.71 435.34 547.16 440.5 545.88 452.08 557.35 454.1 559.37 465.57 570.95 464.28 576.13 474.72 586.87 470.2 594.78 478.75 603.82 471.4 613.82 477.39 620.41 467.79 631.69 470.7 635.31 459.63 646.96 459.26 647.33 447.61 658.4 443.98 655.47 432.71 665.05 426.09 659.05 416.1"/><circle class="cls-3" cx="599.53" cy="411.87" r="51.52"/><circle class="cls-2" cx="599.53" cy="411.87" r="39.08"/><rect class="cls-2" x="504.75" y="448.1" width="115.29" height="115.29" transform="translate(-109.92 852.26) rotate(-69.23)"/><rect class="cls-3" x="463.26" y="476.73" width="115.29" height="26.56" transform="translate(-121.98 803.31) rotate(-69.23)"/><path class="cls-7" d="M640.31,480.39a6.3,6.3,0,0,1-5.9,4.07,6.21,6.21,0,0,1-2.19-.39l-88.81-33.69h0l-18.85-7.15a6.31,6.31,0,1,1,4.47-11.8l18.87,7.16,18.86,7.15,69.9,26.52A6.29,6.29,0,0,1,640.31,480.39Z"/><path class="cls-8" d="M640.31,480.39a6.3,6.3,0,0,1-5.9,4.07,6.21,6.21,0,0,1-2.19-.39l-88.81-33.69h0a6.31,6.31,0,0,1,4.49-11.79l18.86,7.15,69.9,26.52A6.29,6.29,0,0,1,640.31,480.39Z"/><path class="cls-4" d="M652.76,480.17l-.81,9-1.82,20.11-12,132.42a180.39,180.39,0,0,1-276.28,0L348.05,489.16l-.81-9Z"/><path class="cls-21" d="M650.12,509.26l-12,132.42A180.64,180.64,0,0,1,417.38,686l-12.6-139.27A34.4,34.4,0,0,1,439,509.26Z"/><path class="cls-21" d="M666.11,493.87H333.89a7.13,7.13,0,0,1-7.12-7.13v-22a7.13,7.13,0,0,1,7.12-7.13H666.11a7.13,7.13,0,0,1,7.12,7.13v22A7.13,7.13,0,0,1,666.11,493.87Z"/><path class="cls-22" d="M495.54,653.5v31.09c-14.57,0-24-.08-30.11-1.83a14.28,14.28,0,0,1-8.34-6.51h0c-1.17-3.21-3-10.61-.19-16.17,1.86-3.68,6.63-3.79,8.07-6.57h30.57Z"/><path class="cls-22" d="M470,615.77l15.51,31-13.2-7.13s-2.44,4.41-7.31,13.84q-2.16,4.17-5,9.69c-2.82,5.56-4.1,9.84-2.94,13.06l-16.37-27.76a9.42,9.42,0,0,1-.29-9L447.19,626,435,618.91Z"/><path class="cls-22" d="M524.21,628.3l26.93-15.55c7.28,12.62,11.94,20.85,13.47,27a14.31,14.31,0,0,1-1.47,10.48h0c-2.21,2.62-7.69,7.91-13.91,8.25-4.12.23-6.6-3.85-9.73-3.7Z"/><path class="cls-22" d="M504.32,669.31l19.11-28.94.43,15s5-.1,15.64-.59c3.13-.15,6.75-.33,10.87-.56,6.22-.34,10.56-1.37,12.77-4l-15.86,28.06a9.39,9.39,0,0,1-7.65,4.76l-15,.85-.05,14.15Z"/><path class="cls-22" d="M487.34,616.66l-26.93-15.55c7.29-12.62,12.08-20.76,16.64-25.16a14.29,14.29,0,0,1,9.81-4h0c3.37.6,10.69,2.7,14.1,7.92,2.25,3.45,0,7.64,1.66,10.28Z"/><path class="cls-22" d="M532.8,613.37l-34.62-2.07L511,603.42s-2.59-4.31-8.33-13.24q-2.53-4-5.91-9.14c-3.41-5.22-6.47-8.46-9.84-9.07l32.22-.29a9.4,9.4,0,0,1,7.95,4.24l8.26,12.59,12.28-7Z"/><text class="cls-23" transform="translate(389.74 549.19)">M<tspan class="cls-24" x="57.83" y="0">E</tspan><tspan class="cls-25" x="98.4" y="0">T</tspan><tspan x="134.56" y="0">AL</tspan></text><path class="cls-1" d="M284.34,50.79H95.94a15.86,15.86,0,0,0-15,10.85l-44,131.88V257a15.86,15.86,0,0,0,15.86,15.86H300.2V66.65A15.86,15.86,0,0,0,284.34,50.79Z"/><path class="cls-21" d="M399.34,124.19a15.87,15.87,0,0,0-14.72-10H300.2V272.82h111A15.86,15.86,0,0,0,427.07,257V193.52Z"/><path class="cls-3" d="M408,146l19,47.57h-79.3V146Z"/><path class="cls-3" d="M363.63,241.1a31.72,31.72,0,1,1-31.72,31.72A31.72,31.72,0,0,1,363.63,241.1Z"/><path class="cls-3" d="M168.56,241.1a31.72,31.72,0,1,1-31.72,31.72A31.72,31.72,0,0,1,168.56,241.1Z"/><path class="cls-3" d="M105.12,241.1a31.72,31.72,0,1,1-31.71,31.72A31.72,31.72,0,0,1,105.12,241.1Z"/><path d="M371.56,272.82a7.93,7.93,0,1,1-7.93-7.93A7.93,7.93,0,0,1,371.56,272.82Z"/><path d="M176.49,272.82a7.93,7.93,0,1,1-7.93-7.93A7.93,7.93,0,0,1,176.49,272.82Z"/><path d="M113.05,272.82a7.93,7.93,0,1,1-7.93-7.93A7.93,7.93,0,0,1,113.05,272.82Z"/><path d="M411.21,280.75A23.81,23.81,0,0,0,435,257V193.52a8.54,8.54,0,0,0-.63-3.09L406.7,121.25a23.67,23.67,0,0,0-22.08-15h-76.5V66.65a23.81,23.81,0,0,0-23.78-23.79H271.65V34.93a7.93,7.93,0,1,0-15.86,0v7.93H224.07V34.93a7.93,7.93,0,0,0-15.86,0v7.93H176.49V34.93a7.93,7.93,0,0,0-15.86,0v7.93H128.91V34.93a7.93,7.93,0,1,0-15.86,0v7.93H95.94A23.76,23.76,0,0,0,73.37,59.13L29.41,191a7.84,7.84,0,0,0-.41,2.5V257a23.81,23.81,0,0,0,23.79,23.79H66.28a39.4,39.4,0,0,0,7.15,15.86H36.93a7.93,7.93,0,1,0,0,15.86H196.32a7.93,7.93,0,0,0,3.35-15.11,39.53,39.53,0,0,0,7.74-16.61H324.78a39.42,39.42,0,0,0,7.16,15.86H267.68a7.93,7.93,0,0,0,0,15.86H427.07a7.93,7.93,0,0,0,0-15.86H395.33a39.4,39.4,0,0,0,7.15-15.86ZM105.12,296.61a23.79,23.79,0,1,1,23.79-23.79A23.81,23.81,0,0,1,105.12,296.61Zm63.44,0a23.79,23.79,0,1,1,23.79-23.79A23.81,23.81,0,0,1,168.56,296.61Zm123.71-31.72H207.41a39.63,39.63,0,0,0-70.57-15.83,39.63,39.63,0,0,0-70.56,15.83H52.79A7.94,7.94,0,0,1,44.86,257V194.81L88.42,64.14a7.91,7.91,0,0,1,7.52-5.42h188.4a7.94,7.94,0,0,1,7.93,7.93Zm110.4-111,12.69,31.71H355.7V153.88Zm-39,142.73a23.79,23.79,0,1,1,23.79-23.79A23.81,23.81,0,0,1,363.63,296.61Zm0-63.44a39.72,39.72,0,0,0-38.85,31.72H308.12V122.16h76.5a7.89,7.89,0,0,1,7.36,5L396.33,138H347.77a7.93,7.93,0,0,0-7.93,7.93v47.57a7.93,7.93,0,0,0,7.93,7.93h71.37v15.86H403.28a7.93,7.93,0,1,0,0,15.86h15.86V257a7.94,7.94,0,0,1-7.93,7.93h-8.73A39.71,39.71,0,0,0,363.63,233.17Z"/><path d="M133.73,209.38h5.83a7.93,7.93,0,1,0,0-15.86h-5.83A7.92,7.92,0,0,1,127,181.39l15.68-25.08,1.09,4.05a7.93,7.93,0,1,0,15.31-4.11l-5.8-21.66c0-.07,0-.14-.07-.21a8,8,0,0,0-9.64-5.4l-21.67,5.81A7.93,7.93,0,0,0,126,150.11l2.21-.6L113.56,173A23.78,23.78,0,0,0,133.73,209.38Z"/><path d="M241.83,181.39a7.92,7.92,0,0,1-6.72,12.13H203.57l2.32-2.32A7.93,7.93,0,0,0,194.67,180l-15.85,15.86-.08.09a7.93,7.93,0,0,0,0,11l.08.08,15.85,15.86a7.93,7.93,0,0,0,11.22-11.22l-2.33-2.32h31.55A23.79,23.79,0,0,0,255.28,173l-2.37-3.77a7.93,7.93,0,1,0-13.44,8.41Z"/><path d="M164.41,106.59a7.94,7.94,0,0,0,10.93-2.52l2.36-3.77a7.93,7.93,0,0,1,13.45,0l14.67,23.47-2.22-.59a7.93,7.93,0,1,0-4.1,15.32l21.66,5.8h.05a7.93,7.93,0,0,0,9.66-5.62L236.68,117a7.93,7.93,0,0,0-15.32-4.1l-1.09,4L204.59,91.89a23.79,23.79,0,0,0-40.34,0l-2.36,3.77A7.94,7.94,0,0,0,164.41,106.59Z"/><circle class="cls-16" cx="785.5" cy="205.5" r="188.5"/><path class="cls-26" d="M712.45,225h55.36a6.92,6.92,0,0,0,6.92-6.92v-92.7a51.88,51.88,0,0,0-15.2-36.7l-5-5a13.8,13.8,0,0,1-4.06-9.78V17.37H729.75V73.93a13.8,13.8,0,0,1-4.06,9.78l-5,5a51.89,51.89,0,0,0-15.2,36.7v92.7A6.92,6.92,0,0,0,712.45,225Z"/><path class="cls-27" d="M761.63,218.4V130a49.52,49.52,0,0,0-14.5-35l-4.74-4.74a13.16,13.16,0,0,1-3.86-9.33V27h-9.9V80.93a13.17,13.17,0,0,1-3.87,9.33L720,95a49.53,49.53,0,0,0-14.49,35v88.4a6.59,6.59,0,0,0,6.6,6.6H755A6.6,6.6,0,0,0,761.63,218.4Z"/><path class="cls-28" d="M733.21,128.11h27.68v76.13H733.21Z"/><path class="cls-29" d="M733.21,128.11h17.3v76.13h-17.3Z"/><path class="cls-26" d="M670.92,225h55.37a6.92,6.92,0,0,0,6.92-6.92v-92.7A51.92,51.92,0,0,0,718,88.68l-5-5a13.79,13.79,0,0,1-4-9.78V17.37H688.22V73.93a13.79,13.79,0,0,1-4.05,9.78l-5,5a51.93,51.93,0,0,0-15.2,36.7v92.7A6.92,6.92,0,0,0,670.92,225Z"/><path class="cls-27" d="M722.83,218.08v-92.7a51.92,51.92,0,0,0-15.2-36.7l-5-5a13.8,13.8,0,0,1-4.06-9.78V17.37H688.22V73.93a13.79,13.79,0,0,1-4.05,9.78l-5,5a51.93,51.93,0,0,0-15.2,36.7v92.7a6.92,6.92,0,0,0,6.92,6.92h45A6.92,6.92,0,0,0,722.83,218.08Z"/><path class="cls-28" d="M677.84,128.11h41.53v76.13H677.84Z"/><path class="cls-29" d="M677.84,128.11H709v76.13H677.84Z"/><path class="cls-30" d="M688.22,17.38H709V52H688.22Z"/><path class="cls-31" d="M688.22,17.38H698.6V52H688.22Z"/><path class="cls-30" d="M729.75,17.38h20.76V52H729.75Z"/><path class="cls-31" d="M729.75,17.38h10.38V52H729.75Z"/><path class="cls-26" d="M802.45,226h55.36a6.92,6.92,0,0,0,6.92-6.92v-92.7a51.88,51.88,0,0,0-15.2-36.7l-5-5a13.8,13.8,0,0,1-4.06-9.78V18.37H819.75V74.93a13.8,13.8,0,0,1-4.06,9.78l-5,5a51.89,51.89,0,0,0-15.2,36.7v92.7A6.92,6.92,0,0,0,802.45,226Z"/><path class="cls-27" d="M851.63,219.4V131a49.52,49.52,0,0,0-14.5-35l-4.74-4.74a13.16,13.16,0,0,1-3.86-9.33V28h-9.9V81.93a13.17,13.17,0,0,1-3.87,9.33L810,96a49.53,49.53,0,0,0-14.49,35v88.4a6.59,6.59,0,0,0,6.6,6.6H845A6.6,6.6,0,0,0,851.63,219.4Z"/><path class="cls-26" d="M760.92,226h55.37a6.92,6.92,0,0,0,6.92-6.92v-92.7A51.92,51.92,0,0,0,808,89.68l-5-5a13.79,13.79,0,0,1-4-9.78V18.37H778.22V74.93a13.79,13.79,0,0,1-4.05,9.78l-5,5a51.93,51.93,0,0,0-15.2,36.7v92.7A6.92,6.92,0,0,0,760.92,226Z"/><path class="cls-27" d="M812.83,219.08v-92.7a51.92,51.92,0,0,0-15.2-36.7l-5-5a13.8,13.8,0,0,1-4.06-9.78V18.37H778.22V74.93a13.79,13.79,0,0,1-4.05,9.78l-5,5a51.93,51.93,0,0,0-15.2,36.7v92.7a6.92,6.92,0,0,0,6.92,6.92h45A6.92,6.92,0,0,0,812.83,219.08Z"/><path class="cls-30" d="M778.22,18.38H799V53H778.22Z"/><path class="cls-31" d="M778.22,18.38H788.6V53H778.22Z"/><path class="cls-30" d="M819.75,18.38h20.76V53H819.75Z"/><path class="cls-31" d="M819.75,18.38h10.38V53H819.75Z"/><path class="cls-26" d="M827.92,225h55.37a6.92,6.92,0,0,0,6.92-6.92v-92.7A51.92,51.92,0,0,0,875,88.68l-5-5a13.79,13.79,0,0,1-4-9.78V17.37H845.22V73.93a13.79,13.79,0,0,1-4.05,9.78l-5,5a51.93,51.93,0,0,0-15.2,36.7v92.7A6.92,6.92,0,0,0,827.92,225Z"/><path class="cls-27" d="M927,218.4V130c0-13.12-6.13-25.72-17.06-35l-5.57-4.74a12.28,12.28,0,0,1-4.55-9.33V27H888.18V80.93a12.28,12.28,0,0,1-4.55,9.33L878.06,95C867.13,104.29,861,116.88,861,130v88.4c0,3.65,3.47,6.6,7.76,6.6h50.48C923.53,225,927,222.05,927,218.4Z"/><path class="cls-30" d="M845.22,17.38H866V52H845.22Z"/><path class="cls-31" d="M845.22,17.38H855.6V52H845.22Z"/><path class="cls-32" d="M945,158.16l-.85,9.38-1.9,21L929.76,326.83a188.39,188.39,0,0,1-288.52,0L626.82,167.55l-.85-9.39Z"/><path class="cls-32" d="M942.28,188.54,929.76,326.83a188.62,188.62,0,0,1-230.54,46.31L686.07,227.7a35.91,35.91,0,0,1,35.77-39.16Z"/><path class="cls-32" d="M959,172.46H612a7.44,7.44,0,0,1-7.44-7.44v-23a7.44,7.44,0,0,1,7.44-7.44H959a7.44,7.44,0,0,1,7.44,7.44v23A7.44,7.44,0,0,1,959,172.46Z"/><path class="cls-6" d="M780.85,339.17v32.47c-15.22,0-25.09-.08-31.45-1.91a14.92,14.92,0,0,1-8.71-6.8h0c-1.21-3.36-3.13-11.08-.19-16.88,1.94-3.85,6.93-4,8.43-6.87Z"/><path class="cls-6" d="M754.14,299.77l16.2,32.4-13.79-7.45s-2.54,4.6-7.63,14.45q-2.25,4.36-5.18,10.13c-2.94,5.8-4.27,10.27-3.06,13.63l-17.09-29a9.8,9.8,0,0,1-.31-9.41l7.07-14-12.77-7.45Z"/><path class="cls-6" d="M810.78,312.86l28.12-16.24c7.61,13.18,12.48,21.77,14.07,28.19a15,15,0,0,1-1.53,10.95h0c-2.3,2.73-8,8.26-14.53,8.62-4.3.23-6.89-4-10.16-3.87Z"/><path class="cls-6" d="M790,355.69l20-30.23.45,15.66s5.25-.1,16.33-.61c3.27-.16,7-.35,11.35-.59,6.5-.35,11-1.43,13.34-4.16l-16.56,29.3a9.8,9.8,0,0,1-8,5l-15.69.89-.07,14.78Z"/><path class="cls-6" d="M772.28,300.7l-28.12-16.24c7.61-13.18,12.61-21.68,17.38-26.28A14.9,14.9,0,0,1,771.78,254h0c3.51.62,11.17,2.82,14.72,8.27,2.36,3.61,0,8,1.73,10.74Z"/><path class="cls-6" d="M819.76,297.27,783.6,295.1l13.34-8.22s-2.71-4.51-8.7-13.84c-1.77-2.75-3.82-5.93-6.18-9.54-3.56-5.45-6.76-8.84-10.27-9.47l33.65-.31a9.81,9.81,0,0,1,8.3,4.44l8.62,13.14L835.19,264Z"/><text class="cls-19" transform="translate(698.31 226.17)">VID<tspan class="cls-33" x="99.38" y="0">R</tspan><tspan x="138.59" y="0">O</tspan></text></svg>