<svg xmlns="http://www.w3.org/2000/svg" id="Camada_1" data-name="Camada 1" viewBox="0 0 1920 1080"><defs><style>.cls-1,.cls-3{opacity:.32}.cls-2,.cls-3{fill:#d3d3d3}</style></defs><g class="cls-1"><path d="M116.62 78.66a16.43 16.43 0 00-16.05-16.76 18.6 18.6 0 00-3.74.3 19.24 19.24 0 001.59-3.4c3-8.62-.55-17.57-9-20.54S72.19 40 69.18 48.6a19.37 19.37 0 00-.86 3.64 20.41 20.41 0 00-2.74-2.56 16.44 16.44 0 00-23 3.14c-5.55 7.3-4.2 18.07 3 23.51a19.07 19.07 0 003.2 2 20.13 20.13 0 00-3.28 1.81 16.45 16.45 0 00-4.13 22.85 15.52 15.52 0 0022.12 3.87 18.84 18.84 0 002.85-2.44 19 19 0 00.71 3.68c2.62 8.71 10.77 13.23 19.41 10.62a16.42 16.42 0 0011-20.44A19.48 19.48 0 0096 94.77a19.59 19.59 0 003.71.46c8.95.2 16.71-7.39 16.91-16.57zm-28.8-36c5.82 2 8.41 8.15 6.17 14.57a20.51 20.51 0 01-6.34 8.46 2.41 2.41 0 00-.75 1.08L83.2 70a11.75 11.75 0 00-2-1.45l3.17-9.08A2.33 2.33 0 1080 57.93L76.85 67a11.28 11.28 0 00-2.46-.06l-1.1-5.12a2.4 2.4 0 000-1.1 20.43 20.43 0 01.3-10.58c2.22-6.31 8.33-9.51 14.23-7.45zM48.37 72.6c-5-3.84-6-11.75-2.06-16.95a11.74 11.74 0 0116.43-2.23 19.5 19.5 0 015.5 7.26l1.63 7.55a11.38 11.38 0 00-2.31 1.58L59.9 64a2.34 2.34 0 10-2.84 3.73l7.65 5.82a11 11 0 00-.87 2.53h-6.21a20.12 20.12 0 01-9.26-3.48zM67.2 94.65a20.46 20.46 0 01-6.43 8.35c-5.33 3.7-11.92 2.6-15.59-2.7a11.73 11.73 0 013-16.31c4.34-3 10.07-3.07 10.54-3.19h5.09a11.66 11.66 0 00.75 2.48l-7.96 5.45a2.35 2.35 0 102.68 3.85l7.9-5.48a11.88 11.88 0 002.1 1.6l-2.08 6zm5.8-9.39a7 7 0 119-4.32 7 7 0 01-9 4.32zm12.1 28.92c-6.38 1.92-11.76-1.47-13.57-7.48a20.42 20.42 0 01.11-10.52l2.07-6a12 12 0 002.67.06l2.77 9.21a2.34 2.34 0 104.49-1.35l-2.77-9.21a11.68 11.68 0 002.11-1.46l3.61 2.93c.38.55 4.81 4 6.35 9.17a11.72 11.72 0 01-7.88 14.65zm5.46-26.59l-4.71-3.82a11.54 11.54 0 00.9-2.55l9.61.2a2.34 2.34 0 10.1-4.68l-9.61-.21a12.11 12.11 0 00-.85-2.72l5.86-5a19.67 19.67 0 018.64-2.18 11.74 11.74 0 0111.47 12c-.14 6.52-5.82 12.12-12.16 12a20 20 0 01-9.29-3.04z" class="cls-2"/></g><g class="cls-1"><path d="M1325.23 1001.13a16.43 16.43 0 00-20.68-10.54 18.66 18.66 0 00-3.42 1.52 19.51 19.51 0 00.38-3.73c0-9.14-6.32-16.41-15.32-16.41s-15.65 7.29-15.65 16.41a19.51 19.51 0 00.38 3.73 19.27 19.27 0 00-3.42-1.52 16.45 16.45 0 00-20.69 10.54c-2.83 8.73 2 18.45 10.54 21.23a19.76 19.76 0 003.66.79 20.19 20.19 0 00-2.5 2.79 16.44 16.44 0 003.64 22.93 15.52 15.52 0 0022.16-3.64 19.41 19.41 0 001.88-3.23 19.41 19.41 0 001.88 3.23c5.34 7.36 14.53 8.94 21.83 3.64a16.44 16.44 0 003.63-22.93 19 19 0 00-2.5-2.79 19.41 19.41 0 003.66-.79c8.55-2.78 13.38-12.5 10.54-21.23zm-39-24.47c6.16 0 10.63 4.93 10.63 11.72a20.52 20.52 0 01-3.2 10.09 2.23 2.23 0 00-.35 1.26l-2.44 4.23a12.14 12.14 0 00-2.33-.73v-9.61a2.32 2.32 0 00-2.31-2.35 2.35 2.35 0 00-2.35 2.35v9.61a11.62 11.62 0 00-2.34.75l-2.73-4.46a2.33 2.33 0 00-.34-1 20.52 20.52 0 01-3.2-10.09c-.04-6.73 4.67-11.77 10.92-11.77zm-27.39 41.24c-6-2-9.54-9.12-7.53-15.32a11.75 11.75 0 0114.78-7.53 19.68 19.68 0 017.58 5.05l4 6.59a12.27 12.27 0 00-1.67 2.25l-9.15-3a2.34 2.34 0 00-1.45 4.46l9.15 3a11 11 0 000 2.69l-5.86 2a20 20 0 01-9.89-.19zm25 14.61a20.36 20.36 0 01-3.33 10 10.84 10.84 0 01-15.61 2.59 11.73 11.73 0 01-2.59-16.37c3.1-4.28 8.5-6.22 8.9-6.49l4.81-1.67a12 12 0 001.52 2.09l-5.65 7.79a2.34 2.34 0 103.79 2.75l5.65-7.78a12.09 12.09 0 002.51.82v6.3zm2.35-10.75a7 7 0 117-7 7.05 7.05 0 01-7 7zm21 23.31c-5.38 3.92-11.59 2.49-15.28-2.59a20.47 20.47 0 01-3.36-10v-6.3a12 12 0 002.54-.82l5.65 7.78a2.35 2.35 0 003.8-2.75l-5.66-7.79a11.85 11.85 0 001.52-2.07l4.37 1.57c.54.4 5.87 2.23 9 6.57a11.73 11.73 0 01-2.63 16.4zm-3.61-26.91l-5.7-2a11.17 11.17 0 000-2.71l9.15-3a2.34 2.34 0 10-1.45-4.46l-9.15 3a11.47 11.47 0 00-1.7-2.28l3.88-6.71a19.73 19.73 0 017.44-4.9 11.74 11.74 0 0114.77 7.53c2 6.2-1.5 13.36-7.53 15.32a20 20 0 01-9.76.21z" class="cls-2"/></g><g class="cls-1"><path d="M1013 773.9a21.35 21.35 0 00-26.87-13.7 25.12 25.12 0 00-4.45 2 25.72 25.72 0 00.49-4.84c0-11.88-8.2-21.33-19.91-21.33s-20.33 9.47-20.33 21.33a25.72 25.72 0 00.49 4.84 25.12 25.12 0 00-4.45-2 21.35 21.35 0 00-26.87 13.7c-3.69 11.34 2.58 24 13.69 27.58a25.07 25.07 0 004.76 1 25.43 25.43 0 00-3.25 3.63 21.36 21.36 0 004.7 29.82c9.51 6.91 21.86 4.82 28.8-4.72a25.64 25.64 0 002.44-4.21 26 26 0 002.45 4.21c6.94 9.56 18.88 11.61 28.37 4.72a21.36 21.36 0 004.72-29.79 25.43 25.43 0 00-3.25-3.63 25.07 25.07 0 004.76-1c11.09-3.64 17.36-16.27 13.71-27.61zm-50.74-31.81c8 0 13.82 6.41 13.82 15.24a26.61 26.61 0 01-4.16 13.1 3 3 0 00-.45 1.65l-3.18 5.49a15.36 15.36 0 00-3-.94v-12.5a3 3 0 00-3-3 3 3 0 00-3 3v12.5a14.46 14.46 0 00-3 1l-3.54-5.8a3 3 0 00-.45-1.37 26.61 26.61 0 01-4.16-13.1c-.14-8.72 5.97-15.27 14.08-15.27zm-35.58 53.6c-7.83-2.55-12.41-11.85-9.79-19.91a15.25 15.25 0 0119.2-9.78 25.57 25.57 0 019.86 6.55l5.23 8.57a15.18 15.18 0 00-2.16 2.93l-11.89-3.87a3.05 3.05 0 00-1.89 5.8l11.89 3.86a14.54 14.54 0 000 3.49l-7.65 2.67a26.1 26.1 0 01-12.84-.31zm32.54 19a26.63 26.63 0 01-4.33 13c-5 6.82-13.51 8.29-20.29 3.37a15.27 15.27 0 01-3.37-21.28c4-5.56 11-8.08 11.58-8.43l6.24-2.17a14.72 14.72 0 002 2.71L943.64 812a3 3 0 104.93 3.58l7.35-10.11a15 15 0 003.26 1.06v8.19zm3-14a9.14 9.14 0 119.14-9.14 9.15 9.15 0 01-9.14 9.15zM989.46 831c-7 5.08-15.06 3.23-19.86-3.37a26.55 26.55 0 01-4.37-13v-8.2a15.32 15.32 0 003.3-1.06l7.35 10.11a3 3 0 104.93-3.58l-7.35-10.11a15.44 15.44 0 002-2.7l5.68 2.05c.7.52 7.62 2.89 11.72 8.53a15.27 15.27 0 01-3.4 21.33zm-4.69-35l-7.42-2.67a14.8 14.8 0 000-3.52l11.9-3.81a3.05 3.05 0 00-1.89-5.8l-11.89 3.87a15 15 0 00-2.21-3l5-8.71A25.37 25.37 0 01988 766a15.25 15.25 0 0119.2 9.78c2.62 8.06-2 17.36-9.79 19.91a26 26 0 01-12.64.31z" class="cls-2"/></g><g class="cls-1"><path d="M1041.23 132.13a16.43 16.43 0 00-20.68-10.54 18.66 18.66 0 00-3.42 1.52 19.51 19.51 0 00.38-3.73c0-9.14-6.32-16.41-15.32-16.41s-15.65 7.29-15.65 16.41a19.51 19.51 0 00.38 3.73 19.27 19.27 0 00-3.42-1.52 16.45 16.45 0 00-20.69 10.54c-2.83 8.73 2 18.45 10.54 21.23a19.76 19.76 0 003.66.79 20.19 20.19 0 00-2.5 2.79 16.44 16.44 0 003.64 22.93 15.52 15.52 0 0022.16-3.64 19.41 19.41 0 001.88-3.23 19.41 19.41 0 001.88 3.23c5.34 7.36 14.53 8.94 21.83 3.64a16.44 16.44 0 003.63-22.93 19 19 0 00-2.5-2.79 19.41 19.41 0 003.66-.79c8.55-2.78 13.38-12.5 10.54-21.23zm-39-24.47c6.16 0 10.63 4.93 10.63 11.72a20.52 20.52 0 01-3.2 10.09 2.23 2.23 0 00-.35 1.26l-2.44 4.23a12.14 12.14 0 00-2.33-.73v-9.61a2.32 2.32 0 00-2.31-2.35 2.35 2.35 0 00-2.35 2.35v9.61a11.62 11.62 0 00-2.34.75l-2.73-4.46a2.33 2.33 0 00-.34-1.05 20.52 20.52 0 01-3.2-10.09c-.04-6.68 4.67-11.72 10.92-11.72zM974.8 148.9c-6-2-9.54-9.12-7.53-15.32a11.75 11.75 0 0114.78-7.53 19.68 19.68 0 017.58 5l4 6.59a12.27 12.27 0 00-1.67 2.25l-9.15-3a2.34 2.34 0 00-1.45 4.46l9.15 3a11 11 0 000 2.69l-5.86 2a20 20 0 01-9.85-.14zm25 14.61a20.36 20.36 0 01-3.33 10 10.84 10.84 0 01-15.61 2.59 11.73 11.73 0 01-2.59-16.37c3.1-4.28 8.5-6.22 8.9-6.49l4.81-1.67a12 12 0 001.52 2.09l-5.65 7.79a2.34 2.34 0 003.79 2.75l5.65-7.78a12.09 12.09 0 002.51.82v6.3zm2.35-10.75a7 7 0 117-7 7.05 7.05 0 01-6.96 7zm20.95 23.31c-5.38 3.92-11.59 2.49-15.28-2.59a20.47 20.47 0 01-3.36-10v-6.3a12 12 0 002.54-.82l5.65 7.78a2.35 2.35 0 003.8-2.75l-5.66-7.79a11.85 11.85 0 001.52-2.07l4.37 1.57c.54.4 5.87 2.23 9 6.57a11.73 11.73 0 01-2.54 16.4zm-3.61-26.91l-5.7-2a11.17 11.17 0 000-2.71l9.15-3a2.34 2.34 0 10-1.45-4.46l-9.15 3a11.47 11.47 0 00-1.7-2.28l3.88-6.71a19.73 19.73 0 017.44-4.9 11.74 11.74 0 0114.77 7.53c2 6.2-1.5 13.36-7.53 15.32a20 20 0 01-9.67.21z" class="cls-2"/></g><g class="cls-1"><path d="M1422.23 48.13a16.43 16.43 0 00-20.68-10.54 18.66 18.66 0 00-3.42 1.52 19.51 19.51 0 00.38-3.73c0-9.14-6.32-16.41-15.32-16.41s-15.65 7.29-15.65 16.41a19.51 19.51 0 00.38 3.73 19.27 19.27 0 00-3.42-1.52 16.45 16.45 0 00-20.69 10.54c-2.83 8.73 2 18.45 10.54 21.23a19.76 19.76 0 003.66.79 20.19 20.19 0 00-2.5 2.79 16.44 16.44 0 003.64 22.93 15.52 15.52 0 0022.16-3.64 19.41 19.41 0 001.88-3.23 19.41 19.41 0 001.88 3.23c5.34 7.36 14.53 8.94 21.83 3.64a16.44 16.44 0 003.63-22.93 19 19 0 00-2.5-2.79 19.41 19.41 0 003.66-.79c8.55-2.78 13.38-12.5 10.54-21.23zm-39-24.47c6.16 0 10.63 4.93 10.63 11.72a20.52 20.52 0 01-3.2 10.09 2.23 2.23 0 00-.35 1.26l-2.48 4.27a12.14 12.14 0 00-2.33-.73v-9.65a2.32 2.32 0 00-2.31-2.35 2.35 2.35 0 00-2.35 2.35v9.61a11.62 11.62 0 00-2.34.75l-2.73-4.46a2.33 2.33 0 00-.34-1.05 20.52 20.52 0 01-3.2-10.09c0-6.68 4.71-11.72 10.96-11.72zM1355.8 64.9c-6-2-9.54-9.12-7.53-15.32a11.75 11.75 0 0114.78-7.53 19.68 19.68 0 017.58 5.05l4 6.59a12.27 12.27 0 00-1.67 2.25l-9.15-3a2.34 2.34 0 00-1.45 4.46l9.15 3a11 11 0 000 2.69l-5.86 2a20 20 0 01-9.85-.19zm25 14.61a20.36 20.36 0 01-3.33 10 10.84 10.84 0 01-15.61 2.59 11.73 11.73 0 01-2.59-16.37c3.1-4.28 8.5-6.22 8.9-6.49l4.81-1.67a12 12 0 001.52 2.09l-5.65 7.79a2.34 2.34 0 003.79 2.75l5.65-7.78a12.09 12.09 0 002.51.82v6.3zm2.35-10.75a7 7 0 117-7 7.05 7.05 0 01-6.96 7zm21 23.31c-5.38 3.92-11.59 2.49-15.28-2.59a20.47 20.47 0 01-3.36-10v-6.3a12 12 0 002.54-.82l5.65 7.78a2.35 2.35 0 003.8-2.75l-5.66-7.79a11.85 11.85 0 001.52-2.07l4.37 1.57c.54.4 5.87 2.23 9 6.57a11.73 11.73 0 01-2.59 16.4zm-3.61-26.91l-5.7-2a11.17 11.17 0 000-2.71l9.15-3a2.34 2.34 0 10-1.45-4.46l-9.15 3a11.47 11.47 0 00-1.7-2.28l3.88-6.71a19.73 19.73 0 017.44-4.9 11.74 11.74 0 0114.77 7.53c2 6.2-1.5 13.36-7.53 15.32a20 20 0 01-9.72.21z" class="cls-2"/></g><g class="cls-1"><path d="M1544.23 691.13a16.43 16.43 0 00-20.68-10.54 18.66 18.66 0 00-3.42 1.52 19.51 19.51 0 00.38-3.73c0-9.14-6.32-16.41-15.32-16.41s-15.65 7.29-15.65 16.41a19.51 19.51 0 00.38 3.73 19.27 19.27 0 00-3.42-1.52 16.45 16.45 0 00-20.69 10.54c-2.83 8.73 2 18.45 10.54 21.23a19.76 19.76 0 003.66.79 20.19 20.19 0 00-2.5 2.79 16.44 16.44 0 003.64 22.93 15.52 15.52 0 0022.16-3.64 19.41 19.41 0 001.88-3.23 19.41 19.41 0 001.88 3.23c5.34 7.36 14.53 8.94 21.83 3.64a16.44 16.44 0 003.63-22.93 19 19 0 00-2.5-2.79 19.41 19.41 0 003.66-.79c8.55-2.78 13.38-12.5 10.54-21.23zm-39-24.47c6.16 0 10.63 4.93 10.63 11.72a20.52 20.52 0 01-3.2 10.09 2.23 2.23 0 00-.35 1.26l-2.44 4.23a12.14 12.14 0 00-2.33-.73v-9.61a2.32 2.32 0 00-2.31-2.35 2.35 2.35 0 00-2.35 2.35v9.61a11.62 11.62 0 00-2.34.75l-2.73-4.46a2.33 2.33 0 00-.34-1 20.52 20.52 0 01-3.2-10.09c-.04-6.73 4.67-11.77 10.92-11.77zm-27.43 41.24c-6-2-9.54-9.12-7.53-15.32a11.75 11.75 0 0114.78-7.53 19.68 19.68 0 017.58 5.05l4 6.59a12.27 12.27 0 00-1.67 2.25l-9.15-3a2.34 2.34 0 00-1.45 4.46l9.15 3a11 11 0 000 2.69l-5.86 2a20 20 0 01-9.85-.19zm25 14.61a20.36 20.36 0 01-3.33 10 10.84 10.84 0 01-15.61 2.59 11.73 11.73 0 01-2.59-16.37c3.1-4.28 8.5-6.22 8.9-6.49l4.81-1.67a12 12 0 001.52 2.09l-5.65 7.79a2.34 2.34 0 103.79 2.75l5.65-7.78a12.09 12.09 0 002.51.82v6.3zm2.35-10.75a7 7 0 117-7 7.05 7.05 0 01-6.96 7zm21 23.31c-5.38 3.92-11.59 2.49-15.28-2.59a20.47 20.47 0 01-3.36-10v-6.3a12 12 0 002.54-.82l5.65 7.78a2.35 2.35 0 003.8-2.75l-5.66-7.79a11.85 11.85 0 001.52-2.07l4.37 1.57c.54.4 5.87 2.23 9 6.57a11.73 11.73 0 01-2.59 16.4zm-3.61-26.91l-5.7-2a11.17 11.17 0 000-2.71l9.15-3a2.34 2.34 0 10-1.45-4.46l-9.15 3a11.47 11.47 0 00-1.7-2.28l3.88-6.71a19.73 19.73 0 017.44-4.9 11.74 11.74 0 0114.77 7.53c2 6.2-1.5 13.36-7.53 15.32a20 20 0 01-9.72.21z" class="cls-2"/></g><g class="cls-1"><path d="M258.23 432.13a16.43 16.43 0 00-20.68-10.54 18.66 18.66 0 00-3.42 1.52 19.51 19.51 0 00.38-3.73c0-9.14-6.32-16.41-15.32-16.41s-15.65 7.29-15.65 16.41a19.51 19.51 0 00.38 3.73 19.27 19.27 0 00-3.42-1.52 16.45 16.45 0 00-20.69 10.54c-2.83 8.73 2 18.45 10.54 21.23a19.76 19.76 0 003.66.79 20.19 20.19 0 00-2.5 2.79 16.44 16.44 0 003.64 22.93 15.52 15.52 0 0022.16-3.64 19.41 19.41 0 001.88-3.23 19.41 19.41 0 001.88 3.23c5.34 7.36 14.53 8.94 21.83 3.64a16.44 16.44 0 003.63-22.93 19 19 0 00-2.5-2.79 19.41 19.41 0 003.66-.79c8.55-2.78 13.38-12.5 10.54-21.23zm-39-24.47c6.16 0 10.63 4.93 10.63 11.72a20.52 20.52 0 01-3.2 10.09 2.23 2.23 0 00-.35 1.26l-2.48 4.27a12.14 12.14 0 00-2.33-.73v-9.61a2.32 2.32 0 00-2.31-2.35 2.35 2.35 0 00-2.35 2.35v9.61a11.62 11.62 0 00-2.34.75l-2.73-4.46a2.33 2.33 0 00-.34-1 20.52 20.52 0 01-3.2-10.09c0-6.77 4.71-11.81 10.96-11.81zM191.8 448.9c-6-2-9.54-9.12-7.53-15.32a11.75 11.75 0 0114.78-7.53 19.68 19.68 0 017.58 5.05l4 6.59a12.27 12.27 0 00-1.67 2.25l-9.15-3a2.34 2.34 0 00-1.45 4.46l9.15 3a11 11 0 000 2.69l-5.86 2a20 20 0 01-9.85-.19zm25 14.61a20.36 20.36 0 01-3.33 10 10.84 10.84 0 01-15.61 2.59 11.73 11.73 0 01-2.59-16.37c3.1-4.28 8.5-6.22 8.9-6.49l4.81-1.67a12 12 0 001.52 2.09l-5.65 7.79a2.34 2.34 0 003.79 2.75l5.65-7.78a12.09 12.09 0 002.51.82v6.3zm2.35-10.75a7 7 0 117-7 7.05 7.05 0 01-6.96 7zm20.95 23.31c-5.38 3.92-11.59 2.49-15.28-2.59a20.47 20.47 0 01-3.36-10v-6.3a12 12 0 002.54-.82l5.65 7.78a2.35 2.35 0 003.8-2.75l-5.66-7.79a11.85 11.85 0 001.52-2.07l4.37 1.57c.54.4 5.87 2.23 9 6.57a11.73 11.73 0 01-2.54 16.4zm-3.61-26.91l-5.7-2.05a11.17 11.17 0 000-2.71l9.15-3a2.34 2.34 0 10-1.45-4.46l-9.15 3a11.47 11.47 0 00-1.7-2.28l3.88-6.71a19.73 19.73 0 017.44-4.9 11.74 11.74 0 0114.77 7.53c2 6.2-1.5 13.36-7.53 15.32a20 20 0 01-9.67.26z" class="cls-2"/></g><g class="cls-1"><path d="M370.23 827.13a16.43 16.43 0 00-20.68-10.54 18.66 18.66 0 00-3.42 1.52 19.51 19.51 0 00.38-3.73c0-9.14-6.32-16.41-15.32-16.41s-15.65 7.29-15.65 16.41a19.51 19.51 0 00.38 3.73 19.27 19.27 0 00-3.42-1.52 16.45 16.45 0 00-20.69 10.54c-2.83 8.73 2 18.45 10.54 21.23a19.76 19.76 0 003.66.79 20.19 20.19 0 00-2.5 2.79 16.44 16.44 0 003.64 22.93 15.52 15.52 0 0022.16-3.64 19.41 19.41 0 001.88-3.23 19.41 19.41 0 001.88 3.23c5.34 7.36 14.53 8.94 21.83 3.64a16.44 16.44 0 003.63-22.93 19 19 0 00-2.5-2.79 19.41 19.41 0 003.66-.79c8.55-2.78 13.38-12.5 10.54-21.23zm-39-24.47c6.16 0 10.63 4.93 10.63 11.72a20.52 20.52 0 01-3.2 10.09 2.23 2.23 0 00-.35 1.26l-2.48 4.27a12.14 12.14 0 00-2.33-.73v-9.61a2.32 2.32 0 00-2.31-2.35 2.35 2.35 0 00-2.35 2.35v9.61a11.62 11.62 0 00-2.34.75l-2.73-4.46a2.33 2.33 0 00-.34-1 20.52 20.52 0 01-3.2-10.09c0-6.77 4.71-11.81 10.96-11.81zM303.8 843.9c-6-2-9.54-9.12-7.53-15.32a11.75 11.75 0 0114.78-7.53 19.68 19.68 0 017.58 5.05l4 6.59a12.27 12.27 0 00-1.67 2.25l-9.15-3a2.34 2.34 0 00-1.45 4.46l9.15 3a11 11 0 000 2.69l-5.86 2a20 20 0 01-9.85-.19zm25 14.61a20.36 20.36 0 01-3.33 10 10.84 10.84 0 01-15.61 2.59 11.73 11.73 0 01-2.59-16.37c3.1-4.28 8.5-6.22 8.9-6.49l4.81-1.67a12 12 0 001.52 2.09l-5.65 7.79a2.34 2.34 0 103.79 2.75l5.65-7.78a12.09 12.09 0 002.51.82v6.3zm2.35-10.75a7 7 0 117-7 7.05 7.05 0 01-6.96 7zm20.95 23.31c-5.38 3.92-11.59 2.49-15.28-2.59a20.47 20.47 0 01-3.36-10v-6.3a12 12 0 002.54-.82l5.65 7.78a2.35 2.35 0 003.8-2.75l-5.66-7.79a11.85 11.85 0 001.52-2.07l4.37 1.57c.54.4 5.87 2.23 9 6.57a11.73 11.73 0 01-2.54 16.4zm-3.61-26.91l-5.7-2a11.17 11.17 0 000-2.71l9.15-3a2.34 2.34 0 10-1.45-4.46l-9.15 3a11.47 11.47 0 00-1.7-2.28l3.88-6.71a19.73 19.73 0 017.44-4.9 11.74 11.74 0 0114.77 7.53c2 6.2-1.5 13.36-7.53 15.32a20 20 0 01-9.67.21z" class="cls-2"/></g><path d="M685 1002.25A27.85 27.85 0 00641.85 979a86 86 0 00-4.62-14.52c-5.06-11.9-11.68-18.45-18.66-18.45s-13.61 6.53-18.66 18.38a85.39 85.39 0 00-4.42 13.59l-7-25.64a2.15 2.15 0 00-4.14 0l-19.28 70.71a2.12 2.12 0 00.36 1.87 2.16 2.16 0 001.7.84h17.15V1043a2.14 2.14 0 104.28 0v-17.14h17.14a2.16 2.16 0 001.71-.84 2.13 2.13 0 00.42-1.5 25.6 25.6 0 008.59 2.25V1043a2.14 2.14 0 104.28 0v-17.23a25.57 25.57 0 0014.63-6.14A27.87 27.87 0 00655 1030v13a2.15 2.15 0 104.29 0v-13a27.9 27.9 0 0025.71-27.75zm-82.09 19.29h-14.34v-3.4l3.79-3.79a2.14 2.14 0 00-3-3l-.76.76V998a2.14 2.14 0 00-4.28 0v9.83l-2.77-2.77a2.15 2.15 0 10-3 3l5.81 5.8V1021.55H570l16.48-60.43 7.26 26.62a91.5 91.5 0 00-.87 12.34 25.72 25.72 0 009.73 20.14zm17.8-3.4l7.95-7.95a2.14 2.14 0 10-3-3l-4.92 4.92v-8.94l5.81-5.8a2.15 2.15 0 00-3-3l-2.77 2.77v-5.54a2.14 2.14 0 10-4.28 0v16.25l-4.91-4.91a2.15 2.15 0 10-3 3l7.95 7.94v7.58a21.5 21.5 0 01-19.32-21.36 91.28 91.28 0 016.74-34c4.28-10 9.64-15.77 14.72-15.77s10.44 5.77 14.72 15.84a91.32 91.32 0 016.74 33.94 21.49 21.49 0 01-19.32 21.36zm38.58 7.58v-3.3l7.94-7.94a2.14 2.14 0 00-3-3l-4.91 4.91v-14.11a2.15 2.15 0 00-4.29 0v9.83l-4.91-4.92a2.14 2.14 0 00-3 3l7.94 7.95v7.57a23.56 23.56 0 01-16.62-9.21 25.62 25.62 0 005.94-16.44 94.81 94.81 0 00-1.53-16.51 23.57 23.57 0 1116.5 42.16zM253 691.25A27.85 27.85 0 00209.85 668a86 86 0 00-4.62-14.52c-5.06-11.9-11.68-18.45-18.66-18.45s-13.61 6.53-18.66 18.38a85.39 85.39 0 00-4.42 13.59l-7-25.64a2.15 2.15 0 00-4.14 0l-19.28 70.71a2.12 2.12 0 00.36 1.87 2.16 2.16 0 001.7.84h17.15V732a2.14 2.14 0 104.28 0v-17.18h17.14a2.16 2.16 0 001.71-.84 2.13 2.13 0 00.42-1.5 25.6 25.6 0 008.59 2.25V732a2.14 2.14 0 104.28 0v-17.27a25.57 25.57 0 0014.63-6.14A27.87 27.87 0 00223 719v13a2.15 2.15 0 104.29 0v-13A27.9 27.9 0 00253 691.25zm-82.09 19.29h-14.34v-3.4l3.79-3.79a2.14 2.14 0 10-3-3l-.76.76V687a2.14 2.14 0 10-4.28 0v9.83l-2.8-2.83a2.15 2.15 0 00-3 3l5.81 5.8V710.49H138l16.48-60.43 7.26 26.62a91.5 91.5 0 00-.87 12.34 25.72 25.72 0 009.73 20.14zm17.8-3.4l7.95-7.95a2.14 2.14 0 10-3-3l-4.92 4.92v-8.94l5.81-5.8a2.15 2.15 0 00-3-3l-2.77 2.77v-5.54a2.14 2.14 0 10-4.28 0v16.25l-4.91-4.91a2.15 2.15 0 00-3 3l8 7.94v7.58a21.5 21.5 0 01-19.32-21.36 91.28 91.28 0 016.74-34c4.28-10 9.64-15.77 14.72-15.77s10.44 5.77 14.72 15.84a91.32 91.32 0 016.55 33.9 21.49 21.49 0 01-19.32 21.36zm38.58 7.58v-3.3l7.94-7.94a2.14 2.14 0 00-3-3l-4.91 4.91v-14.14a2.15 2.15 0 00-4.29 0v9.83l-4.91-4.92a2.14 2.14 0 10-3 3l7.94 7.95v7.57a23.56 23.56 0 01-16.62-9.21 25.62 25.62 0 005.94-16.44 94.81 94.81 0 00-1.53-16.51 23.57 23.57 0 1116.5 42.16zM529 152.25A27.85 27.85 0 00485.85 129a86 86 0 00-4.62-14.52C476.17 102.55 469.55 96 462.57 96s-13.61 6.53-18.66 18.38a85.39 85.39 0 00-4.42 13.62l-7-25.64a2.15 2.15 0 00-4.14 0l-19.28 70.71a2.12 2.12 0 00.36 1.87 2.16 2.16 0 001.7.84h17.15V193a2.14 2.14 0 104.28 0v-17.18h17.14a2.16 2.16 0 001.71-.84 2.13 2.13 0 00.42-1.5 25.6 25.6 0 008.59 2.25V193a2.14 2.14 0 104.28 0v-17.27a25.57 25.57 0 0014.63-6.14A27.87 27.87 0 00499 180v13a2.15 2.15 0 104.29 0v-13A27.9 27.9 0 00529 152.25zm-82.09 19.29h-14.34v-3.4l3.79-3.79a2.14 2.14 0 10-3-3l-.76.76V148a2.14 2.14 0 10-4.28 0v9.83l-2.8-2.83a2.15 2.15 0 00-3 3l5.81 5.8V171.49H414l16.48-60.43 7.26 26.62a91.5 91.5 0 00-.87 12.34 25.72 25.72 0 009.73 20.14zm17.8-3.4l8-7.95a2.14 2.14 0 00-3-3l-4.92 4.92v-8.94l5.81-5.8a2.15 2.15 0 10-3-3l-2.77 2.77v-5.54a2.14 2.14 0 10-4.28 0v16.25l-4.91-4.91a2.15 2.15 0 10-3 3l7.95 7.94v7.58a21.5 21.5 0 01-19.32-21.36 91.28 91.28 0 016.74-34c4.28-10 9.64-15.77 14.72-15.77s10.44 5.77 14.72 15.84a91.32 91.32 0 016.55 33.9 21.49 21.49 0 01-19.32 21.36zm38.58 7.58v-3.3l7.94-7.94a2.14 2.14 0 10-3-3l-4.91 4.91v-14.14a2.15 2.15 0 00-4.29 0v9.83l-4.91-4.92a2.14 2.14 0 00-3 3l7.94 7.95v7.57a23.56 23.56 0 01-16.62-9.21 25.62 25.62 0 005.94-16.44 94.81 94.81 0 00-1.53-16.51 23.57 23.57 0 1116.5 42.16zM1899 318.25a27.85 27.85 0 00-43.15-23.25 86 86 0 00-4.62-14.52c-5.06-11.9-11.68-18.45-18.66-18.45s-13.61 6.53-18.66 18.38a85.39 85.39 0 00-4.42 13.66l-7-25.64a2.15 2.15 0 00-4.14 0l-19.28 70.71a2.12 2.12 0 00.36 1.87 2.16 2.16 0 001.7.84h17.15V359a2.14 2.14 0 104.28 0v-17.18h17.14a2.16 2.16 0 001.71-.84 2.13 2.13 0 00.42-1.5 25.6 25.6 0 008.59 2.25V359a2.14 2.14 0 104.28 0v-17.27a25.57 25.57 0 0014.63-6.14A27.87 27.87 0 001869 346v13a2.15 2.15 0 104.29 0v-13a27.9 27.9 0 0025.71-27.75zm-82.09 19.29h-14.34v-3.4l3.79-3.79a2.14 2.14 0 00-3-3l-.76.76V314a2.14 2.14 0 10-4.28 0v9.83l-2.77-2.77a2.15 2.15 0 10-3 3l5.81 5.8V337.55H1784l16.48-60.43 7.26 26.62a91.5 91.5 0 00-.87 12.34 25.72 25.72 0 009.73 20.14zm17.8-3.4l8-7.95a2.14 2.14 0 00-3-3l-4.92 4.92v-8.94l5.81-5.8a2.15 2.15 0 00-3-3l-2.77 2.77v-5.54a2.14 2.14 0 10-4.28 0v16.25l-4.91-4.91a2.15 2.15 0 10-3 3l8 7.94v7.58a21.5 21.5 0 01-19.32-21.36 91.28 91.28 0 016.74-34c4.28-10 9.64-15.77 14.72-15.77s10.44 5.77 14.72 15.84a91.32 91.32 0 016.74 33.94 21.49 21.49 0 01-19.32 21.36zm38.58 7.58v-3.3l7.94-7.94a2.14 2.14 0 10-3-3l-4.91 4.91v-14.14a2.15 2.15 0 00-4.29 0v9.83l-4.91-4.92a2.14 2.14 0 10-3 3l7.94 7.95v7.57a23.56 23.56 0 01-16.62-9.21 25.62 25.62 0 005.94-16.44 94.81 94.81 0 00-1.53-16.51 23.57 23.57 0 1116.5 42.16zM1848 92.25A27.85 27.85 0 001804.85 69a86 86 0 00-4.62-14.52c-5.06-11.9-11.68-18.45-18.66-18.45s-13.61 6.53-18.66 18.38a85.39 85.39 0 00-4.42 13.59l-7-25.64a2.15 2.15 0 00-4.14 0l-19.28 70.71a2.12 2.12 0 00.36 1.87 2.16 2.16 0 001.7.84h17.15V133a2.14 2.14 0 104.28 0v-17.18h17.14a2.16 2.16 0 001.71-.84 2.13 2.13 0 00.42-1.5 25.6 25.6 0 008.59 2.25V133a2.14 2.14 0 104.28 0v-17.27a25.57 25.57 0 0014.63-6.14A27.87 27.87 0 001818 120v13a2.15 2.15 0 104.29 0v-13A27.9 27.9 0 001848 92.25zm-82.09 19.29h-14.34v-3.4l3.79-3.79a2.14 2.14 0 00-3-3l-.76.76V88a2.14 2.14 0 10-4.28 0v9.83l-2.8-2.83a2.15 2.15 0 00-3 3l5.81 5.8V111.49H1733l16.48-60.43 7.26 26.62a91.5 91.5 0 00-.87 12.34 25.72 25.72 0 009.73 20.14zm17.8-3.4l8-8a2.14 2.14 0 00-3-3l-4.92 4.92v-8.92l5.81-5.8a2.15 2.15 0 00-3-3l-2.77 2.77v-5.57a2.14 2.14 0 10-4.28 0v16.25l-4.91-4.91a2.15 2.15 0 00-3 3l8 7.94v7.58a21.5 21.5 0 01-19.32-21.36 91.28 91.28 0 016.74-34c4.28-10 9.64-15.77 14.72-15.77s10.44 5.77 14.72 15.84a91.32 91.32 0 016.5 33.96 21.49 21.49 0 01-19.32 21.36zm38.58 7.58v-3.3l7.94-7.94a2.14 2.14 0 10-3-3l-4.91 4.91V92.25a2.15 2.15 0 00-4.29 0v9.83l-4.91-4.92a2.14 2.14 0 10-3 3l7.94 8v7.57a23.56 23.56 0 01-16.62-9.21 25.62 25.62 0 005.94-16.44 94.81 94.81 0 00-1.53-16.51 23.57 23.57 0 1116.5 42.16zM720 459.25A27.85 27.85 0 00676.85 436a86 86 0 00-4.62-14.52c-5.06-11.9-11.68-18.45-18.66-18.45s-13.61 6.53-18.66 18.38a85.39 85.39 0 00-4.42 13.59l-7-25.64a2.15 2.15 0 00-4.14 0l-19.28 70.71a2.12 2.12 0 00.36 1.87 2.16 2.16 0 001.7.84h17.15V500a2.14 2.14 0 104.28 0v-17.18h17.14a2.16 2.16 0 001.71-.84 2.13 2.13 0 00.42-1.5 25.6 25.6 0 008.59 2.25V500a2.14 2.14 0 104.28 0v-17.27a25.57 25.57 0 0014.63-6.14A27.87 27.87 0 00690 487v13a2.15 2.15 0 104.29 0v-13A27.9 27.9 0 00720 459.25zm-82.09 19.29h-14.34v-3.4l3.79-3.79a2.14 2.14 0 00-3-3l-.76.76V455a2.14 2.14 0 00-4.28 0v9.83l-2.8-2.83a2.15 2.15 0 10-3 3l5.81 5.8V478.49H605l16.48-60.43 7.26 26.62a91.5 91.5 0 00-.87 12.34 25.72 25.72 0 009.73 20.14zm17.8-3.4l7.95-7.95a2.14 2.14 0 00-3-3l-4.92 4.92v-8.94l5.81-5.8a2.15 2.15 0 00-3-3l-2.77 2.77v-5.54a2.14 2.14 0 10-4.28 0v16.25l-4.91-4.91a2.15 2.15 0 10-3 3l7.95 7.94v7.58a21.5 21.5 0 01-19.32-21.36 91.28 91.28 0 016.74-34c4.28-10 9.64-15.77 14.72-15.77s10.44 5.77 14.72 15.84a91.32 91.32 0 016.6 33.9 21.49 21.49 0 01-19.32 21.36zm38.58 7.58v-3.3l7.94-7.94a2.14 2.14 0 00-3-3l-4.91 4.91v-14.14a2.15 2.15 0 00-4.29 0v9.83l-4.91-4.92a2.14 2.14 0 00-3 3l7.94 7.95v7.57a23.56 23.56 0 01-16.62-9.21 25.62 25.62 0 005.94-16.44 94.81 94.81 0 00-1.53-16.51 23.57 23.57 0 1116.5 42.16zM1765 708.25a27.85 27.85 0 00-43.15-23.25 86 86 0 00-4.62-14.52c-5.06-11.9-11.68-18.45-18.66-18.45s-13.61 6.53-18.66 18.38a85.39 85.39 0 00-4.42 13.66l-7-25.64a2.15 2.15 0 00-4.14 0l-19.28 70.71a2.12 2.12 0 00.36 1.87 2.16 2.16 0 001.7.84h17.15V749a2.14 2.14 0 104.28 0v-17.18h17.14a2.16 2.16 0 001.71-.84 2.13 2.13 0 00.42-1.5 25.6 25.6 0 008.59 2.25V749a2.14 2.14 0 104.28 0v-17.27a25.57 25.57 0 0014.63-6.14A27.87 27.87 0 001735 736v13a2.15 2.15 0 104.29 0v-13a27.9 27.9 0 0025.71-27.75zm-82.09 19.29h-14.34v-3.4l3.79-3.79a2.14 2.14 0 00-3-3l-.76.76V704a2.14 2.14 0 10-4.28 0v9.83l-2.77-2.77a2.15 2.15 0 10-3 3l5.81 5.8V727.55H1650l16.48-60.43 7.26 26.62a91.5 91.5 0 00-.87 12.34 25.72 25.72 0 009.73 20.14zm17.8-3.4l8-7.95a2.14 2.14 0 00-3-3l-4.92 4.92v-8.94l5.81-5.8a2.15 2.15 0 00-3-3l-2.77 2.77v-5.54a2.14 2.14 0 10-4.28 0v16.25l-4.91-4.91a2.15 2.15 0 10-3 3l8 7.94v7.58a21.5 21.5 0 01-19.32-21.36 91.28 91.28 0 016.74-34c4.28-10 9.64-15.77 14.72-15.77s10.44 5.77 14.72 15.84a91.32 91.32 0 016.74 33.94 21.49 21.49 0 01-19.32 21.36zm38.58 7.58v-3.3l7.94-7.94a2.14 2.14 0 10-3-3l-4.91 4.91v-14.14a2.15 2.15 0 00-4.29 0v9.83l-4.91-4.92a2.14 2.14 0 10-3 3l7.94 7.95v7.57a23.56 23.56 0 01-16.62-9.21 25.62 25.62 0 005.94-16.44 94.81 94.81 0 00-1.53-16.51 23.57 23.57 0 1116.5 42.16zM1533 370.25a27.85 27.85 0 00-43.15-23.25 86 86 0 00-4.62-14.52c-5.06-11.9-11.68-18.45-18.66-18.45s-13.61 6.53-18.66 18.38a85.39 85.39 0 00-4.42 13.66l-7-25.64a2.15 2.15 0 00-4.14 0l-19.28 70.71a2.12 2.12 0 00.36 1.87 2.16 2.16 0 001.7.84h17.15V411a2.14 2.14 0 104.28 0v-17.18h17.14a2.16 2.16 0 001.71-.84 2.13 2.13 0 00.42-1.5 25.6 25.6 0 008.59 2.25V411a2.14 2.14 0 104.28 0v-17.27a25.57 25.57 0 0014.63-6.14A27.87 27.87 0 001503 398v13a2.15 2.15 0 104.29 0v-13a27.9 27.9 0 0025.71-27.75zm-82.09 19.29h-14.34v-3.4l3.79-3.79a2.14 2.14 0 00-3-3l-.76.76V366a2.14 2.14 0 10-4.28 0v9.83l-2.77-2.77a2.15 2.15 0 10-3 3l5.81 5.8V389.55H1418l16.48-60.43 7.26 26.62a91.5 91.5 0 00-.87 12.34 25.72 25.72 0 009.73 20.14zm17.8-3.4l8-7.95a2.14 2.14 0 00-3-3l-4.92 4.92v-8.94l5.81-5.8a2.15 2.15 0 00-3-3l-2.77 2.77v-5.54a2.14 2.14 0 10-4.28 0v16.25l-4.91-4.91a2.15 2.15 0 10-3 3l8 7.94v7.58a21.5 21.5 0 01-19.32-21.36 91.28 91.28 0 016.74-34c4.28-10 9.64-15.77 14.72-15.77s10.44 5.77 14.72 15.84a91.32 91.32 0 016.74 33.94 21.49 21.49 0 01-19.32 21.36zm38.58 7.58v-3.3l7.94-7.94a2.14 2.14 0 10-3-3l-4.91 4.91v-14.14a2.15 2.15 0 00-4.29 0v9.83l-4.91-4.92a2.14 2.14 0 10-3 3l7.94 7.95v7.57a23.56 23.56 0 01-16.62-9.21 25.62 25.62 0 005.94-16.44 94.81 94.81 0 00-1.53-16.51 23.57 23.57 0 1116.5 42.16z" class="cls-3"/><g class="cls-1"><path d="M1240.23 521.13a16.43 16.43 0 00-20.68-10.54 18.66 18.66 0 00-3.42 1.52 19.51 19.51 0 00.38-3.73c0-9.14-6.32-16.41-15.32-16.41s-15.65 7.29-15.65 16.41a19.51 19.51 0 00.38 3.73 19.27 19.27 0 00-3.42-1.52 16.45 16.45 0 00-20.69 10.54c-2.83 8.73 2 18.45 10.54 21.23a19.76 19.76 0 003.66.79 20.19 20.19 0 00-2.5 2.79 16.44 16.44 0 003.64 22.93 15.52 15.52 0 0022.16-3.64 19.41 19.41 0 001.88-3.23 19.41 19.41 0 001.88 3.23c5.34 7.36 14.53 8.94 21.83 3.64a16.44 16.44 0 003.63-22.93 19 19 0 00-2.5-2.79 19.41 19.41 0 003.66-.79c8.55-2.78 13.38-12.5 10.54-21.23zm-39-24.47c6.16 0 10.63 4.93 10.63 11.72a20.52 20.52 0 01-3.2 10.09 2.23 2.23 0 00-.35 1.26l-2.44 4.23a12.14 12.14 0 00-2.33-.73v-9.61a2.32 2.32 0 00-2.31-2.35 2.35 2.35 0 00-2.35 2.35v9.61a11.62 11.62 0 00-2.34.75l-2.73-4.46a2.33 2.33 0 00-.34-1 20.52 20.52 0 01-3.2-10.09c-.04-6.73 4.67-11.77 10.92-11.77zm-27.43 41.24c-6-2-9.54-9.12-7.53-15.32a11.75 11.75 0 0114.78-7.53 19.68 19.68 0 017.58 5.05l4 6.59a12.27 12.27 0 00-1.67 2.25l-9.15-3a2.34 2.34 0 00-1.45 4.46l9.15 3a11 11 0 000 2.69l-5.86 2a20 20 0 01-9.85-.19zm25 14.61a20.36 20.36 0 01-3.33 10 10.84 10.84 0 01-15.61 2.59 11.73 11.73 0 01-2.59-16.37c3.1-4.28 8.5-6.22 8.9-6.49l4.81-1.67a12 12 0 001.52 2.09l-5.65 7.79a2.34 2.34 0 003.79 2.75l5.65-7.78a12.09 12.09 0 002.51.82v6.3zm2.35-10.75a7 7 0 117-7 7.05 7.05 0 01-6.96 7zm21 23.31c-5.38 3.92-11.59 2.49-15.28-2.59a20.47 20.47 0 01-3.36-10v-6.3a12 12 0 002.54-.82l5.65 7.78a2.35 2.35 0 003.8-2.75l-5.66-7.79a11.85 11.85 0 001.52-2.07l4.37 1.57c.54.4 5.87 2.23 9 6.57a11.73 11.73 0 01-2.59 16.4zm-3.61-26.91l-5.7-2a11.17 11.17 0 000-2.71l9.15-3a2.34 2.34 0 10-1.45-4.46l-9.15 3a11.47 11.47 0 00-1.7-2.28l3.88-6.71a19.73 19.73 0 017.44-4.9 11.74 11.74 0 0114.77 7.53c2 6.2-1.5 13.36-7.53 15.32a20 20 0 01-9.72.21z" class="cls-2"/></g><g class="cls-1"><path d="M449.14 663.23h-17.69v-2.88a9.35 9.35 0 00-9.35-9.35h-16.81a9.36 9.36 0 00-9.35 9.35v2.88h-17.68a2.36 2.36 0 100 4.72h4.26v55.43A12.64 12.64 0 00395.14 736h37.12a12.64 12.64 0 0012.62-12.62V668h4.26a2.36 2.36 0 000-4.72zm-48.48-2.88a4.64 4.64 0 014.63-4.63h16.81a4.64 4.64 0 014.64 4.63v2.88h-26.08zm39.5 63a7.92 7.92 0 01-7.9 7.9h-37.12a7.92 7.92 0 01-7.9-7.9V668h52.93v55.43z" class="cls-2"/><path d="M413.7 722.82a2.35 2.35 0 002.36-2.36v-41.69a2.36 2.36 0 10-4.72 0v41.68a2.36 2.36 0 002.36 2.37zM398.3 720.22a2.35 2.35 0 002.36-2.36v-36.51a2.36 2.36 0 00-4.72 0v36.51a2.36 2.36 0 002.36 2.36zM429.09 720.22a2.35 2.35 0 002.36-2.36v-36.51a2.36 2.36 0 00-4.71 0v36.51a2.34 2.34 0 002.35 2.36z" class="cls-2"/></g><g class="cls-1"><path d="M631.72 35.38l-17.29-3.73.61-2.82a9.36 9.36 0 00-7.17-11.11l-16.43-3.54a9.36 9.36 0 00-11.11 7.17l-.61 2.82-17.29-3.72a2.36 2.36 0 00-1 4.61l4.16.9-11.66 54.18a12.64 12.64 0 009.67 15l36.29 7.86a12.63 12.63 0 0015-9.68l11.68-54.19 4.17.9a2.36 2.36 0 101-4.61zm-46.78-13a4.63 4.63 0 015.5-3.55l16.44 3.54a4.64 4.64 0 013.55 5.5l-.61 2.82-25.49-5.49zm25.33 69.94a7.91 7.91 0 01-9.39 6l-36.28-7.8a7.9 7.9 0 01-6.06-9.38L570.22 27 622 38.1l-11.71 54.19z" class="cls-2"/><path d="M584.52 86.17a2.36 2.36 0 002.81-1.81l8.78-40.76a2.36 2.36 0 10-4.61-1l-8.78 40.75a2.36 2.36 0 001.8 2.82zM570 80.38a2.35 2.35 0 002.8-1.81l7.69-35.69a2.36 2.36 0 00-4.61-1l-7.69 35.68a2.37 2.37 0 001.81 2.82zM600.12 86.86a2.33 2.33 0 002.8-1.81l7.69-35.68a2.36 2.36 0 10-4.61-1l-7.69 35.69a2.35 2.35 0 001.81 2.8z" class="cls-2"/></g><g class="cls-1"><path d="M248.14 202.23h-17.69v-2.88a9.35 9.35 0 00-9.35-9.35h-16.81a9.36 9.36 0 00-9.35 9.35v2.88h-17.68a2.36 2.36 0 100 4.72h4.26v55.43A12.64 12.64 0 00194.14 275h37.12a12.64 12.64 0 0012.62-12.62V207h4.26a2.36 2.36 0 000-4.72zm-48.48-2.88a4.64 4.64 0 014.63-4.63h16.81a4.64 4.64 0 014.64 4.63v2.88h-26.08zm39.5 63a7.92 7.92 0 01-7.9 7.9h-37.12a7.92 7.92 0 01-7.9-7.9V207h52.93v55.43z" class="cls-2"/><path d="M212.7 261.82a2.35 2.35 0 002.36-2.36v-41.69a2.36 2.36 0 10-4.72 0v41.68a2.36 2.36 0 002.36 2.37zM197.3 259.22a2.35 2.35 0 002.36-2.36v-36.51a2.36 2.36 0 00-4.72 0v36.51a2.36 2.36 0 002.36 2.36zM228.09 259.22a2.35 2.35 0 002.36-2.36v-36.51a2.36 2.36 0 00-4.71 0v36.51a2.34 2.34 0 002.35 2.36z" class="cls-2"/></g><g class="cls-1"><path d="M151.16 818.47l-17 5-.82-2.76a9.36 9.36 0 00-11.6-6.34l-16.13 4.75a9.34 9.34 0 00-6.33 11.6l.81 2.77-17 5a2.36 2.36 0 101.4 4.51l4.09-1.2 15.64 53.2a12.64 12.64 0 0015.66 8.55L155.49 893a12.64 12.64 0 008.51-15.62l-15.6-53.18 4.1-1.21a2.36 2.36 0 00-1.34-4.52zm-47.32 10.9a4.64 4.64 0 013.14-5.75l16.13-4.74a4.64 4.64 0 015.75 3.14l.81 2.76-25 7.36zm55.67 49.34a7.91 7.91 0 01-5.35 9.8L118.55 899a7.91 7.91 0 01-9.81-5.35l-15.63-53.2 50.78-14.93 15.64 53.18z" class="cls-2"/><path d="M134 885.63a2.35 2.35 0 001.6-2.93l-11.76-40a2.36 2.36 0 10-4.53 1.33L131 884a2.35 2.35 0 003 1.63zM118.46 887.48a2.35 2.35 0 001.6-2.93l-10.29-35a2.36 2.36 0 00-4.53 1.33l10.29 35a2.37 2.37 0 002.93 1.6zM148 878.79a2.35 2.35 0 001.59-2.93l-10.29-35a2.36 2.36 0 10-4.53 1.33l10.3 35a2.35 2.35 0 002.93 1.6z" class="cls-2"/></g><g class="cls-1"><path d="M1157.14 654.23h-17.69v-2.88a9.35 9.35 0 00-9.35-9.35h-16.81a9.36 9.36 0 00-9.35 9.35v2.88h-17.68a2.36 2.36 0 100 4.72h4.26v55.43a12.64 12.64 0 0012.62 12.62h37.12a12.64 12.64 0 0012.62-12.62V659h4.26a2.36 2.36 0 000-4.72zm-48.48-2.88a4.64 4.64 0 014.63-4.63h16.81a4.64 4.64 0 014.64 4.63v2.88h-26.08zm39.5 63a7.92 7.92 0 01-7.9 7.9h-37.12a7.92 7.92 0 01-7.9-7.9V659h52.93v55.43z" class="cls-2"/><path d="M1121.7 713.82a2.35 2.35 0 002.36-2.36v-41.69a2.36 2.36 0 10-4.72 0v41.68a2.36 2.36 0 002.36 2.37zM1106.3 711.22a2.35 2.35 0 002.36-2.36v-36.51a2.36 2.36 0 00-4.72 0v36.51a2.36 2.36 0 002.36 2.36zM1137.09 711.22a2.35 2.35 0 002.36-2.36v-36.51a2.36 2.36 0 00-4.71 0v36.51a2.34 2.34 0 002.35 2.36z" class="cls-2"/></g><g class="cls-1"><path d="M1122.62 264.34l-16.86-5.34.87-2.75a9.36 9.36 0 00-6.09-11.73l-16-5.08a9.37 9.37 0 00-11.74 6.1l-.87 2.75L1055 243a2.36 2.36 0 10-1.42 4.5l4.06 1.29-16.64 52.79a12.64 12.64 0 008.22 15.84l35.39 11.2a12.64 12.64 0 0015.84-8.22l16.72-52.85 4.07 1.28a2.35 2.35 0 101.42-4.49zM1077.27 247a4.64 4.64 0 015.81-3l16 5.08a4.63 4.63 0 013 5.81l-.87 2.75-24.86-7.87zm18.64 72a7.92 7.92 0 01-9.92 5.15l-35.38-11.2a7.91 7.91 0 01-5.15-9.91l16.72-52.85 50.47 16-16.73 52.81z" class="cls-2"/><path d="M1070.85 310.46a2.35 2.35 0 003-1.54l12.58-39.75a2.36 2.36 0 00-4.5-1.43l-12.57 39.74a2.36 2.36 0 001.49 2.98zM1057 303.33a2.36 2.36 0 003-1.54l11-34.8a2.36 2.36 0 10-4.49-1.43l-11 34.81a2.37 2.37 0 001.49 2.96zM1086.32 312.62a2.35 2.35 0 003-1.54l11-34.8a2.36 2.36 0 00-4.5-1.43l-11 34.81a2.35 2.35 0 001.5 2.96z" class="cls-2"/></g><g class="cls-1"><path d="M1491.54 205.15l-16.88-5.26.86-2.75a9.37 9.37 0 00-6.15-11.71l-16-5a9.37 9.37 0 00-11.71 6.15l-.85 2.75-16.89-5.26a2.36 2.36 0 10-1.4 4.5l4.07 1.27-16.59 52.91a12.63 12.63 0 008.29 15.8l35.44 11.05a12.63 12.63 0 0015.8-8.29l16.5-52.92 4.07 1.27a2.36 2.36 0 001.4-4.51zM1446.12 188a4.64 4.64 0 015.8-3l16 5a4.64 4.64 0 013 5.8l-.86 2.75-24.89-7.76zm19 71.93a7.91 7.91 0 01-9.9 5.19l-35.43-11a7.91 7.91 0 01-5.19-9.89l16.4-52.99 50.58 15.76-16.5 52.92z" class="cls-2"/><path d="M1440 251.5a2.35 2.35 0 003-1.56l12.41-39.8a2.36 2.36 0 00-4.51-1.41l-12.4 39.79a2.37 2.37 0 001.5 2.98zM1426.05 244.43a2.35 2.35 0 003-1.55l10.82-34.88a2.36 2.36 0 00-4.51-1.41l-10.86 34.85a2.36 2.36 0 001.55 2.99zM1455.45 253.59a2.35 2.35 0 003-1.55l10.86-34.85a2.36 2.36 0 10-4.5-1.41l-10.86 34.86a2.34 2.34 0 001.5 2.95z" class="cls-2"/></g><g class="cls-1"><path d="M544.59 307.5h-66.67A10.93 10.93 0 00467 318.42v42.28a10.93 10.93 0 0010.92 10.92h30.85V382h-15.38a2.48 2.48 0 100 5h35.73a2.48 2.48 0 100-5h-15.39v-10.38h30.86a10.93 10.93 0 0010.91-10.92v-42.28a10.91 10.91 0 00-10.91-10.92zm-66.67 5h66.69a6 6 0 015.95 6v35.34H472v-35.42a6 6 0 015.92-5.96zm66.67 54.2h-66.67a6 6 0 01-6-6v-2h78.58v2a6 6 0 01-5.91 5.96z" class="cls-2"/></g><g class="cls-1"><path d="M1051.81 984.58l-64.36-17.4a10.93 10.93 0 00-13.39 7.69l-11 40.82a10.92 10.92 0 007.69 13.38l29.79 8.06-2.72 10-14.85-4a2.48 2.48 0 00-1.3 4.79l34.49 9.32a2.48 2.48 0 001.3-4.79l-14.85-4 2.72-10.06 29.78 8a10.92 10.92 0 0013.39-7.68l11-40.82a10.92 10.92 0 00-7.69-13.31zM986.15 972l64.38 17.4a6 6 0 014.19 7.31l-9.22 34.11-75.87-20.52 9.22-34.11a6 6 0 017.3-4.19zm50.22 69.71L972 1024.28a6 6 0 01-4.2-7.3l.52-1.92 75.86 20.52-.52 1.91a6 6 0 01-7.29 4.19z" class="cls-2"/></g><g class="cls-1"><path d="M903.88 547h-73.8A12.09 12.09 0 00818 559.08v46.81A12.09 12.09 0 00830.08 618h34.16v11.54h-17a2.75 2.75 0 000 5.49h39.55a2.75 2.75 0 000-5.49h-17V618h34.15A12.1 12.1 0 00916 605.89v-46.81A12.08 12.08 0 00903.88 547zm-73.8 5.49h73.82a6.6 6.6 0 016.6 6.59v39.12h-87v-39.12a6.59 6.59 0 016.58-6.59zm73.8 60h-73.8a6.6 6.6 0 01-6.59-6.59v-2.2h87v2.2a6.6 6.6 0 01-6.61 6.58z" class="cls-2"/></g><g class="cls-1"><path d="M1780.64 405.5h-63.28a10.37 10.37 0 00-10.36 10.36V456a10.37 10.37 0 0010.36 10.36h29.29v9.89h-14.6a2.36 2.36 0 100 4.71H1766a2.36 2.36 0 100-4.71h-14.6v-9.89h29.29A10.37 10.37 0 001791 456v-40.14a10.36 10.36 0 00-10.36-10.36zm-63.28 4.71h63.3a5.66 5.66 0 015.65 5.65v33.54h-74.6v-33.54a5.65 5.65 0 015.65-5.65zm63.28 51.44h-63.28a5.67 5.67 0 01-5.65-5.66v-1.88h74.58V456a5.67 5.67 0 01-5.65 5.65z" class="cls-2"/></g><g class="cls-1"><path d="M108.49 292.51L43 279.92a10.93 10.93 0 00-12.78 8.66l-8 41.53a10.93 10.93 0 008.66 12.78l30.3 5.82-2 10.23L44.14 356a2.48 2.48 0 00-.93 4.87l35.08 6.75a2.48 2.48 0 10.94-4.88l-15.11-2.9 2-10.23 30.3 5.82a10.93 10.93 0 0012.78-8.66l8-41.52a10.91 10.91 0 00-8.71-12.74zm-66.41-7.71l65.49 12.58a6 6 0 014.73 7l-6.67 34.71-77.19-14.87 6.67-34.7a5.94 5.94 0 016.97-4.72zm55.25 65.8L31.85 338a6 6 0 01-4.72-7l.37-1.94 77.17 14.83-.37 1.95a6 6 0 01-6.97 4.76z" class="cls-2"/></g><g class="cls-1"><path d="M1151.18 6.21L1088.91 30a10.93 10.93 0 00-6.29 14.1l15.11 39.49a10.93 10.93 0 0014.1 6.29l28.81-11 3.73 9.73-14.37 5.51a2.48 2.48 0 001.78 4.64L1165.14 86a2.48 2.48 0 10-1.77-4.63L1149 86.85l-3.72-9.73 28.82-11a10.92 10.92 0 006.29-14.12l-15.11-39.49a10.93 10.93 0 00-14.1-6.3zm-60.5 28.46L1153 10.84a6 6 0 017.69 3.43l12.63 33-73.41 28.09-12.63-33a6 6 0 013.4-7.69zm81.64 26.79l-62.27 23.83a6 6 0 01-7.69-3.43l-.7-1.86 73.39-28.08.71 1.85a6 6 0 01-3.44 7.69z" class="cls-2"/></g><g class="cls-1"><path d="M1766.59 950.5h-66.67a10.93 10.93 0 00-10.92 10.92v42.28a10.93 10.93 0 0010.92 10.92h30.85V1025h-15.38a2.48 2.48 0 100 5h35.73a2.48 2.48 0 000-5h-15.39v-10.42h30.86a10.93 10.93 0 0010.91-10.92v-42.24a10.91 10.91 0 00-10.91-10.92zm-66.67 5h66.69a6 6 0 016 6v35.34H1694v-35.42a6 6 0 015.92-5.96zm66.67 54.2h-66.67a6 6 0 01-6-6v-2h78.58v2a6 6 0 01-5.91 5.96z" class="cls-2"/></g><g class="cls-1"><path d="M701.39 258.86l-32.49-29.05a.62.62 0 00-.18-.14 1.92 1.92 0 00-2.6 0l-32.48 29a1.92 1.92 0 001.28 3.35 1.91 1.91 0 001.28-.48l5.8-5.24v33.87a4.83 4.83 0 004.83 4.83h10.25a4.53 4.53 0 004.53-4.53v-17.22a.69.69 0 01.7-.69h10.34a.69.69 0 01.7.69v17.22a4.53 4.53 0 004.53 4.53h10.25c2.7 0 4.83-2.65 4.83-6.05v-32.46l5.84 5.23a1.92 1.92 0 001.28.49 1.91 1.91 0 001.27-3.35zm-12.24 9.47v20.59c0 1.38-.68 2.22-1 2.22H677.9a.69.69 0 01-.69-.7v-17.19a4.53 4.53 0 00-4.53-4.53h-10.35a4.53 4.53 0 00-4.53 4.53v17.22a.7.7 0 01-.69.7h-10.25a1 1 0 01-1-1v-37.3l21.55-19.26 21.74 19.44v15.28z" class="cls-2"/></g><g class="cls-1"><path d="M523.51 490.81l-30.75-30.87a.9.9 0 00-.18-.15 1.92 1.92 0 00-2.59-.19l-34.1 27.13a1.92 1.92 0 00-.31 2.69 2 2 0 001.39.73 2 2 0 001.31-.41l6.14-4.9-.06 1-.87 15.16-1 17.66a4.84 4.84 0 004.54 5.1h.23l10 .58a4.53 4.53 0 004.78-4.26l1-17.19a.69.69 0 01.73-.66l10.33.6a.7.7 0 01.66.73l-1 17.19a4.53 4.53 0 004.27 4.78l10.23.59c2.69.16 5-2.37 5.16-5.75l.91-15.76.28-4.82.68-11.84 5.54 5.57a1.88 1.88 0 001.25.55 1.94 1.94 0 001.47-.55 2 2 0 00-.04-2.71zm-12.76 8.75l-.28 4.82-.9 15.75c-.08 1.37-.81 2.17-1.12 2.15l-10.24-.59a.7.7 0 01-.65-.74l1-17.16a4.54 4.54 0 00-4.26-4.78l-10.33-.6a4.54 4.54 0 00-4.79 4.26l-1 17.2a.69.69 0 01-.73.65l-10-.58h-.22a1 1 0 01-.94-1l1-17.67.87-15.14.26-4.44 22.62-18 20.58 20.65-.88 15.25z" class="cls-2"/></g><g class="cls-1"><path d="M1203.38 893.57l-36.87-18a.84.84 0 00-.2-.08 1.81 1.81 0 00-2.37.62l-22 34.64a1.81 1.81 0 002 2.71 1.82 1.82 0 001-.77l4-6.24.26.92 3.88 13.75 4.53 16a4.56 4.56 0 005.61 3.14h.2l9.09-2.57a4.26 4.26 0 002.94-5.26l-4.4-15.61a.64.64 0 01.45-.8l9.38-2.65a.65.65 0 01.81.45l4.4 15.61a4.27 4.27 0 005.27 2.94l9.29-2.62c2.44-.69 3.69-3.64 2.82-6.72l-4-14.3-1.23-4.38-3-10.74 6.64 3.25a1.83 1.83 0 002.42-.83 1.85 1.85 0 00-.92-2.46zm-8.67 11.71l1.23 4.38 4 14.29c.35 1.25 0 2.18-.33 2.26l-9.29 2.63a.66.66 0 01-.81-.46l-4.4-15.58a4.27 4.27 0 00-5.26-2.94l-9.38 2.65a4.26 4.26 0 00-3 5.26l4.41 15.61a.66.66 0 01-.46.8l-9.08 2.57H1162.13a1 1 0 01-1.15-.65l-4.53-16-3.88-13.75-1.13-4 14.6-23 24.67 12.05 3.91 13.84z" class="cls-2"/></g><g class="cls-1"><path d="M1435.39 522.86l-32.49-29.05a.62.62 0 00-.18-.14 1.92 1.92 0 00-2.6 0l-32.48 29a1.92 1.92 0 001.28 3.35 1.91 1.91 0 001.28-.48l5.84-5.24v33.87a4.83 4.83 0 004.83 4.83h10.25a4.53 4.53 0 004.53-4.53v-17.22a.69.69 0 01.7-.69h10.34a.69.69 0 01.7.69v17.22a4.53 4.53 0 004.53 4.53h10.25c2.7 0 4.83-2.65 4.83-6v-32.51l5.84 5.23a1.92 1.92 0 001.28.49 1.91 1.91 0 001.27-3.35zm-12.24 9.47v20.59c0 1.38-.68 2.22-1 2.22h-10.25a.69.69 0 01-.69-.7v-17.19a4.53 4.53 0 00-4.53-4.53h-10.35a4.53 4.53 0 00-4.53 4.53v17.22a.7.7 0 01-.69.7h-10.25a1 1 0 01-1-1v-37.3l21.55-19.26 21.74 19.44v15.28z" class="cls-2"/></g><g class="cls-1"><path d="M1694.18 166.56l-37.35-22.44-.21-.1a1.92 1.92 0 00-2.56.44l-26.46 34.62a1.92 1.92 0 001.89 3 1.89 1.89 0 001.16-.71l4.76-6.24.2 1 2.84 14.9 3.32 17.37a4.82 4.82 0 005.64 3.84H1647.64l9.84-1.88a4.52 4.52 0 003.6-5.29l-3.23-16.92a.7.7 0 01.55-.81l10.17-1.94a.69.69 0 01.81.55l3.23 16.92a4.53 4.53 0 005.3 3.59l10.07-1.92c2.65-.5 4.24-3.51 3.6-6.84l-3-15.51-.9-4.74-2.22-11.64 6.72 4a1.92 1.92 0 001.35.24 1.91 1.91 0 00.61-3.53zm-10.24 11.6l.9 4.74 3 15.49c.26 1.35-.25 2.3-.56 2.36l-10.07 1.92a.68.68 0 01-.81-.55l-3.23-16.89a4.52 4.52 0 00-5.29-3.59l-10.17 1.94a4.52 4.52 0 00-3.6 5.29l3.23 16.92a.7.7 0 01-.55.81l-9.85 1.88h-.22a1 1 0 01-1.16-.79l-3.32-17.38-2.85-14.9-.83-4.36 17.56-23 25 15 2.87 15z" class="cls-2"/></g><g class="cls-1"><path d="M111.39 965.86L78.9 936.81a.62.62 0 00-.18-.14 1.92 1.92 0 00-2.6 0l-32.48 29a1.92 1.92 0 001.28 3.33 1.91 1.91 0 001.28-.48l5.8-5.22v33.87a4.83 4.83 0 004.83 4.83h10.29a4.53 4.53 0 004.53-4.53v-17.22a.69.69 0 01.7-.69h10.34a.69.69 0 01.7.69v17.22a4.53 4.53 0 004.53 4.53h10.25c2.7 0 4.83-2.65 4.83-6v-32.51l5.84 5.23a1.92 1.92 0 001.28.49 1.91 1.91 0 001.27-3.35zm-12.24 9.47v20.59c0 1.38-.68 2.22-1 2.22H87.9a.69.69 0 01-.69-.7v-17.19a4.53 4.53 0 00-4.53-4.53H72.33a4.53 4.53 0 00-4.53 4.53v17.22a.7.7 0 01-.69.7H56.86a1 1 0 01-1-1v-37.3l21.55-19.26 21.74 19.44v15.28z" class="cls-2"/></g><g class="cls-1"><path d="M1665.92 838.29l-37.49-33.52a1.16 1.16 0 00-.21-.16 2.22 2.22 0 00-3-.05l-37.48 33.52a2.21 2.21 0 001.47 3.86 2.25 2.25 0 001.48-.55l6.75-6v39.09A5.58 5.58 0 001603 880h11.83a5.23 5.23 0 005.22-5.23V854.9a.8.8 0 01.8-.8h12a.8.8 0 01.8.8v19.87a5.23 5.23 0 005.23 5.23h11.82c3.12 0 5.57-3.06 5.57-7v-37.45l6.75 6.05a2.22 2.22 0 003.13-.18 2.25 2.25 0 00-.23-3.13zm-14.13 10.93V873c0 1.59-.78 2.55-1.14 2.55h-11.83a.8.8 0 01-.8-.8V854.9a5.23 5.23 0 00-5.23-5.22h-11.94a5.23 5.23 0 00-5.23 5.22v19.87a.8.8 0 01-.8.81H1603a1.16 1.16 0 01-1.15-1.15v-43l24.87-22.22 25.08 22.43v17.63z" class="cls-2"/></g><g class="cls-1"><path d="M565.06 863.57l-48.74-18.87a.84.84 0 00-.27-.08 2.29 2.29 0 00-2.93 1L488.94 892a2.31 2.31 0 001 3.11 2.34 2.34 0 001.88.11 2.31 2.31 0 001.23-1.08l4.35-8.36.43 1.15 6.41 17 7.48 19.86a5.8 5.8 0 007.46 3.37l.13-.05h.13l11.25-4.24a5.45 5.45 0 003.17-7l-7.28-19.33a.83.83 0 01.48-1.08l11.62-4.37a.83.83 0 011.07.48l7.25 19.32a5.43 5.43 0 007 3.17l11.5-4.33c3-1.14 4.3-5 2.86-8.83l-6.67-17.72-2.05-5.42-5-13.31 8.78 3.41a2.3 2.3 0 101.64-4.29zm-9.73 15.8l2 5.42 6.67 17.7c.58 1.55.17 2.78-.18 2.91l-11.5 4.33a.83.83 0 01-1.08-.48L544 890a5.43 5.43 0 00-7-3.17l-11.61 4.38a5.43 5.43 0 00-3.17 7l7.28 19.33a.83.83 0 01-.49 1.07l-11.25 4.24-.13.05h-.12a1.21 1.21 0 01-1.54-.7l-7.48-19.87-6.42-17-1.88-5 16.05-30.72 32.62 12.62 6.46 17.15z" class="cls-2"/></g><g class="cls-1"><path d="M228.33 89.73c-.53-5.82-3.21-10.08-5.93-14.45-5.38-8.53-11.07-17.57 1.78-40.72a1.83 1.83 0 00-3.18-1.74c-13.9 25-7.61 35-1.68 44.39 2.52 4 4.94 7.91 5.44 12.85a1.81 1.81 0 103.6-.33zM272 34.63a16.48 16.48 0 01-2.4 4.37 12.53 12.53 0 01-7.37 4.78c-3.15.68-6.92.26-11.23-1.69-6.24-2.82-13.51-8.73-21.5-18.91 4.55-.46 12.63-1.92 18.65-6.5 5.09-3.88 9.69-5.3 13.49-4.95a11 11 0 014.65 1.44 12 12 0 013.61 3.2 16.7 16.7 0 013 7.21 27.69 27.69 0 013.81 1 21 21 0 00-4-10.43 15.68 15.68 0 00-4.65-4.15 14.73 14.73 0 00-6.16-1.9c-4.65-.39-10.1 1.24-16 5.72-7.37 5.61-18.48 5.93-19.84 5.93a1.82 1.82 0 00-1.93 1.7 1.79 1.79 0 00.35 1.2c9.25 12.37 17.73 19.43 25 22.74 5.08 2.28 9.62 2.77 13.49 2a16.15 16.15 0 009.5-6.16 20.13 20.13 0 002.88-5.29l-.29-.14a20.85 20.85 0 00-3.06-1.17z" class="cls-2"/><path d="M298.25 50.28c-14.73-24.54-26.49-24.09-37.61-23.65-4.73.18-9.33.36-13.85-1.73a1.81 1.81 0 00-1.52 3.27c5.31 2.44 10.33 2.25 15.49 2 10.09-.35 20.77-.77 34.38 21.93a1.81 1.81 0 103.11-1.86zM241.14 77.45c-.56-5.53-2.41-9.71-5.07-12.64A16.11 16.11 0 00226 59.65a20.19 20.19 0 00-6 .15v.31a20 20 0 00.53 3.26 16.9 16.9 0 015-.13 12.52 12.52 0 017.82 3.95c2.15 2.38 3.68 5.86 4.15 10.57.68 6.8-.8 16-5.6 28.1-2.68-3.72-8-10-15-12.91-5.93-2.49-9.44-5.74-11.06-9.19a11.23 11.23 0 01-1.12-4.69 12.27 12.27 0 011-4.74 16.65 16.65 0 014.73-6.23 27.83 27.83 0 01-1-3.82 21 21 0 00-7.06 8.65 15.61 15.61 0 00-1.25 6.14 14.54 14.54 0 001.43 6.28c2 4.23 6.14 8.14 12.94 11 9.08 3.79 15.11 14.19 15.17 14.29a1.81 1.81 0 003.24-.19c6.14-14.19 8.02-25.06 7.22-33zM292.61 74.09a1.8 1.8 0 00-2.52-.44c-4.78 3.37-7.12 7.83-9.53 12.41-4.71 8.89-9.68 18.38-36.15 18.78a1.81 1.81 0 00.06 3.62c28.62-.48 34.11-10.88 39.3-20.76 2.2-4.17 4.34-8.24 8.4-11.09a1.8 1.8 0 00.44-2.52z" class="cls-2"/><path d="M306.28 58.56a1.88 1.88 0 00-1.11-.23l.05.05C289.88 60.2 279.53 64 273 68.7c-4.51 3.26-7.2 6.92-8.41 10.71a16.12 16.12 0 00.55 11.28 20.18 20.18 0 003.15 5.13l.25-.17a20 20 0 002.57-2.1 16.36 16.36 0 01-2.62-4.25 12.48 12.48 0 01-.43-8.8c1-3.07 3.23-6.11 7.08-8.9 5.55-3.95 14.29-7.33 27.12-9.19-1.87 4.18-4.65 11.86-3.69 19.39.81 6.36-.25 11-2.43 14.19a11.12 11.12 0 01-3.56 3.3 12.22 12.22 0 01-4.59 1.53 16.81 16.81 0 01-7.76-1 28.26 28.26 0 01-2.8 2.78 20.94 20.94 0 0011 1.79 15.82 15.82 0 005.93-2A14.93 14.93 0 00299.1 98c2.65-3.84 3.95-9.37 3-16.7-1.25-9.79 4.8-20.26 4.82-20.29a1.83 1.83 0 00-.64-2.45z" class="cls-2"/></g><g class="cls-1"><path d="M1265.91 712.28c.9-5.76-.65-10.53-2.22-15.42-3.12-9.55-6.43-19.67 11.61-38.92a1.82 1.82 0 00-2.68-2.46c-19.51 20.79-15.85 31.94-12.41 42.49 1.48 4.43 2.86 8.85 2.13 13.74a1.81 1.81 0 003.57.57zM1321.52 669.63a16.75 16.75 0 01-3.4 3.68 12.51 12.51 0 01-8.29 2.82c-3.21-.1-6.75-1.43-10.45-4.36-5.34-4.24-10.93-11.72-16.18-23.5 4.51.66 12.67 1.21 19.6-1.75 5.87-2.51 10.66-2.77 14.25-1.5a11.09 11.09 0 014.14 2.51 12 12 0 012.71 4 16.66 16.66 0 011.18 7.71 27.23 27.23 0 013.43 1.88 20.87 20.87 0 00-1.28-11.05 15.86 15.86 0 00-3.55-5.17 14.83 14.83 0 00-5.49-3.33c-4.4-1.5-10.07-1.25-16.85 1.65-8.49 3.63-19.3 1.25-20.62.91a1.82 1.82 0 00-2.28 1.17 1.85 1.85 0 000 1.25c5.94 14.2 12.41 23.09 18.64 28.06 4.36 3.44 8.63 5 12.56 5.18a16 16 0 0010.68-3.64 20.32 20.32 0 004.06-4.42l-.24-.2a19.69 19.69 0 00-2.62-1.9z" class="cls-2"/><path d="M1343.08 691.13c-8.27-27.3-19.76-29.72-30.61-32-4.62-1-9.1-1.92-13-5a1.8 1.8 0 00-2.27 2.78c4.54 3.65 9.44 4.69 14.48 5.75 9.83 2.1 20.25 4.3 27.9 29.54a1.81 1.81 0 103.46-1zM1281.27 703.52c.81-5.49 0-10-1.83-13.46a16.08 16.08 0 00-8.46-7.43 20.36 20.36 0 00-5.85-1.32l-.08.31a20 20 0 00-.27 3.28 16.76 16.76 0 014.88 1.09 12.49 12.49 0 016.59 5.72c1.51 2.83 2.13 6.56 1.45 11.22-1 6.74-4.67 15.32-12.24 25.8-1.68-4.24-5.29-11.59-11.32-16.11-5.13-3.84-7.73-7.84-8.46-11.57a11.15 11.15 0 01.06-4.81 12 12 0 012.11-4.34 16.67 16.67 0 016.08-4.87 28.64 28.64 0 010-3.93 20.84 20.84 0 00-8.92 6.64 15.8 15.8 0 00-2.71 5.63 14.69 14.69 0 00-.14 6.43c.89 4.56 4 9.35 9.84 13.77 7.85 5.87 11.15 17.38 11.18 17.5a1.81 1.81 0 003.19.6c9.29-12.24 13.75-22.28 14.9-30.15zM1331.84 712.77a1.8 1.8 0 00-2.33-1c-5.44 2.1-8.78 5.84-12.23 9.68-6.71 7.46-13.82 15.41-39.5 9.37a1.81 1.81 0 10-.82 3.52c27.78 6.49 35.61-2.23 43-10.52 3.13-3.49 6.2-6.91 10.82-8.67a1.81 1.81 0 001.06-2.38z" class="cls-2"/><path d="M1348.82 701.08a1.78 1.78 0 00-1-.49v.06c-15.26-2-26.2-.79-33.64 2.15-5.16 2.05-8.65 4.94-10.74 8.31a16.07 16.07 0 00-2.2 11 20.24 20.24 0 001.79 5.72l.29-.11a19.82 19.82 0 003-1.4 16.24 16.24 0 01-1.5-4.75 12.52 12.52 0 011.72-8.61c1.7-2.72 4.61-5.12 9-6.88 6.32-2.47 15.59-3.61 28.44-2.3-2.82 3.59-7.37 10.34-8.27 17.86-.76 6.34-2.93 10.61-5.8 13.12a11.24 11.24 0 01-4.24 2.33 12 12 0 01-4.81.35 16.64 16.64 0 01-7.26-2.84 28.12 28.12 0 01-3.38 2 20.92 20.92 0 0010.2 4.4 15.74 15.74 0 006.22-.47 14.74 14.74 0 005.63-3.09c3.5-3.07 6.1-8.1 7-15.4 1.18-9.77 9.56-18.42 9.59-18.44a1.82 1.82 0 00-.04-2.52z" class="cls-2"/></g><g class="cls-1"><path d="M1204.13 217.17c-.53-5.62-3.13-9.74-5.77-13.95-5.22-8.24-10.75-17 1.62-39.37a1.77 1.77 0 00-3.11-1.67c-13.38 24.2-7.27 33.81-1.51 42.91 2.44 3.81 4.8 7.63 5.29 12.41a1.75 1.75 0 103.48-.33zM1246.22 163.8a16.23 16.23 0 01-2.32 4.27 12.18 12.18 0 01-7.12 4.63c-3 .67-6.69.27-10.86-1.61-6-2.7-13.08-8.4-20.83-18.22 4.4-.46 12.2-1.89 18-6.33 4.91-3.76 9.35-5.15 13-4.82a10.94 10.94 0 014.49 1.38 11.63 11.63 0 013.5 3.09 16.25 16.25 0 012.94 7 27.19 27.19 0 013.68.94 20.08 20.08 0 00-3.8-10.13 15 15 0 00-4.57-4 14.19 14.19 0 00-6-1.82c-4.49-.36-9.76 1.23-15.44 5.57-7.11 5.44-17.84 5.78-19.16 5.79a1.76 1.76 0 00-1.53 2.8c9 11.94 17.19 18.74 24.23 21.92 4.92 2.2 9.31 2.65 13 1.88a15.59 15.59 0 009.17-6 19.65 19.65 0 002.76-5.12l-.27-.13a18.93 18.93 0 00-2.87-1.09z" class="cls-2"/><path d="M1271.63 178.86c-14.31-23.7-25.68-23.23-36.43-22.78-4.57.2-9 .38-13.39-1.62a1.74 1.74 0 00-1.46 3.15c5.14 2.35 10 2.16 15 1.94 9.75-.37 20.07-.8 33.29 21.11a1.75 1.75 0 003-1.8zM1216.48 205.27c-.55-5.35-2.36-9.38-4.94-12.21a15.57 15.57 0 00-9.73-5 19.86 19.86 0 00-5.81.16v.31a18.67 18.67 0 00.53 3.15 16 16 0 014.84-.14 12.06 12.06 0 017.57 3.8c2.09 2.3 3.57 5.66 4 10.21.68 6.57-.73 15.51-5.34 27.17-2.6-3.58-7.74-9.63-14.49-12.44-5.74-2.38-9.14-5.52-10.72-8.85a10.86 10.86 0 01-1.09-4.54 11.66 11.66 0 01.94-4.58 16.1 16.1 0 014.56-6 27.83 27.83 0 01-1-3.69 20.19 20.19 0 00-6.8 8.37 15.16 15.16 0 00-1.2 5.94 14.25 14.25 0 001.4 6.08c1.92 4.07 6 7.85 12.54 10.59 8.79 3.65 14.64 13.68 14.7 13.78a1.75 1.75 0 002.39.65 1.71 1.71 0 00.74-.85c5.92-13.73 7.7-24.24 6.91-31.91zM1266.23 201.88a1.75 1.75 0 00-2.44-.41c-4.61 3.27-6.86 7.58-9.18 12-4.53 8.62-9.31 17.8-34.9 18.26a1.75 1.75 0 00.07 3.5c27.67-.54 33-10.61 37.94-20.18 2.11-4 4.17-8 8.1-10.73a1.76 1.76 0 00.41-2.44z" class="cls-2"/><path d="M1279.4 186.84a1.73 1.73 0 00-1.07-.22h.05c-14.82 1.8-24.82 5.51-31.12 10.06-4.36 3.16-7 6.71-8.1 10.37a15.54 15.54 0 00.56 10.91 19.44 19.44 0 003 5l.25-.17a18.59 18.59 0 002.47-2 15.79 15.79 0 01-2.54-4.1 12.15 12.15 0 01-.44-8.5c1-3 3.11-5.92 6.82-8.63 5.36-3.83 13.8-7.11 26.2-9-1.8 4-4.46 11.48-3.52 18.76.8 6.14-.21 10.68-2.31 13.72a10.81 10.81 0 01-3.43 3.2 11.85 11.85 0 01-4.44 1.49 16.23 16.23 0 01-7.5-.94 27.42 27.42 0 01-2.7 2.69 20.18 20.18 0 0010.64 1.7 15.13 15.13 0 005.73-1.92 14.29 14.29 0 004.56-4.26c2.56-3.71 3.8-9.07 2.9-16.15-1.23-9.46 4.59-19.6 4.6-19.62a1.75 1.75 0 00-.61-2.39z" class="cls-2"/></g><g class="cls-1"><path d="M65.83 561.84c-.5-5.48-3-9.48-5.57-13.59-5.06-8-10.41-16.52 1.67-38.28a1.72 1.72 0 00-3-1.63c-13.07 23.5-7.16 32.86-1.58 41.72 2.37 3.72 4.65 7.44 5.11 12.08a1.7 1.7 0 103.39-.3zM106.9 510a16 16 0 01-2.27 4.15 11.81 11.81 0 01-6.94 4.48c-3 .65-6.5.25-10.55-1.59-5.87-2.64-12.7-8.2-20.21-17.77 4.28-.43 11.87-1.81 17.53-6.11 4.79-3.64 9.11-5 12.69-4.65a10.34 10.34 0 014.36 1.35 11.41 11.41 0 013.4 3 15.68 15.68 0 012.84 6.78 26.15 26.15 0 013.58.93 19.61 19.61 0 00-3.72-9.81 14.81 14.81 0 00-4.43-3.91 13.8 13.8 0 00-5.79-1.79c-4.37-.36-9.5 1.17-15 5.38-6.93 5.27-17.37 5.58-18.65 5.58a1.71 1.71 0 00-1.82 1.6 1.67 1.67 0 00.33 1.12c8.7 11.63 16.66 18.27 23.5 21.38 4.78 2.15 9 2.6 12.68 1.86a15.15 15.15 0 008.93-5.79 18.9 18.9 0 002.71-5l-.27-.13a18.85 18.85 0 00-2.9-1.06z" class="cls-2"/><path d="M131.56 524.75c-13.85-23.07-24.91-22.65-35.36-22.24-4.44.18-8.77.35-13-1.62a1.7 1.7 0 00-1.44 3.11c5 2.3 9.71 2.12 14.56 1.93 9.48-.34 19.52-.73 32.31 20.61a1.71 1.71 0 102.93-1.75zM77.87 550.29c-.52-5.2-2.27-9.12-4.77-11.88a15.17 15.17 0 00-9.45-4.86 19.46 19.46 0 00-5.65.14v.3a18.72 18.72 0 00.5 3.07 15.51 15.51 0 014.71-.13 11.76 11.76 0 017.36 3.72c2 2.24 3.45 5.51 3.9 9.93.64 6.39-.75 15.08-5.26 26.41-2.52-3.49-7.51-9.38-14.06-12.13-5.58-2.34-8.88-5.39-10.4-8.64a10.36 10.36 0 01-1-4.41 11.16 11.16 0 01.93-4.45 15.62 15.62 0 014.44-5.86 27.41 27.41 0 01-.93-3.59A19.71 19.71 0 0041.5 546a14.81 14.81 0 00-1.18 5.77 13.92 13.92 0 001.35 5.91c1.86 4 5.77 7.65 12.17 10.33 8.53 3.57 14.2 13.34 14.25 13.44a1.7 1.7 0 003-.18c5.77-13.27 7.53-23.51 6.78-30.98zM126.26 547.13a1.7 1.7 0 00-2.37-.42c-4.49 3.17-6.7 7.37-9 11.67-4.43 8.36-9.1 17.28-34 17.66a1.7 1.7 0 100 3.4c26.91-.45 32.07-10.22 37-19.52 2.06-3.91 4.08-7.74 7.9-10.42a1.7 1.7 0 00.47-2.37z" class="cls-2"/><path d="M139.1 532.53a1.71 1.71 0 00-1-.21h.05c-14.42 1.71-24.15 5.3-30.28 9.71-4.25 3-6.78 6.5-7.91 10.06a15.1 15.1 0 00.52 10.61 19.09 19.09 0 003 4.82l.24-.17a16.85 16.85 0 002.41-2 15.34 15.34 0 01-2.46-4 11.79 11.79 0 01-.4-8.27c.93-2.89 3-5.75 6.65-8.37 5.22-3.72 13.43-6.89 25.5-8.64-1.76 3.93-4.37 11.15-3.47 18.23.76 6-.23 10.38-2.29 13.34a10.32 10.32 0 01-3.34 3.1 11.43 11.43 0 01-4.31 1.43 15.51 15.51 0 01-7.3-.93 28.27 28.27 0 01-2.63 2.62 19.77 19.77 0 0010.34 1.68 14.74 14.74 0 005.58-1.86 13.81 13.81 0 004.44-4.13c2.5-3.6 3.72-8.81 2.86-15.69-1.17-9.21 4.51-19.05 4.53-19.08a1.71 1.71 0 00-.73-2.25z" class="cls-2"/></g><g class="cls-1"><path d="M1618.83 345.84c-.5-5.48-3-9.48-5.57-13.59-5.06-8-10.41-16.52 1.67-38.28a1.72 1.72 0 00-3-1.63c-13.07 23.5-7.16 32.86-1.58 41.72 2.37 3.72 4.65 7.44 5.11 12.08a1.7 1.7 0 103.39-.3zM1659.9 294a16 16 0 01-2.27 4.15 11.81 11.81 0 01-6.94 4.48c-3 .65-6.5.25-10.55-1.59-5.87-2.64-12.7-8.2-20.21-17.77 4.28-.43 11.87-1.81 17.53-6.11 4.79-3.64 9.11-5 12.69-4.65a10.34 10.34 0 014.36 1.35 11.41 11.41 0 013.4 3 15.68 15.68 0 012.84 6.78 26.15 26.15 0 013.58.93 19.61 19.61 0 00-3.72-9.81 14.81 14.81 0 00-4.43-3.91 13.8 13.8 0 00-5.79-1.79c-4.37-.36-9.5 1.17-15 5.38-6.93 5.27-17.37 5.58-18.65 5.58a1.71 1.71 0 00-1.82 1.6 1.67 1.67 0 00.33 1.12c8.7 11.63 16.66 18.27 23.5 21.38 4.78 2.15 9 2.6 12.68 1.86a15.15 15.15 0 008.93-5.79 18.9 18.9 0 002.71-5l-.27-.13a18.85 18.85 0 00-2.9-1.06z" class="cls-2"/><path d="M1684.56 308.75c-13.85-23.07-24.91-22.65-35.36-22.24-4.44.18-8.77.35-13-1.62a1.7 1.7 0 00-1.43 3.07c5 2.3 9.71 2.12 14.56 1.93 9.48-.34 19.52-.73 32.31 20.61a1.71 1.71 0 102.93-1.75zM1630.87 334.29c-.52-5.2-2.27-9.12-4.77-11.88a15.17 15.17 0 00-9.45-4.86 19.46 19.46 0 00-5.65.14v.3a18.72 18.72 0 00.5 3.07 15.51 15.51 0 014.71-.13 11.76 11.76 0 017.36 3.72c2 2.24 3.45 5.51 3.9 9.93.64 6.39-.75 15.08-5.26 26.41-2.52-3.49-7.51-9.38-14.06-12.13-5.58-2.34-8.88-5.39-10.4-8.64a10.36 10.36 0 01-1-4.41 11.16 11.16 0 01.93-4.45 15.62 15.62 0 014.44-5.86 27.41 27.41 0 01-.93-3.59 19.71 19.71 0 00-6.64 8.13 14.81 14.81 0 00-1.18 5.77 13.92 13.92 0 001.35 5.91c1.86 4 5.77 7.65 12.17 10.33 8.53 3.57 14.2 13.34 14.25 13.44a1.7 1.7 0 003.05-.18c5.67-13.31 7.43-23.55 6.68-31.02zM1679.26 331.13a1.7 1.7 0 00-2.37-.42c-4.49 3.17-6.7 7.37-9 11.67-4.43 8.36-9.1 17.28-34 17.66a1.7 1.7 0 100 3.4c26.91-.45 32.07-10.22 37-19.52 2.06-3.91 4.08-7.74 7.9-10.42a1.7 1.7 0 00.47-2.37z" class="cls-2"/><path d="M1692.1 316.53a1.71 1.71 0 00-1-.21c-14.42 1.71-24.15 5.3-30.28 9.71-4.25 3.05-6.78 6.5-7.91 10.06a15.1 15.1 0 00.52 10.61 19.09 19.09 0 003 4.82l.24-.17a16.85 16.85 0 002.41-2 15.34 15.34 0 01-2.46-4 11.79 11.79 0 01-.4-8.27c.93-2.89 3-5.75 6.65-8.37 5.22-3.72 13.43-6.89 25.5-8.64-1.76 3.93-4.37 11.15-3.47 18.23.76 6-.23 10.38-2.29 13.34a10.32 10.32 0 01-3.34 3.1 11.43 11.43 0 01-4.31 1.43 15.51 15.51 0 01-7.3-.93 28.27 28.27 0 01-2.63 2.62 19.77 19.77 0 0010.34 1.68 14.74 14.74 0 005.58-1.86 13.81 13.81 0 004.44-4.13c2.5-3.6 3.72-8.81 2.86-15.69-1.17-9.21 4.51-19.05 4.53-19.08a1.71 1.71 0 00-.68-2.25z" class="cls-2"/></g><g class="cls-1"><path d="M1015.84 499.68c1.46-5.63.35-10.54-.76-15.56-2.22-9.82-4.58-20.23 15.43-37.48a1.78 1.78 0 00.11-2.54 1.83 1.83 0 00-2.57-.19c-21.63 18.64-19 30.1-16.56 40.95 1.06 4.56 2 9.09.82 13.89a1.83 1.83 0 003.54.93zM1075.89 463.07a16.12 16.12 0 01-3.78 3.3 12.65 12.65 0 01-8.61 1.95c-3.21-.44-6.65-2.13-10.09-5.43-5-4.77-9.88-12.79-14-25 4.48 1.12 12.64 2.51 19.9.29 6.14-1.88 11-1.64 14.48 0a11.35 11.35 0 013.93 2.93 12.29 12.29 0 012.34 4.23 16.41 16.41 0 01.44 7.78 29.12 29.12 0 013.28 2.23 20.69 20.69 0 00-.23-11.12 15.82 15.82 0 00-3.08-5.5 15 15 0 00-5.2-3.89c-4.29-1.95-10-2.29-17.11-.11-8.9 2.72-19.55-.78-20.84-1.25a1.83 1.83 0 00-2.41.93 1.77 1.77 0 00-.07 1.24c4.61 14.74 10.28 24.25 16.07 29.84 4 3.87 8.2 5.88 12.13 6.46a16.29 16.29 0 0011.1-2.51 19.84 19.84 0 004.51-4l-.22-.23a20.55 20.55 0 00-2.54-2.14z" class="cls-2"/><path d="M1095.52 486.7c-5.7-28-17-31.62-27.73-35-4.55-1.44-9-2.84-12.56-6.34a1.83 1.83 0 00-2.56.25 1.77 1.77 0 000 2.28c4.21 4.1 9 5.64 14 7.22 9.7 3.12 20 6.38 25.24 32.28a1.85 1.85 0 002.15 1.44 1.78 1.78 0 001.46-2.13zM1032.14 492.57c1.34-5.37 1-9.91-.55-13.57a16.38 16.38 0 00-7.81-8.27 20.83 20.83 0 00-5.75-1.92l-.11.3a18.66 18.66 0 00-.59 3.24 16.92 16.92 0 014.8 1.58 12.69 12.69 0 016.09 6.38c1.24 3 1.52 6.74.38 11.31-1.65 6.6-6.17 14.74-14.79 24.37-1.29-4.39-4.22-12.07-9.85-17.2-4.79-4.35-7-8.59-7.4-12.38a11 11 0 01.52-4.77 11.87 11.87 0 012.54-4.1 16.68 16.68 0 016.59-4.21 28.53 28.53 0 01.34-3.91 20.89 20.89 0 00-9.61 5.67 15.38 15.38 0 00-3.26 5.32 14.51 14.51 0 00-.77 6.37c.46 4.63 3.09 9.72 8.58 14.72 7.34 6.66 9.56 18.44 9.58 18.56a1.83 1.83 0 002.11 1.48 1.77 1.77 0 001-.55c10.59-11.19 16.04-20.72 17.96-28.42zM1082.14 507a1.84 1.84 0 00-2.25-1.28c-5.67 1.52-9.4 4.89-13.23 8.35-7.47 6.71-15.39 13.88-40.65 5.2a1.8 1.8 0 10-1.17 3.41c27.33 9.35 36.05 1.5 44.31-6 3.49-3.14 6.9-6.22 11.72-7.49a1.79 1.79 0 001.27-2.19z" class="cls-2"/><path d="M1100.35 497.18a1.91 1.91 0 00-1-.59v.07c-15.17-3.55-26.29-3.52-34.06-1.37-5.39 1.5-9.18 4-11.6 7.14a15.79 15.79 0 00-3.28 10.74 20.12 20.12 0 001.25 5.88l.31-.08a20.8 20.8 0 003.14-1.08 16.4 16.4 0 01-1.06-4.88 12.29 12.29 0 012.57-8.38c2-2.53 5.13-4.61 9.72-5.9 6.6-1.8 16-2 28.85.68-3.19 3.27-8.42 9.51-10 16.89-1.37 6.22-4 10.24-7.09 12.44a11.26 11.26 0 01-4.5 1.87 12.06 12.06 0 01-4.86-.15 17 17 0 01-7-3.58 29.83 29.83 0 01-3.59 1.65A21.48 21.48 0 001068 534a16.3 16.3 0 006.3.18 15.07 15.07 0 006-2.49c3.81-2.68 6.91-7.42 8.52-14.59 2.12-9.58 11.39-17.31 11.41-17.33a1.8 1.8 0 00.12-2.59z" class="cls-2"/></g><g class="cls-1"><path d="M836.83 316.84c-.5-5.48-3-9.48-5.57-13.59-5.06-8-10.41-16.52 1.67-38.28a1.72 1.72 0 00-3-1.63c-13.07 23.5-7.16 32.86-1.58 41.72 2.37 3.72 4.65 7.44 5.11 12.08a1.7 1.7 0 103.39-.3zM877.9 265a16 16 0 01-2.27 4.15 11.81 11.81 0 01-6.94 4.48c-3 .65-6.5.25-10.55-1.59-5.87-2.64-12.7-8.2-20.21-17.77 4.28-.43 11.87-1.81 17.53-6.11 4.79-3.64 9.11-5 12.69-4.65a10.34 10.34 0 014.36 1.35 11.41 11.41 0 013.4 3 15.68 15.68 0 012.84 6.78 26.15 26.15 0 013.58.93 19.61 19.61 0 00-3.72-9.81 14.81 14.81 0 00-4.43-3.91 13.8 13.8 0 00-5.79-1.79c-4.37-.36-9.5 1.17-15 5.38-6.93 5.27-17.37 5.58-18.65 5.58a1.71 1.71 0 00-1.82 1.6 1.67 1.67 0 00.33 1.12c8.7 11.63 16.66 18.27 23.5 21.38 4.78 2.15 9 2.6 12.68 1.86a15.15 15.15 0 008.93-5.79 18.9 18.9 0 002.71-5l-.27-.13a18.85 18.85 0 00-2.9-1.06z" class="cls-2"/><path d="M902.56 279.75c-13.85-23.07-24.91-22.65-35.36-22.24-4.44.18-8.77.35-13-1.62a1.7 1.7 0 00-1.43 3.07c5 2.3 9.71 2.12 14.56 1.93 9.48-.34 19.52-.73 32.31 20.61a1.71 1.71 0 102.93-1.75zM848.87 305.29c-.52-5.2-2.27-9.12-4.77-11.88a15.17 15.17 0 00-9.45-4.86 19.46 19.46 0 00-5.65.14v.3a18.72 18.72 0 00.5 3.07 15.51 15.51 0 014.71-.13 11.76 11.76 0 017.36 3.72c2 2.24 3.45 5.51 3.9 9.93.64 6.39-.75 15.08-5.26 26.41-2.52-3.49-7.51-9.38-14.06-12.13-5.58-2.34-8.88-5.39-10.4-8.64a10.36 10.36 0 01-1-4.41 11.16 11.16 0 01.93-4.45 15.62 15.62 0 014.44-5.86 27.41 27.41 0 01-.93-3.59 19.71 19.71 0 00-6.69 8.09 14.81 14.81 0 00-1.18 5.77 13.92 13.92 0 001.35 5.91c1.86 4 5.77 7.65 12.17 10.33 8.53 3.57 14.2 13.34 14.25 13.44a1.7 1.7 0 003-.18c5.77-13.27 7.53-23.51 6.78-30.98zM897.26 302.13a1.7 1.7 0 00-2.37-.42c-4.49 3.17-6.7 7.37-9 11.67-4.43 8.36-9.1 17.28-34 17.66a1.7 1.7 0 100 3.4c26.91-.45 32.07-10.22 37-19.52 2.06-3.91 4.08-7.74 7.9-10.42a1.7 1.7 0 00.47-2.37z" class="cls-2"/><path d="M910.1 287.53a1.71 1.71 0 00-1-.21h.05c-14.42 1.71-24.15 5.3-30.28 9.71-4.25 3.05-6.78 6.5-7.91 10.06a15.1 15.1 0 00.52 10.61 19.09 19.09 0 002.95 4.82l.24-.17a16.85 16.85 0 002.41-2 15.34 15.34 0 01-2.46-4 11.79 11.79 0 01-.4-8.27c.93-2.89 3-5.75 6.65-8.37 5.22-3.72 13.43-6.89 25.5-8.64-1.76 3.93-4.37 11.15-3.47 18.23.76 6-.23 10.38-2.29 13.34a10.32 10.32 0 01-3.34 3.1 11.43 11.43 0 01-4.31 1.43 15.51 15.51 0 01-7.3-.93 28.27 28.27 0 01-2.63 2.62 19.77 19.77 0 0010.34 1.68 14.74 14.74 0 005.58-1.86 13.81 13.81 0 004.44-4.13c2.5-3.6 3.72-8.81 2.86-15.69-1.17-9.21 4.51-19.05 4.53-19.08a1.71 1.71 0 00-.68-2.25z" class="cls-2"/></g><g class="cls-1"><path d="M701.67 743.44a46.09 46.09 0 0123.67 6.71 51.3 51.3 0 0112.35 10.39l-12.22-.4a2.6 2.6 0 00-.17 5.2l16.91.56a2.6 2.6 0 003.39-3.4l-.6-16.9a2.6 2.6 0 10-5.2.11v.06l.33 9.75a56.94 56.94 0 00-12.13-9.83 51.26 51.26 0 00-26.35-7.45 50.3 50.3 0 00-37.8 16.9C655.18 764.8 650 777.8 650 789.92a2.6 2.6 0 005.2 0c0-10.87 4.69-22.57 12.55-31.3a45.14 45.14 0 0133.92-15.18zM751.4 787.32a2.59 2.59 0 00-2.6 2.6c0 10.86-4.69 22.56-12.55 31.29a45.14 45.14 0 01-33.93 15.18 46.09 46.09 0 01-23.67-6.71 51.3 51.3 0 01-12.35-10.39l12.22.4a2.6 2.6 0 00.17-5.2l-16.91-.55a2.59 2.59 0 00-3.39 3.39l.56 16.91a2.6 2.6 0 105.2-.12v-.06l-.33-9.75a57 57 0 0012.18 9.84 51.35 51.35 0 0026.35 7.44 50.3 50.3 0 0037.8-16.9C748.81 815 754 802 754 789.92a2.59 2.59 0 00-2.6-2.6z" class="cls-2"/></g><g class="cls-1"><path d="M320.67 960.44a46.09 46.09 0 0123.67 6.71 51.3 51.3 0 0112.35 10.39l-12.22-.4a2.6 2.6 0 00-.17 5.2l16.91.56a2.6 2.6 0 003.39-3.4l-.6-16.9a2.6 2.6 0 10-5.2.11v.06l.33 9.75a56.94 56.94 0 00-12.13-9.83 51.26 51.26 0 00-26.35-7.45 50.3 50.3 0 00-37.8 16.9c-8.67 9.66-13.85 22.66-13.85 34.78a2.6 2.6 0 005.2 0c0-10.87 4.69-22.57 12.55-31.3a45.14 45.14 0 0133.92-15.18zM370.4 1004.32a2.59 2.59 0 00-2.6 2.6c0 10.86-4.69 22.56-12.55 31.29a45.14 45.14 0 01-33.93 15.18 46.09 46.09 0 01-23.67-6.71 51.3 51.3 0 01-12.35-10.39l12.22.4a2.6 2.6 0 00.17-5.2l-16.91-.55a2.59 2.59 0 00-3.39 3.39l.56 16.91a2.6 2.6 0 105.2-.12v-.06l-.33-9.75a57 57 0 0012.15 9.84 51.35 51.35 0 0026.35 7.44 50.3 50.3 0 0037.8-16.9C367.81 1032 373 1019 373 1006.92a2.59 2.59 0 00-2.6-2.6z" class="cls-2"/></g><g class="cls-1"><path d="M1516.67 37.44a46.09 46.09 0 0123.67 6.71 51.3 51.3 0 0112.35 10.39l-12.22-.4a2.6 2.6 0 00-.17 5.2l16.91.56a2.6 2.6 0 003.39-3.4l-.6-16.9a2.6 2.6 0 10-5.2.11v.06l.33 9.75a56.94 56.94 0 00-12.13-9.83 51.26 51.26 0 00-26.35-7.45 50.3 50.3 0 00-37.8 16.9C1470.18 58.8 1465 71.8 1465 83.92a2.6 2.6 0 005.2 0c0-10.87 4.69-22.57 12.55-31.3a45.14 45.14 0 0133.92-15.18zM1566.4 81.32a2.59 2.59 0 00-2.6 2.6c0 10.86-4.69 22.56-12.55 31.29a45.14 45.14 0 01-33.93 15.18 46.09 46.09 0 01-23.67-6.71 51.3 51.3 0 01-12.35-10.39l12.22.4a2.6 2.6 0 00.17-5.2l-16.91-.55a2.59 2.59 0 00-3.39 3.39l.56 16.91a2.6 2.6 0 005.2-.12v-.06l-.33-9.75a57 57 0 0012.15 9.84 51.35 51.35 0 0026.35 7.44 50.3 50.3 0 0037.8-16.9C1563.81 109 1569 96 1569 83.92a2.59 2.59 0 00-2.6-2.6z" class="cls-2"/></g><g class="cls-1"><path d="M1548.29 505.06a35.91 35.91 0 0118.46 5.23 40.2 40.2 0 019.63 8.1l-9.53-.31a2 2 0 10-.14 4l13.19.44a2 2 0 002.2-.45 2 2 0 00.44-2.2l-.43-13.18a2 2 0 00-4.06.09l.26 7.61a43.75 43.75 0 00-9.48-7.67 40 40 0 00-20.54-5.81 39.22 39.22 0 00-29.48 13.18c-6.81 7.62-10.81 17.76-10.81 27.21a2 2 0 004.06 0c0-8.48 3.65-17.6 9.78-24.4a35.19 35.19 0 0126.45-11.84zM1587.07 539.27a2 2 0 00-2 2c0 8.47-3.66 17.59-9.78 24.4a35.24 35.24 0 01-26.46 11.84 36 36 0 01-18.46-5.23 39.85 39.85 0 01-9.63-8.11l9.53.32a2 2 0 00.13-4.06l-13.18-.43a2 2 0 00-2.65 2.65l.44 13.18a2 2 0 004-.09l-.25-7.6a44.54 44.54 0 009.47 7.67 40 40 0 0020.55 5.8 39.21 39.21 0 0029.47-13.18c6.78-7.53 10.82-17.66 10.82-27.11a2 2 0 00-2-2.05z" class="cls-2"/></g><g class="cls-1"><path d="M351.67 259.44a46.09 46.09 0 0123.67 6.71 51.3 51.3 0 0112.35 10.39l-12.22-.4a2.6 2.6 0 00-.17 5.2l16.91.56a2.6 2.6 0 003.39-3.4l-.6-16.9a2.6 2.6 0 10-5.2.11v.06l.33 9.75a56.94 56.94 0 00-12.13-9.83 51.26 51.26 0 00-26.35-7.45 50.3 50.3 0 00-37.8 16.9C305.18 280.8 300 293.8 300 305.92a2.6 2.6 0 005.2 0c0-10.87 4.69-22.57 12.55-31.3a45.14 45.14 0 0133.92-15.18zM401.4 303.32a2.59 2.59 0 00-2.6 2.6c0 10.86-4.69 22.56-12.55 31.29a45.14 45.14 0 01-33.93 15.18 46.09 46.09 0 01-23.67-6.71 51.3 51.3 0 01-12.35-10.39l12.22.4a2.6 2.6 0 00.17-5.2l-16.91-.55a2.59 2.59 0 00-3.39 3.39l.56 16.91a2.6 2.6 0 105.2-.12v-.06l-.33-9.75a57 57 0 0012.18 9.84 51.35 51.35 0 0026.35 7.44 50.3 50.3 0 0037.8-16.9C398.81 331 404 318 404 305.92a2.59 2.59 0 00-2.6-2.6z" class="cls-2"/></g><g class="cls-1"><path d="M646 636.32l-6.8-1.16a38.11 38.11 0 00-2.74-6.6l4-5.62a6 6 0 00-.65-7.72l-6-6a6 6 0 00-4.24-1.77 5.88 5.88 0 00-3.46 1.12l-5.64 4a37.54 37.54 0 00-6.85-2.82L612.5 603a6 6 0 00-5.92-5h-8.53a6 6 0 00-5.91 5l-1.14 6.9a37.24 37.24 0 00-6.59 2.77l-5.57-4a6 6 0 00-7.72.65l-6.06 6a6 6 0 00-.65 7.72l4.06 5.69a37.34 37.34 0 00-2.7 6.63l-6.77 1.16a6 6 0 00-5 5.92V651a6 6 0 005 5.92l6.89 1.17a38 38 0 002.78 6.59l-4 5.55a6 6 0 00.65 7.72l6 6a6 6 0 007.7.65l5.69-4.06a38 38 0 006.4 2.64l1.19 6.82a6 6 0 005.91 5h8.56a6 6 0 005.91-5l1.16-6.81a37.79 37.79 0 006.6-2.74l5.62 4a5.92 5.92 0 003.48 1.12 6 6 0 004.24-1.76l6-6a6 6 0 00.65-7.72l-4-5.64a38.3 38.3 0 002.74-6.6l6.8-1.14a6 6 0 005-5.91v-8.53a5.91 5.91 0 00-4.97-5.95zm-.46 14.45a.52.52 0 01-.45.52l-8.51 1.42a2.73 2.73 0 00-2.19 2 32.5 32.5 0 01-3.52 8.49 2.73 2.73 0 00.12 3l5 7a.53.53 0 01-.06.69l-6 6a.54.54 0 01-.39.16.49.49 0 01-.3-.1l-7-5a2.73 2.73 0 00-3-.12 32.53 32.53 0 01-8.49 3.53 2.67 2.67 0 00-2 2.18l-1.44 8.51a.52.52 0 01-.52.45h-8.54a.52.52 0 01-.52-.45l-1.42-8.51a2.7 2.7 0 00-2-2.18A33.69 33.69 0 01586 675a2.87 2.87 0 00-1.38-.36 2.67 2.67 0 00-1.58.5l-7.1 5.05a.6.6 0 01-.3.1.54.54 0 01-.38-.16l-6-6a.53.53 0 01-.06-.69l5-7a2.77 2.77 0 00.12-3 32.06 32.06 0 01-3.56-8.47 2.81 2.81 0 00-2.19-2l-8.57-1.45a.53.53 0 01-.45-.53v-8.53a.52.52 0 01.45-.53l8.45-1.42a2.75 2.75 0 002.21-2A32 32 0 01574 630a2.7 2.7 0 00-.14-3l-5-7.09a.56.56 0 01.06-.69l6-6a.53.53 0 01.39-.16.49.49 0 01.3.1l7 5a2.77 2.77 0 003 .12 32.06 32.06 0 018.47-3.56 2.81 2.81 0 002-2.19l1.46-8.57a.52.52 0 01.52-.45h8.53a.52.52 0 01.53.45l1.42 8.45a2.75 2.75 0 002 2.21 33 33 0 018.7 3.56 2.73 2.73 0 003-.12l7-5a.53.53 0 01.3-.11.55.55 0 01.39.17l6 6a.55.55 0 01.07.69l-5 7a2.73 2.73 0 00-.12 3 32.64 32.64 0 013.52 8.49 2.7 2.7 0 002.19 2l8.51 1.44a.52.52 0 01.45.53v8.53z" class="cls-2"/><path d="M602.51 625.56a20.93 20.93 0 1020.93 20.93 20.94 20.94 0 00-20.93-20.93zm0 36.39A15.46 15.46 0 11618 646.49 15.47 15.47 0 01602.51 662z" class="cls-2"/></g><g class="cls-1"><path d="M1883.29 553.34l-6.46-1.09a36.14 36.14 0 00-2.59-6.27l3.8-5.32a5.65 5.65 0 00-.61-7.32l-5.73-5.73a5.66 5.66 0 00-7.3-.62l-5.34 3.81a35.69 35.69 0 00-6.5-2.67l-1.08-6.38a5.67 5.67 0 00-5.61-4.75h-8.09a5.67 5.67 0 00-5.61 4.75l-1.12 6.53a35.18 35.18 0 00-6.24 2.64l-5.29-3.81a5.67 5.67 0 00-7.32.61l-5.74 5.73a5.69 5.69 0 00-.62 7.32l3.84 5.4a36 36 0 00-2.55 6.29l-6.38 1.08a5.67 5.67 0 00-4.75 5.61v8.09a5.68 5.68 0 004.75 5.61l6.53 1.11a35.66 35.66 0 002.63 6.25l-3.78 5.27a5.66 5.66 0 00.61 7.32l5.73 5.73a5.68 5.68 0 004 1.67 5.58 5.58 0 003.28-1.06l5.4-3.84a37 37 0 006.08 2.5l1.07 6.45a5.68 5.68 0 005.62 4.75h8.11a5.68 5.68 0 005.61-4.75l1.09-6.45a37 37 0 006.27-2.6l5.32 3.81a5.66 5.66 0 003.31 1 5.6 5.6 0 004-1.67l5.73-5.73a5.69 5.69 0 00.62-7.32l-3.78-5.29a36.38 36.38 0 002.6-6.27l6.45-1.07a5.68 5.68 0 004.75-5.61V559a5.61 5.61 0 00-4.71-5.66zm-.44 13.71a.5.5 0 01-.42.5l-8.08 1.34a2.58 2.58 0 00-2.07 1.9 30.75 30.75 0 01-3.35 8.06 2.6 2.6 0 00.12 2.82l4.75 6.69a.53.53 0 01-.06.65l-5.73 5.73a.49.49 0 01-.36.15.46.46 0 01-.29-.09l-6.67-4.75a2.59 2.59 0 00-2.83-.11 30.86 30.86 0 01-8 3.34 2.55 2.55 0 00-1.9 2.07l-1.36 8.08a.5.5 0 01-.5.42h-8.1a.5.5 0 01-.5-.42l-1.34-8.08a2.58 2.58 0 00-1.9-2.07 32 32 0 01-7.88-3.23 2.71 2.71 0 00-1.31-.35 2.51 2.51 0 00-1.5.49l-6.73 4.78a.53.53 0 01-.28.1.52.52 0 01-.37-.16l-5.73-5.72a.53.53 0 01-.05-.66l4.72-6.63a2.61 2.61 0 00.12-2.84 30.42 30.42 0 01-3.38-8 2.63 2.63 0 00-2.08-1.9l-8.13-1.38a.5.5 0 01-.42-.5v-8.09a.5.5 0 01.42-.5l8-1.35a2.6 2.6 0 002.09-1.92 30.79 30.79 0 013.29-8.07 2.56 2.56 0 00-.14-2.81l-4.78-6.72a.52.52 0 01.06-.66l5.72-5.72a.49.49 0 01.37-.16.48.48 0 01.29.1l6.63 4.73a2.63 2.63 0 002.84.11 30.5 30.5 0 018-3.38 2.66 2.66 0 001.91-2.08l1.38-8.13a.5.5 0 01.5-.42h8.09a.5.5 0 01.5.42l1.35 8a2.58 2.58 0 001.92 2.09 31.38 31.38 0 018.24 3.38 2.6 2.6 0 002.83-.11l6.63-4.77a.62.62 0 01.29-.09.52.52 0 01.36.15l5.73 5.73a.53.53 0 01.06.65l-4.75 6.67a2.59 2.59 0 00-.12 2.83 30.55 30.55 0 013.35 8.05 2.53 2.53 0 002.07 1.9l8.08 1.37a.49.49 0 01.42.49v8.1z" class="cls-2"/><path d="M1842 543.14a19.85 19.85 0 1019.86 19.86 19.86 19.86 0 00-19.86-19.86zm0 34.51a14.66 14.66 0 1114.67-14.65 14.67 14.67 0 01-14.67 14.65z" class="cls-2"/></g><g class="cls-1"><path d="M380 518.32l-6.8-1.16a38.11 38.11 0 00-2.74-6.6l4-5.62a6 6 0 00-.65-7.72l-6-6a6 6 0 00-4.24-1.77 5.88 5.88 0 00-3.46 1.12l-5.64 4a37.54 37.54 0 00-6.85-2.82L346.5 485a6 6 0 00-5.92-5h-8.53a6 6 0 00-5.91 5l-1.14 6.9a37.24 37.24 0 00-6.59 2.77l-5.57-4a6 6 0 00-7.72.65l-6.06 6a6 6 0 00-.65 7.72l4.06 5.69a37.34 37.34 0 00-2.7 6.63l-6.77 1.16a6 6 0 00-5 5.92V533a6 6 0 005 5.92l6.89 1.17a38 38 0 002.78 6.59l-4 5.55a6 6 0 00.65 7.72l6 6a6 6 0 007.7.65l5.69-4.06a38 38 0 006.4 2.64l1.19 6.82a6 6 0 005.91 5h8.56a6 6 0 005.91-5l1.16-6.81a37.79 37.79 0 006.6-2.74l5.62 4a5.92 5.92 0 003.48 1.12 6 6 0 004.24-1.76l6-6a6 6 0 00.65-7.72l-4-5.64a38.3 38.3 0 002.74-6.6l6.8-1.14a6 6 0 005-5.91v-8.53a5.91 5.91 0 00-4.97-5.95zm-.46 14.45a.52.52 0 01-.45.52l-8.51 1.42a2.73 2.73 0 00-2.19 2 32.5 32.5 0 01-3.52 8.49 2.73 2.73 0 00.12 3l5 7a.53.53 0 01-.06.69l-6 6a.54.54 0 01-.39.16.49.49 0 01-.3-.1l-7-5a2.73 2.73 0 00-3-.12 32.53 32.53 0 01-8.49 3.53 2.67 2.67 0 00-2 2.18l-1.44 8.51a.52.52 0 01-.52.45h-8.54a.52.52 0 01-.52-.45l-1.42-8.51a2.7 2.7 0 00-2-2.18A33.69 33.69 0 01320 557a2.87 2.87 0 00-1.38-.36 2.67 2.67 0 00-1.58.5l-7.1 5.05a.6.6 0 01-.3.1.54.54 0 01-.38-.16l-6-6a.53.53 0 01-.06-.69l5-7a2.77 2.77 0 00.12-3 32.06 32.06 0 01-3.56-8.47 2.81 2.81 0 00-2.19-2l-8.57-1.45a.53.53 0 01-.45-.53v-8.53a.52.52 0 01.45-.53l8.45-1.42a2.75 2.75 0 002.21-2A32 32 0 01308 512a2.7 2.7 0 00-.14-3l-5-7.09a.56.56 0 01.06-.69l6-6a.53.53 0 01.39-.16.49.49 0 01.3.1l7 5a2.77 2.77 0 003 .12 32.06 32.06 0 018.47-3.56 2.81 2.81 0 002-2.19l1.46-8.57a.52.52 0 01.52-.45h8.53a.52.52 0 01.53.45l1.42 8.45a2.75 2.75 0 002 2.21 33 33 0 018.7 3.56 2.73 2.73 0 003-.12l7-5a.53.53 0 01.3-.11.55.55 0 01.39.17l6 6a.55.55 0 01.07.69l-5 7a2.73 2.73 0 00-.12 3 32.64 32.64 0 013.52 8.49 2.7 2.7 0 002.19 2l8.51 1.44a.52.52 0 01.45.53v8.53z" class="cls-2"/><path d="M336.51 507.56a20.93 20.93 0 1020.93 20.93 20.94 20.94 0 00-20.93-20.93zm0 36.39A15.46 15.46 0 11352 528.49 15.47 15.47 0 01336.51 544z" class="cls-2"/></g><g class="cls-1"><path d="M848 76.32l-6.8-1.16a38.11 38.11 0 00-2.74-6.6l4-5.62a6 6 0 00-.65-7.72l-6-6a6 6 0 00-4.24-1.77 5.88 5.88 0 00-3.46 1.12l-5.64 4a37.54 37.54 0 00-6.85-2.82L814.5 43a6 6 0 00-5.92-5h-8.53a6 6 0 00-5.91 5L793 49.9a37.24 37.24 0 00-6.59 2.77l-5.57-4a6 6 0 00-7.72.65l-6.06 6a6 6 0 00-.65 7.72l4.06 5.69a37.34 37.34 0 00-2.7 6.63L761 76.52a6 6 0 00-5 5.92V91a6 6 0 005 5.92l6.89 1.17a38 38 0 002.78 6.59l-4 5.55a6 6 0 00.65 7.72l6 6a6 6 0 007.7.65l5.69-4.06a38 38 0 006.4 2.64l1.19 6.82a6 6 0 005.91 5h8.56a6 6 0 005.91-5l1.16-6.81a37.79 37.79 0 006.6-2.74l5.62 4a5.92 5.92 0 003.48 1.12 6 6 0 004.24-1.76l6-6a6 6 0 00.65-7.72l-4-5.64a38.3 38.3 0 002.74-6.6l6.8-1.14a6 6 0 005-5.91v-8.56a5.91 5.91 0 00-4.97-5.92zm-.46 14.45a.52.52 0 01-.45.52l-8.51 1.42a2.73 2.73 0 00-2.19 2 32.5 32.5 0 01-3.52 8.49 2.73 2.73 0 00.12 3l5 7a.53.53 0 01-.06.69l-6 6a.54.54 0 01-.39.16.49.49 0 01-.3-.1l-7-5a2.73 2.73 0 00-3-.12 32.53 32.53 0 01-8.49 3.53 2.67 2.67 0 00-2 2.18l-1.44 8.51a.52.52 0 01-.52.45h-8.54a.52.52 0 01-.52-.45l-1.42-8.51a2.7 2.7 0 00-2-2.18A33.69 33.69 0 01788 115a2.87 2.87 0 00-1.38-.36 2.67 2.67 0 00-1.58.5l-7.1 5a.6.6 0 01-.3.1.54.54 0 01-.38-.16l-6-6a.53.53 0 01-.06-.69l5-7a2.77 2.77 0 00.12-3 32.06 32.06 0 01-3.64-8.39 2.81 2.81 0 00-2.19-2l-8.57-1.45a.53.53 0 01-.45-.53v-8.58a.52.52 0 01.45-.53l8.45-1.42a2.75 2.75 0 002.21-2A32 32 0 01776 70a2.7 2.7 0 00-.14-3l-5-7.09a.56.56 0 01.06-.69l6-6a.53.53 0 01.39-.16.49.49 0 01.3.1l7 5a2.77 2.77 0 003 .12 32.06 32.06 0 018.47-3.56 2.81 2.81 0 002-2.19l1.46-8.57a.52.52 0 01.52-.45h8.53a.52.52 0 01.53.45l1.42 8.45a2.75 2.75 0 002 2.21 33 33 0 018.7 3.56 2.73 2.73 0 003-.12l7-5a.53.53 0 01.3-.11.55.55 0 01.46.05l6 6a.55.55 0 01.07.69l-5 7a2.73 2.73 0 00-.12 3 32.64 32.64 0 013.52 8.49 2.7 2.7 0 002.19 2l8.51 1.44a.52.52 0 01.45.53v8.53z" class="cls-2"/><path d="M804.51 65.56a20.93 20.93 0 1020.93 20.93 20.94 20.94 0 00-20.93-20.93zm0 36.39A15.46 15.46 0 11820 86.49 15.47 15.47 0 01804.51 102z" class="cls-2"/></g><g class="cls-1"><path d="M883 901.32l-6.8-1.16a38.11 38.11 0 00-2.74-6.6l4-5.62a6 6 0 00-.65-7.72l-6-6a6 6 0 00-4.24-1.77 5.88 5.88 0 00-3.46 1.12l-5.64 4a37.54 37.54 0 00-6.85-2.82L849.5 868a6 6 0 00-5.92-5h-8.53a6 6 0 00-5.91 5l-1.14 6.9a37.24 37.24 0 00-6.59 2.77l-5.57-4a6 6 0 00-7.72.65l-6.06 6a6 6 0 00-.65 7.72l4.06 5.69a37.34 37.34 0 00-2.7 6.63l-6.77 1.16a6 6 0 00-5 5.92V916a6 6 0 005 5.92l6.89 1.17a38 38 0 002.78 6.59l-4 5.55a6 6 0 00.65 7.72l6 6a6 6 0 007.7.65l5.69-4.06a38 38 0 006.4 2.64l1.19 6.82a6 6 0 005.91 5h8.56a6 6 0 005.91-5l1.16-6.81a37.79 37.79 0 006.6-2.74l5.62 4a5.92 5.92 0 003.48 1.12 6 6 0 004.24-1.76l6-6a6 6 0 00.65-7.72l-4-5.64a38.3 38.3 0 002.74-6.6l6.8-1.14a6 6 0 005-5.91v-8.53a5.91 5.91 0 00-4.97-5.95zm-.46 14.45a.52.52 0 01-.45.52l-8.51 1.42a2.73 2.73 0 00-2.19 2 32.5 32.5 0 01-3.52 8.49 2.73 2.73 0 00.12 3l5 7a.53.53 0 01-.06.69l-6 6a.54.54 0 01-.39.16.49.49 0 01-.3-.1l-7-5a2.73 2.73 0 00-3-.12 32.53 32.53 0 01-8.49 3.53 2.67 2.67 0 00-2 2.18l-1.44 8.51a.52.52 0 01-.52.45h-8.54a.52.52 0 01-.52-.45l-1.42-8.51a2.7 2.7 0 00-2-2.18A33.69 33.69 0 01823 940a2.87 2.87 0 00-1.38-.36 2.67 2.67 0 00-1.58.5l-7.1 5.05a.6.6 0 01-.3.1.54.54 0 01-.38-.16l-6-6a.53.53 0 01-.06-.69l5-7a2.77 2.77 0 00.12-3 32.06 32.06 0 01-3.56-8.47 2.81 2.81 0 00-2.19-2l-8.57-1.45a.53.53 0 01-.45-.53v-8.53a.52.52 0 01.45-.53l8.45-1.42a2.75 2.75 0 002.21-2A32 32 0 01811 895a2.7 2.7 0 00-.14-3l-5-7.09a.56.56 0 01.06-.69l6-6a.53.53 0 01.39-.16.49.49 0 01.3.1l7 5a2.77 2.77 0 003 .12 32.06 32.06 0 018.47-3.56 2.81 2.81 0 002-2.19l1.46-8.57a.52.52 0 01.52-.45h8.53a.52.52 0 01.53.45l1.42 8.45a2.75 2.75 0 002 2.21 33 33 0 018.7 3.56 2.73 2.73 0 003-.12l7-5a.53.53 0 01.3-.11.55.55 0 01.39.17l6 6a.55.55 0 01.07.69l-5 7a2.73 2.73 0 00-.12 3 32.64 32.64 0 013.52 8.49 2.7 2.7 0 002.19 2l8.51 1.44a.52.52 0 01.45.53v8.53z" class="cls-2"/><path d="M839.51 890.56a20.93 20.93 0 1020.93 20.93 20.94 20.94 0 00-20.93-20.93zm0 36.39A15.46 15.46 0 11855 911.49 15.47 15.47 0 01839.51 927z" class="cls-2"/></g><g class="cls-1"><path d="M1847 175.32l-6.8-1.16a38.11 38.11 0 00-2.74-6.6l4-5.62a6 6 0 00-.65-7.72l-6-6a6 6 0 00-4.24-1.77 5.88 5.88 0 00-3.46 1.12l-5.64 4a37.54 37.54 0 00-6.85-2.82l-1.12-6.75a6 6 0 00-5.92-5h-8.53a6 6 0 00-5.91 5l-1.14 6.9a37.24 37.24 0 00-6.59 2.77l-5.57-4a6 6 0 00-7.72.65l-6.06 6a6 6 0 00-.65 7.72l4.06 5.69a37.34 37.34 0 00-2.7 6.63l-6.73 1.13a6 6 0 00-5 5.92V190a6 6 0 005 5.92l6.89 1.17a38 38 0 002.78 6.59l-4 5.55a6 6 0 00.65 7.72l6 6a6 6 0 007.7.65l5.69-4.06a38 38 0 006.4 2.64l1.14 6.81a6 6 0 005.91 5h8.56a6 6 0 005.91-5l1.16-6.81a37.79 37.79 0 006.6-2.74l5.62 4a5.92 5.92 0 003.48 1.12 6 6 0 004.24-1.76l6-6a6 6 0 00.65-7.72l-4-5.64a38.3 38.3 0 002.74-6.6l6.8-1.14a6 6 0 005-5.91v-8.53a5.91 5.91 0 00-4.96-5.94zm-.46 14.45a.52.52 0 01-.45.52l-8.51 1.42a2.73 2.73 0 00-2.19 2 32.5 32.5 0 01-3.52 8.49 2.73 2.73 0 00.12 3l5 7.05a.53.53 0 01-.06.69l-6 6a.54.54 0 01-.39.16.49.49 0 01-.3-.1l-7-5a2.73 2.73 0 00-3-.12 32.53 32.53 0 01-8.49 3.53 2.67 2.67 0 00-2 2.18l-1.44 8.51a.52.52 0 01-.52.45h-8.54a.52.52 0 01-.52-.45l-1.42-8.51a2.7 2.7 0 00-2-2.18A33.69 33.69 0 011787 214a2.87 2.87 0 00-1.38-.36 2.67 2.67 0 00-1.58.5l-7.1 5.05a.6.6 0 01-.3.1.54.54 0 01-.38-.16l-6-6a.53.53 0 01-.06-.69l5-7a2.77 2.77 0 00.12-3 32.06 32.06 0 01-3.56-8.47 2.81 2.81 0 00-2.19-2l-8.57-1.45a.53.53 0 01-.45-.53v-8.53a.52.52 0 01.45-.53l8.45-1.42a2.75 2.75 0 002.21-2A32 32 0 011775 169a2.7 2.7 0 00-.14-3l-5.05-7.09a.56.56 0 01.06-.69l6-6a.53.53 0 01.39-.16.49.49 0 01.3.1l7 5a2.77 2.77 0 003 .12 32.06 32.06 0 018.47-3.56 2.81 2.81 0 002-2.19l1.46-8.57a.52.52 0 01.52-.45h8.53a.52.52 0 01.53.45l1.42 8.45a2.75 2.75 0 002 2.21 33 33 0 018.7 3.56 2.73 2.73 0 003-.12l7-5a.53.53 0 01.3-.11.55.55 0 01.39.17l6 6a.55.55 0 01.07.69l-5 7a2.73 2.73 0 00-.12 3 32.64 32.64 0 013.52 8.49 2.7 2.7 0 002.19 2l8.51 1.44a.52.52 0 01.45.53v8.53z" class="cls-2"/><path d="M1803.51 164.56a20.93 20.93 0 1020.93 20.93 20.94 20.94 0 00-20.93-20.93zm0 36.39a15.46 15.46 0 1115.49-15.46 15.47 15.47 0 01-15.49 15.51z" class="cls-2"/></g><g class="cls-1"><path d="M856.63 459.75a16.37 16.37 0 00-13 6.37l-25.12-14a16.22 16.22 0 000-10.8l25.1-14a16.33 16.33 0 10-3.38-9.93 15.89 15.89 0 00.93 5.41l-25.08 14a16.34 16.34 0 100 19.84l25.1 14a16.34 16.34 0 1015.38-10.89zm0-53.6a11.22 11.22 0 11-11.22 11.22 11.23 11.23 0 0111.22-11.22zm-53.46 51.77a11.22 11.22 0 1111.22-11.22 11.23 11.23 0 01-11.22 11.22zm53.46 29.37a11.22 11.22 0 1111.22-11.22 11.23 11.23 0 01-11.22 11.22z" class="cls-2"/></g><g class="cls-1"><path d="M1249.63 398.75a16.37 16.37 0 00-13 6.37l-25.12-14a16.22 16.22 0 000-10.8l25.1-14a16.33 16.33 0 10-3.38-9.93 15.89 15.89 0 00.93 5.41l-25.08 14a16.34 16.34 0 100 19.84l25.1 14a16.34 16.34 0 1015.38-10.89zm0-53.6a11.22 11.22 0 11-11.22 11.22 11.23 11.23 0 0111.22-11.22zm-53.46 51.77a11.22 11.22 0 1111.22-11.22 11.23 11.23 0 01-11.22 11.22zm53.46 29.37a11.22 11.22 0 1111.22-11.22 11.23 11.23 0 01-11.22 11.22z" class="cls-2"/></g><g class="cls-1"><path d="M1837.22 841.6a17.42 17.42 0 00-13.8 6.8l-26.77-14.95a17.44 17.44 0 001-5.75 17.06 17.06 0 00-1-5.77l26.73-14.93a17.4 17.4 0 10-3.6-10.58 17 17 0 001 5.77L1794 817.12a17.4 17.4 0 100 21.14l26.75 15a17.41 17.41 0 1016.39-11.61zm0-57.12a12 12 0 11-12 12 12 12 0 0112-12zm-57 55.18a12 12 0 1112-12 12 12 0 01-11.98 12zm57 31.3a12 12 0 1112-12 12 12 0 01-12 12.04z" class="cls-2"/></g><g class="cls-1"><path d="M1398.59 832.5h-66.67a10.93 10.93 0 00-10.92 10.92v42.28a10.93 10.93 0 0010.92 10.92h30.85V907h-15.38a2.48 2.48 0 100 5h35.73a2.48 2.48 0 000-5h-15.39v-10.38h30.86a10.93 10.93 0 0010.91-10.92v-42.28a10.91 10.91 0 00-10.91-10.92zm-66.67 5h66.69a6 6 0 016 6v35.34H1326v-35.42a6 6 0 015.92-5.96zm66.67 54.2h-66.67a6 6 0 01-6-6v-2h78.58v2a6 6 0 01-5.91 5.96z" class="cls-2"/></g><g class="cls-1"><path d="M1598.6 987l-6-1a34.91 34.91 0 00-2.42-5.86l3.55-5a5.3 5.3 0 00-.57-6.85l-5.36-5.35a5.26 5.26 0 00-6.82-.58l-5 3.56a34.16 34.16 0 00-6.07-2.5l-1-6a5.32 5.32 0 00-5.25-4.44h-7.56a5.31 5.31 0 00-5.25 4.44l-1 6.11a33.16 33.16 0 00-5.84 2.46l-4.94-3.56a5.3 5.3 0 00-6.85.58l-5.37 5.35a5.31 5.31 0 00-.57 6.84l3.59 5a33.25 33.25 0 00-2.39 5.88l-6 1a5.31 5.31 0 00-4.44 5.25v7.67a5.31 5.31 0 004.44 5.25l6.11 1a32.43 32.43 0 002.46 5.84l-3.54 4.92a5.3 5.3 0 00.57 6.85l5.36 5.35a5.27 5.27 0 006.82.57l5-3.59a34.28 34.28 0 005.68 2.34l1 6a5.32 5.32 0 005.25 4.44h7.58a5.31 5.31 0 005.25-4.44l1-6a34.14 34.14 0 005.86-2.43l5 3.56a5.34 5.34 0 003.09 1 5.28 5.28 0 003.76-1.57l5.35-5.35a5.33 5.33 0 00.58-6.85l-3.56-5a34.33 34.33 0 002.43-5.86l6-1a5.31 5.31 0 004.44-5.25v-7.56a5.25 5.25 0 00-4.37-5.22zm-.42 12.81a.47.47 0 01-.39.47l-7.55 1.26a2.42 2.42 0 00-1.94 1.78 28.61 28.61 0 01-3.12 7.52 2.41 2.41 0 00.11 2.64l4.43 6.26a.49.49 0 010 .61l-5.35 5.35a.46.46 0 01-.35.14.44.44 0 01-.27-.09l-6.23-4.43a2.41 2.41 0 00-2.64-.11 28.68 28.68 0 01-7.53 3.12 2.41 2.41 0 00-1.78 1.94l-1.27 7.55a.48.48 0 01-.47.4h-7.56a.47.47 0 01-.47-.4l-1.26-7.55a2.42 2.42 0 00-1.78-1.94 29.78 29.78 0 01-7.36-3 2.46 2.46 0 00-1.22-.33 2.38 2.38 0 00-1.4.45l-6.29 4.48a.58.58 0 01-.27.09.47.47 0 01-.34-.15l-5.36-5.35a.48.48 0 010-.61l4.42-6.2a2.47 2.47 0 00.11-2.66 28.52 28.52 0 01-3.16-7.51 2.47 2.47 0 00-1.94-1.78l-7.6-1.29a.47.47 0 01-.4-.47v-7.6a.47.47 0 01.4-.47l7.49-1.26a2.44 2.44 0 002-1.79 28.47 28.47 0 013.07-7.55 2.4 2.4 0 00-.13-2.62l-4.47-6.29a.48.48 0 010-.61l5.36-5.35a.44.44 0 01.34-.15.48.48 0 01.27.09l6.19 4.42a2.45 2.45 0 002.66.11 28.52 28.52 0 017.51-3.16 2.46 2.46 0 001.78-1.94l1.29-7.6a.48.48 0 01.47-.4h7.57a.46.46 0 01.46.4l1.26 7.49a2.44 2.44 0 001.8 2 28.93 28.93 0 017.7 3.16 2.41 2.41 0 002.64-.11l6.2-4.45a.48.48 0 01.27-.09.49.49 0 01.34.14l5.36 5.35a.5.5 0 010 .62l-4.44 6.23a2.43 2.43 0 00-.1 2.64 28.68 28.68 0 013.12 7.53 2.41 2.41 0 001.94 1.78l7.55 1.27a.47.47 0 01.39.47v7.56z" class="cls-2"/><path d="M1560 977.43a18.56 18.56 0 1018.57 18.57 18.57 18.57 0 00-18.57-18.57zm0 32.27a13.71 13.71 0 1113.72-13.7 13.73 13.73 0 01-13.72 13.7z" class="cls-2"/></g></svg>