<svg xmlns="http://www.w3.org/2000/svg" viewBox="0 0 1000 1000"><defs><style>.cls-1{fill:#a8a8a8}.cls-2{fill:#e5e5e5}.cls-3{fill:#2b6c4f}.cls-4{fill:#49b86e}.cls-5{fill:#5e1f1f}.cls-7{fill:#225a6b}</style></defs><g id="Lixeira"><path d="M676.05 929.81c-2.79 28.31-28.35 51.48-56.8 51.48h-348.4c-28.45 0-54-23.17-56.8-51.48l-55-558.2c-2.79-28.31 18.21-51.48 46.66-51.48h478.65c28.45 0 49.45 23.17 46.66 51.48z" class="cls-1"/><path d="M712 320.13a57.81 57.81 0 110 115.62H178a57.81 57.81 0 010-115.62z" class="cls-1"/><path d="M576.92 929.81c-2.79 28.31-28.35 51.48-56.8 51.48h-348.4c-28.46 0-54-23.17-56.8-51.48L60 371.61c-2.79-28.32 18.21-51.48 46.66-51.48h478.57c28.45 0 49.45 23.17 46.66 51.48z" class="cls-2"/><path d="M610.9 320.13a57.81 57.81 0 110 115.62h-534a57.81 57.81 0 010-115.62z" class="cls-2"/><path d="M712 308H76.94a69.95 69.95 0 00-24.09 135.61l48 487.39c3.39 34.42 34.28 62.42 68.87 62.42h449.53c34.59 0 65.48-28 68.87-62.42l48-487.39A69.94 69.94 0 00712 308zM31.25 377.94a45.75 45.75 0 0145.69-45.69h534a45.69 45.69 0 010 91.38h-534a45.75 45.75 0 01-45.69-45.69zm486.87 591.23h-348.4c-22.09 0-42.57-18.57-44.73-40.55L77.65 447.88h532.54l-47.34 480.74c-2.16 21.98-22.65 40.55-44.73 40.55zM664 928.62c-2.16 22-22.65 40.55-44.73 40.55h-49.19A68.28 68.28 0 00587 931l47.57-483.12h76.76zm48-505h-48.21a69.74 69.74 0 000-91.38H712a45.69 45.69 0 110 91.38z" class="cls-3"/><path d="M355.41 576.28l-18.49-29.69h-26.05a34 34 0 00-29.12 16.49l-17.25 28 61.22 39z" class="cls-4"/><path d="M452.9 600.1l-21.42-36.81a31.37 31.37 0 00-27.83-16.7h-66.73l50 94.63-27.83 16.7 82.91 9.42 39.62-81.78zM487.14 663.48l-66.79 39 27.83 50.1h44.53l11.63-18.79a33.94 33.94 0 00.79-34.33z" class="cls-4"/><path d="M381.38 752.54v-27.83l-55.66 61.22 55.66 72.36V836h44.53a30.3 30.3 0 0027.83-16.7l39-66.79zM242.23 758.1l-13.55 31.24 16.94 29.34a35.32 35.32 0 0030 17.35h22.26V758.1z" class="cls-4"/><path d="M309 708l-33.4-72.36-89.06 5.57L218.4 661l-20.7 41.49a34.49 34.49 0 000 33.4l31 53.5 11.59-20.1 41.37-71.81z" class="cls-4"/><path d="M353.68 659.1a5.57 5.57 0 004.81 4.35l82.84 9.42h.63a5.57 5.57 0 005-3.14L486.58 588a5.56 5.56 0 00-7.52-7.39l-24 12.17-18.78-32.25A36.79 36.79 0 00403.65 541h-92.78A39.66 39.66 0 00277 560.16l-17.26 28.05a5.57 5.57 0 001.75 7.61l61.23 39a5.54 5.54 0 003 .87 5.65 5.65 0 001.37-.17 5.59 5.59 0 003.5-2.69l23.41-42.1 25.6 48.42-23.31 14a5.58 5.58 0 00-2.58 6zm-29.95-36.89l-51.62-32.84L286.53 566a28.54 28.54 0 0124.34-13.79h22.6l13.79 27.69zM389.82 646a5.57 5.57 0 002.05-7.37l-45.71-86.46h57.49a25.94 25.94 0 0123 13.92l21.42 36.8a5.56 5.56 0 007.32 2.16l13.97-7.05-30.69 63.39-62.61-7.12zM458.55 822.11l39-66.76 11.57-18.7a39.43 39.43 0 001-39.75l-18-35.93a5.58 5.58 0 00-7.47-2.5l-.32.18-66.8 39a5.58 5.58 0 00-2.06 7.52L438.72 747H387v-22.29a5.56 5.56 0 00-9.68-3.75l-55.66 61.23a5.55 5.55 0 00-.29 7.14L377 861.69a5.56 5.56 0 0010-3.4V841.6h39a35.62 35.62 0 0032.64-19.49zm-30.69-117.6l57-33.24 15.44 30.84a28.4 28.4 0 01-.66 28.71l-10 16.14h-38.19zm-46.48 126a5.57 5.57 0 00-5.56 5.57v5.9L333 786.24l42.86-47.14v13.44a5.56 5.56 0 005.56 5.56H483l-34.15 58.54a24.8 24.8 0 01-23 13.82zM183.64 646l27.52 17-18.37 36.78a40.07 40.07 0 00.1 38.83l31 53.49 16.93 29.34a40.91 40.91 0 0034.83 20.15h22.26a5.57 5.57 0 005.57-5.57V758.1a5.56 5.56 0 00-5.57-5.56h-41.6l27.76-48.18 23 8.84a5.56 5.56 0 007.05-7.52l-33.4-72.36a5.57 5.57 0 00-5.4-3.24l-89.06 5.57a5.57 5.57 0 00-2.59 10.29zm108.69 184.46h-16.7a29.58 29.58 0 01-25.2-14.56l-15.28-26.48 15.77-25.75h41.41zm-20.16-189l26.05 56.44-14.59-5.63a5.58 5.58 0 00-6.82 2.42l-48.15 83.53-26.14-45.15a29 29 0 01.19-28.13l20.7-41.49a5.57 5.57 0 00-2-7.24l-17-10.53z" class="cls-3"/></g><g id="Engrenagens"><path d="M996 122.9v22.35a18.27 18.27 0 01-15.45 18c-4 .58-8 1.17-12.11 1.71a106.22 106.22 0 01-8.22 19.82c2.5 3.27 5 6.55 7.36 9.77a18.27 18.27 0 01-1.77 23.63L950 234a18.24 18.24 0 01-23.63 1.78c-3.23-2.38-6.5-4.86-9.77-7.34a106.33 106.33 0 01-19.81 8.2c-.55 4.1-1.12 8.16-1.72 12.11a18.26 18.26 0 01-18 15.45h-22.32a18.26 18.26 0 01-18-15.45c-.58-3.95-1.17-8-1.71-12.11a106.15 106.15 0 01-19.82-8.2c-3.27 2.48-6.54 5-9.77 7.34a18.24 18.24 0 01-23.6-1.78l-15.8-15.8a18.25 18.25 0 01-1.79-23.63c2.39-3.22 4.86-6.51 7.36-9.77a106.18 106.18 0 01-8.21-19.82c-4.1-.54-8.16-1.13-12.11-1.71a18.26 18.26 0 01-15.45-18V122.9a18.26 18.26 0 0115.45-18c4-.6 8-1.17 12.11-1.72a106.37 106.37 0 018.21-19.81c-2.5-3.28-5-6.56-7.35-9.78A18.24 18.24 0 01766.05 50l15.8-15.82a18.27 18.27 0 0123.63-1.77c3.23 2.39 6.51 4.86 9.77 7.35a106.86 106.86 0 0119.82-8.21c.54-4.09 1.13-8.15 1.71-12.11A18.27 18.27 0 01854.75 4h22.35a18.27 18.27 0 0118 15.45c.59 4 1.17 8 1.72 12.11a107.05 107.05 0 0119.81 8.21c3.27-2.49 6.54-5 9.79-7.35A18.25 18.25 0 01950 34.19L965.81 50a18.25 18.25 0 011.77 23.61 862.05 862.05 0 01-7.35 9.79 107.05 107.05 0 018.21 19.81c4.09.55 8.15 1.12 12.11 1.72A18.27 18.27 0 01996 122.9zm-21.77 19.25V126c-3.6-.51-7.27-1-11-1.5a18.13 18.13 0 01-15.16-13.15 84.38 84.38 0 00-8-19.33 18.14 18.14 0 011.42-20c2.26-2.94 4.5-5.88 6.67-8.8L936.8 51.8c-2.93 2.18-5.88 4.42-8.8 6.66a18.14 18.14 0 01-20 1.43 83.94 83.94 0 00-19.33-8 18.12 18.12 0 01-13.18-15.19c-.48-3.66-1-7.33-1.5-10.93h-16.14c-.51 3.6-1 7.27-1.5 11a18.12 18.12 0 01-13.15 15.11 83.68 83.68 0 00-19.32 8 18.13 18.13 0 01-20-1.43C800.91 56.22 798 54 795 51.8l-11.4 11.4c2.17 2.92 4.41 5.86 6.66 8.8a18.12 18.12 0 011.43 20 84.41 84.41 0 00-8 19.33 18.1 18.1 0 01-15.16 13.15c-3.67.48-7.34 1-10.93 1.5v16.14c3.59.51 7.26 1 10.93 1.5a18.08 18.08 0 0115.16 13.15 84.15 84.15 0 008 19.32 18.13 18.13 0 01-1.41 20c-2.27 2.94-4.51 5.89-6.68 8.8l11.4 11.48c2.93-2.19 5.88-4.43 8.81-6.67a18.12 18.12 0 0120-1.43 83.86 83.86 0 0019.32 8 18.1 18.1 0 0113.15 15.16c.48 3.68 1 7.35 1.5 10.94H874c.51-3.59 1-7.26 1.5-10.94a18.12 18.12 0 0113.15-15.16 83.68 83.68 0 0019.32-8 18.13 18.13 0 0120 1.43c2.93 2.24 5.88 4.48 8.8 6.67L948.21 205c-2.18-2.91-4.42-5.86-6.67-8.8a18.11 18.11 0 01-1.42-20 84.57 84.57 0 008-19.32 18.09 18.09 0 0115.16-13.15c3.72-.56 7.35-1.07 10.95-1.58z" class="cls-5"/><path d="M974.23 126v16.14c-3.6.51-7.27 1-11 1.5a18.12 18.12 0 00-15.16 13.15 84.12 84.12 0 01-8 19.32 18.13 18.13 0 001.42 20 758.2 758.2 0 016.67 8.8l-11.4 11.42c-2.92-2.19-5.88-4.43-8.8-6.67a18.13 18.13 0 00-20-1.43 83.68 83.68 0 01-19.32 8 18.12 18.12 0 00-13.15 15.16c-.48 3.68-1 7.35-1.5 10.94h-16.14c-.51-3.59-1-7.26-1.5-10.94a18.12 18.12 0 00-13.15-15.16 83.86 83.86 0 01-19.32-8 18.12 18.12 0 00-20 1.43c-2.94 2.24-5.88 4.48-8.81 6.67L783.63 205c2.18-2.91 4.42-5.86 6.68-8.8a18.11 18.11 0 001.41-20 84.57 84.57 0 01-8-19.32 18.08 18.08 0 00-15.16-13.15c-3.67-.48-7.34-1-10.93-1.5V126c3.59-.51 7.25-1 10.93-1.5a18.1 18.1 0 0015.16-13.15 84.83 84.83 0 018-19.33 18.1 18.1 0 00-1.42-20c-2.25-2.94-4.49-5.88-6.67-8.8L795 51.8c2.94 2.18 5.88 4.42 8.8 6.66a18.17 18.17 0 0020 1.43 83.79 83.79 0 0119.31-8 18.11 18.11 0 0013.16-15.16c.48-3.68 1-7.35 1.5-10.95H874c.52 3.6 1 7.27 1.51 10.93a18.1 18.1 0 0013.15 15.18 83.94 83.94 0 0119.33 8 18.12 18.12 0 0020-1.43c2.92-2.24 5.87-4.48 8.8-6.66l11.4 11.4c-2.17 2.92-4.41 5.86-6.67 8.8a18.12 18.12 0 00-1.42 20 84.38 84.38 0 018 19.33 18.13 18.13 0 0015.16 13.15c3.74.52 7.37 1.02 10.97 1.52zm-61.91 8.07a46.4 46.4 0 10-46.4 46.4 46.45 46.45 0 0046.4-46.39z" fill="#802927"/><path d="M865.92 87.68a46.4 46.4 0 11-46.4 46.4 46.45 46.45 0 0146.4-46.4zm25.77 46.4a25.77 25.77 0 10-25.77 25.77 25.8 25.8 0 0025.77-25.77z" class="cls-5"/><path d="M821.58 293.47a21.58 21.58 0 01-8.74 26.6c-5.36 3.22-10.88 6.47-16.43 9.67a143.92 143.92 0 010 33.32c5.52 3.19 11.05 6.44 16.43 9.67a21.58 21.58 0 018.74 26.6l-11.76 28.41a21.59 21.59 0 01-25 12.64c-6.07-1.51-12.27-3.12-18.46-4.77a142.58 142.58 0 01-23.54 23.56c1.66 6.22 3.27 12.42 4.77 18.44a21.58 21.58 0 01-12.62 25l-28.42 11.78a21.6 21.6 0 01-26.61-8.75c-3.24-5.39-6.5-10.92-9.67-16.43a142.82 142.82 0 01-33.32 0c-3.21 5.57-6.47 11.11-9.67 16.43A21.58 21.58 0 01608.81 516a21.28 21.28 0 01-8.14-1.61l-28.43-11.78a21.59 21.59 0 01-12.63-25c1.52-6.06 3.12-12.27 4.78-18.46a142.58 142.58 0 01-23.56-23.54c-6.19 1.66-12.38 3.26-18.45 4.77a21.57 21.57 0 01-25-12.62l-11.78-28.42a21.61 21.61 0 018.74-26.61c5.37-3.23 10.89-6.47 16.44-9.67a142.82 142.82 0 010-33.32c-5.54-3.19-11.06-6.44-16.44-9.67a21.6 21.6 0 01-8.74-26.6l11.77-28.42a21.59 21.59 0 0125-12.64c6.06 1.52 12.27 3.12 18.47 4.78a143 143 0 0123.55-23.56c-1.65-6.16-3.25-12.36-4.78-18.45a21.59 21.59 0 0112.63-25l28.42-11.78a21.6 21.6 0 0126.61 8.75c3.22 5.35 6.47 10.87 9.67 16.43a142.82 142.82 0 0133.32 0c3.19-5.54 6.44-11.06 9.67-16.43a21.6 21.6 0 0126.61-8.75L735 190.19a21.57 21.57 0 0112.62 25c-1.51 6.08-3.12 12.28-4.77 18.46a142.58 142.58 0 0123.55 23.55c6.18-1.66 12.39-3.26 18.45-4.78a21.6 21.6 0 0125 12.63l11.78 28.42zm-21.65 7.62L789.11 275c-5.82 1.47-11.77 3-17.69 4.61a21.4 21.4 0 01-22.51-7.5 119.6 119.6 0 00-21-21 21.43 21.43 0 01-7.5-22.52c1.59-5.92 3.14-11.87 4.6-17.7l-26.12-10.82a936.27 936.27 0 00-9.26 15.77 21.39 21.39 0 01-21.23 10.61 119.66 119.66 0 00-29.66 0 21.42 21.42 0 01-21.21-10.62c-3.07-5.32-6.17-10.61-9.26-15.76l-26.12 10.82c1.46 5.84 3 11.79 4.6 17.69a21.4 21.4 0 01-7.49 22.5 120.05 120.05 0 00-21 21 21.43 21.43 0 01-22.52 7.5c-5.93-1.6-11.88-3.15-17.7-4.61l-10.82 26.13c5.17 3.09 10.46 6.21 15.77 9.26a21.38 21.38 0 0110.61 21.23 119.66 119.66 0 000 29.66 21.39 21.39 0 01-10.6 21.2c-5.31 3.06-10.6 6.16-15.76 9.26l10.82 26.12c5.82-1.45 11.77-3 17.69-4.6a21.4 21.4 0 0122.51 7.5 119.94 119.94 0 0021 21 21.45 21.45 0 017.5 22.52c-1.6 5.93-3.15 11.88-4.6 17.7l26.12 10.82c3.07-5.12 6.18-10.43 9.26-15.77a21.39 21.39 0 0121.23-10.61 119.66 119.66 0 0029.66 0A21.41 21.41 0 01689.65 477c3.05 5.28 6.15 10.58 9.26 15.76L725 481.91c-1.45-5.8-3-11.73-4.6-17.69a21.42 21.42 0 017.49-22.51 120 120 0 0021-21 21.44 21.44 0 0122.52-7.5c5.92 1.59 11.87 3.14 17.7 4.6l10.82-26.12c-5.17-3.1-10.47-6.21-15.77-9.26a21.41 21.41 0 01-10.61-21.23 119.66 119.66 0 000-29.66 21.39 21.39 0 0110.62-21.21c5.31-3.04 10.61-6.16 15.76-9.24z" class="cls-7"/><path d="M789.11 275l10.82 26.13c-5.15 3.08-10.45 6.2-15.76 9.26a21.37 21.37 0 00-10.62 21.21 119.58 119.58 0 010 29.65 21.4 21.4 0 0010.61 21.24c5.29 3.05 10.6 6.16 15.77 9.26l-10.82 26.12c-5.83-1.46-11.78-3-17.7-4.6a21.44 21.44 0 00-22.52 7.5 120 120 0 01-21 21 21.4 21.4 0 00-7.49 22.51c1.6 6 3.15 11.89 4.6 17.69l-26.12 10.82c-3.11-5.18-6.21-10.48-9.26-15.76a21.39 21.39 0 00-21.21-10.62 120.64 120.64 0 01-29.66 0 21.39 21.39 0 00-21.2 10.59c-3.08 5.34-6.19 10.64-9.26 15.77l-26.12-10.82c1.45-5.82 3-11.77 4.6-17.7a21.44 21.44 0 00-7.5-22.52 119.94 119.94 0 01-21-21 21.39 21.39 0 00-22.51-7.5c-5.92 1.6-11.87 3.15-17.69 4.6l-10.82-26.12c5.16-3.1 10.45-6.2 15.76-9.26a21.37 21.37 0 0010.62-21.21 119.66 119.66 0 010-29.66A21.38 21.38 0 00523 310.35c-5.31-3.05-10.6-6.17-15.77-9.26L518.09 275c5.82 1.46 11.77 3 17.7 4.61a21.43 21.43 0 0022.52-7.5 119.71 119.71 0 0121-21 21.4 21.4 0 007.49-22.5c-1.59-5.9-3.14-11.85-4.6-17.69l26.12-10.82c3.09 5.15 6.19 10.44 9.26 15.76a21.42 21.42 0 0021.21 10.62 119.66 119.66 0 0129.66 0 21.39 21.39 0 0021.23-10.61 936.27 936.27 0 019.26-15.77L725 210.89c-1.47 5.83-3 11.78-4.61 17.7a21.43 21.43 0 007.5 22.52 120 120 0 0121 21 21.38 21.38 0 0022.5 7.5c5.95-1.61 11.9-3.18 17.72-4.61zm-57.41 71.31a78.28 78.28 0 10-48.22 72.24 77.63 77.63 0 0048.22-72.24z" fill="#29718f"/><path d="M725.76 316.52a78.1 78.1 0 11-102-42.28 77.76 77.76 0 01102 42.28zm-51 80.87a55.19 55.19 0 10-42.24 0 55.26 55.26 0 0042.2 0z" class="cls-7"/></g></svg>