<svg xmlns="http://www.w3.org/2000/svg" viewBox="0 0 1000 1000"><defs><style>.cls-1{fill:#898989}.cls-3{fill:#fbdeba}.cls-5{fill:#802927}.cls-8{fill:#e5e5e5}.cls-9{fill:#a8a8a8}</style></defs><g id="Pessoa"><path d="M578 138.8h-47.2V186H578a47.2 47.2 0 01-47.2 47.2 47.2 47.2 0 01-47.2-47.2H318.4a23.59 23.59 0 01-23.6-23.6 23.59 23.59 0 0123.6-23.6h165.2a47.2 47.2 0 0147.2-47.2 47.2 47.2 0 0147.2 47.2z" class="cls-1"/><path fill="#29718f" d="M979.2 433.8v271.4H530.8V551.8h-47.2v-118h495.6z"/><path d="M412.8 186H342v271.4a70.8 70.8 0 0070.8 70.8h70.8v-70.8h-47.2a23.59 23.59 0 01-23.6-23.6z" class="cls-3"/><path fill="#225a6b" d="M660.6 433.8v118h188.8v-118h47.2v118l82.6 82.6v70.8H530.8v-70.8l82.6-82.6v-118h47.2z"/><path d="M707.8 410.2v47.2a47.19 47.19 0 0013.83 33.37 47.19 47.19 0 0066.74 0 47.19 47.19 0 0013.83-33.37v-47.2z" class="cls-3"/><path d="M707.8 416.84v-6.64h94.4v47.2a47.11 47.11 0 01-11.44 30.48 129.92 129.92 0 01-82.96-71.04z" class="cls-3"/><path d="M884.8 162.4v129.8A129.8 129.8 0 01755 422a129.8 129.8 0 01-129.8-129.8V162.4z" class="cls-3"/><path d="M719.6 327.6h70.8v11.8a35.4 35.4 0 01-35.4 35.4 35.4 35.4 0 01-35.4-35.4z" class="cls-5"/><path d="M625.2 256.8h-23.6a23.59 23.59 0 00-23.6 23.6 23.59 23.59 0 0023.6 23.6h23.6zM884.8 256.8h23.6a23.59 23.59 0 0123.6 23.6 23.59 23.59 0 01-23.6 23.6h-23.6z" class="cls-3"/><path d="M625.2 162.4h259.6v-11.8A129.81 129.81 0 00755 20.8a129.8 129.8 0 00-129.8 129.8v11.8z" class="cls-5"/><path d="M766.8 162.4a47.2 47.2 0 0047.2 47.2h141.6a47.2 47.2 0 00-47.2-47.2z" fill="#5e1f1f"/><path class="cls-3" d="M342 103.4h70.8v47.2H342z"/><path d="M625.2 221.4h35.4a59 59 0 0059-59h-94.4v59z" fill="#ffbc05"/><path d="M530.8 142a236.14 236.14 0 01-62.8 44h15.6a47.2 47.2 0 0094.4 0h-47.2zM562.31 103.88A236.87 236.87 0 01534 138.8h44a46.87 46.87 0 00-15.69-34.92z" class="cls-1"/><path d="M755 386.6a47.2 47.2 0 0047.2-47.2v-23.6h-94.4v23.6a47.2 47.2 0 0047.2 47.2zm23.6-47.2a23.6 23.6 0 11-47.2 0z"/><path d="M979.2 422H814v-1.18a140.36 140.36 0 0080.58-105h13.82a35.4 35.4 0 000-70.8h-11.8V221.4h70.8v-11.8a59.06 59.06 0 00-59-59h-11.8a141.6 141.6 0 00-283.2 0V245h-11.8a35.4 35.4 0 100 70.8h13.82a140.36 140.36 0 0080.58 105v1.2H483.6a11.81 11.81 0 00-11.8 11.8v11.8h-35.4a11.81 11.81 0 01-11.8-11.8v-236H473A59 59 0 00589.8 186v-11.8h-47.2v-23.6h47.2v-11.8A59 59 0 00473 127h-48.4v-23.6a11.81 11.81 0 00-11.8-11.8H342a11.81 11.81 0 00-11.8 11.8V127h-11.8a35.4 35.4 0 100 70.8h11.8v259.6a82.71 82.71 0 0082.6 82.6h59v11.8a11.81 11.81 0 0011.8 11.8H519v141.6a11.81 11.81 0 0011.8 11.8h448.4a11.81 11.81 0 0011.8-11.8V433.8a11.81 11.81 0 00-11.8-11.8zm-11.8 183.91l-59-59V445.6h59zm-59-337.31a11.8 11.8 0 110 23.6h-11.8v-23.6zm0-94.4a35.45 35.45 0 0133.38 23.6H814a35.45 35.45 0 01-33.38-23.6zM755 32.6a118.13 118.13 0 01118 118H637a118.13 118.13 0 01118-118zm-48.7 141.6a47.26 47.26 0 01-45.7 35.4H637v-35.4zm-104.7 118a11.8 11.8 0 010-23.6h11.8v23.6zm35.4 0v-59h23.6a70.86 70.86 0 0069.74-59h25.84A59.11 59.11 0 00814 221.4h59v70.8A117.26 117.26 0 01797.91 402a11.81 11.81 0 00-7.51 11v44.4a35.61 35.61 0 01-10.37 25 36.25 36.25 0 01-50.06 0 35.61 35.61 0 01-10.37-25V413a11.8 11.8 0 00-7.5-11A117.27 117.27 0 01637 292.2zm76.29 206.91A59 59 0 00814 457.4v-11.8h23.6V540H672.4v-94.4H696v11.8a58.55 58.55 0 0017.29 41.71zM353.8 115.2H401v23.6h-47.2zm-35.4 59a11.8 11.8 0 110-23.6h11.8a11.81 11.81 0 0011.8 11.8h70.8a11.81 11.81 0 0011.8-11.8h70.8v-11.8a35.4 35.4 0 0168.78-11.8H519v70.8h45.18A35.4 35.4 0 01495.4 186v-11.8zm94.4 342.2a59.07 59.07 0 01-59-59V197.8H401v236a35.4 35.4 0 0035.4 35.4h35.4v47.2zm82.6 23.6v-94.4h106.2v101.31l-59 59V551.8a11.81 11.81 0 00-11.8-11.8zm472 153.4H542.6v-54.12l79.14-79.14a11.74 11.74 0 003.46-8.34V445.6h23.6v106.2a11.81 11.81 0 0011.8 11.8h188.8a11.81 11.81 0 0011.8-11.8V445.6h23.6v106.2a11.74 11.74 0 003.46 8.34l79.14 79.14z"/><path d="M707.8 292.2h23.6v-11.8a35.4 35.4 0 00-70.8 0v11.8h23.6v-11.8a11.8 11.8 0 0123.6 0v11.8zM802.2 280.4a11.8 11.8 0 0123.6 0v11.8h23.6v-11.8a35.4 35.4 0 00-70.8 0v11.8h23.6v-11.8z"/></g><g id="Lixeira"><path d="M359.29 576.06a31.93 31.93 0 010 63.86H50.89a31.93 31.93 0 110-63.86zM358.6 640.38V931c0 28.62-20.42 49-45.62 49H97.2c-25.2 0-45.62-20.4-45.62-49V639.92h307z" class="cls-8"/><path d="M272.38 681.44A11.4 11.4 0 00261 692.85V908.4a11.41 11.41 0 1022.81 0V692.85a11.41 11.41 0 00-11.43-11.41zM137.8 681.44a11.4 11.4 0 00-11.4 11.41V908.4a11.41 11.41 0 1022.81 0V692.85a11.41 11.41 0 00-11.41-11.41z" class="cls-9"/><path d="M39.72 650v281c0 16.61 6.08 32.2 16.73 43.4A56.16 56.16 0 0097.2 992H313a56.16 56.16 0 0040.75-17.62c10.65-11.2 16.74-26.79 16.74-43.4V650a45.84 45.84 0 0019.7-11.37 43.66 43.66 0 00-30.88-74.32H300.9v-14.26a44.81 44.81 0 00-45.17-45H154.45a44.8 44.8 0 00-45.16 45v14.26h-58.4A43.56 43.56 0 0039.72 650zM313 969.19H97.2c-19.51 0-34.67-16.75-34.67-38.21V651h285.13v280c0 21.44-15.17 38.19-34.66 38.19zM132.1 550.05a22 22 0 0122.35-22.24h101.28a22 22 0 0122.36 22.24v14.26h-146zm-95.73 43.26a20.59 20.59 0 0114.52-6.19h308.4a20.71 20.71 0 0120.53 20.7 20.38 20.38 0 01-20.53 20.36H50.89a20.5 20.5 0 01-20.53-20.44 20.24 20.24 0 016.01-14.43z" class="cls-9"/><path d="M205.09 681.44a11.4 11.4 0 00-11.4 11.41V908.4a11.41 11.41 0 1022.81 0V692.85a11.41 11.41 0 00-11.41-11.41z" class="cls-9"/></g></svg>