<svg xmlns="http://www.w3.org/2000/svg" viewBox="0 0 1000 1000"><defs><style>.cls-1{fill:#898989;}.cls-2{fill:#29718f;}.cls-3{fill:#fbdeba;}.cls-4{fill:#225a6b;}.cls-5{fill:#802927;}.cls-6{fill:#5e1f1f;}.cls-7{fill:#ffbc05;}.cls-8{fill:#e5e5e5;}.cls-9{fill:#a8a8a8;}</style></defs><title>Construa-Voce-Mesmo</title><g id="Pessoa"><path class="cls-1" d="M578,138.8H530.8V186H578a47.2,47.2,0,0,1-47.2,47.2h0A47.2,47.2,0,0,1,483.6,186H318.4a23.59,23.59,0,0,1-23.6-23.6h0a23.59,23.59,0,0,1,23.6-23.6H483.6a47.2,47.2,0,0,1,47.2-47.2h0A47.2,47.2,0,0,1,578,138.8Z"/><polygon class="cls-2" points="979.2 433.8 979.2 705.2 530.8 705.2 530.8 551.8 483.6 551.8 483.6 433.8 979.2 433.8"/><path class="cls-3" d="M412.8,186H342V457.4a70.8,70.8,0,0,0,70.8,70.8h70.8V457.4H436.4a23.59,23.59,0,0,1-23.6-23.6Z"/><polygon class="cls-4" points="660.6 433.8 660.6 551.8 849.4 551.8 849.4 433.8 896.6 433.8 896.6 551.8 979.2 634.4 979.2 705.2 530.8 705.2 530.8 634.4 613.4 551.8 613.4 433.8 660.6 433.8"/><path class="cls-3" d="M707.8,410.2v47.2a47.19,47.19,0,0,0,13.83,33.37h0a47.19,47.19,0,0,0,66.74,0h0A47.19,47.19,0,0,0,802.2,457.4V410.2Z"/><path class="cls-3" d="M707.8,416.84V410.2h94.4v47.2a47.11,47.11,0,0,1-11.44,30.48A129.92,129.92,0,0,1,707.8,416.84Z"/><path class="cls-3" d="M884.8,162.4V292.2A129.8,129.8,0,0,1,755,422h0A129.8,129.8,0,0,1,625.2,292.2V162.4Z"/><path class="cls-5" d="M719.6,327.6h70.8v11.8A35.4,35.4,0,0,1,755,374.8h0a35.4,35.4,0,0,1-35.4-35.4Z"/><path class="cls-3" d="M625.2,256.8H601.6A23.59,23.59,0,0,0,578,280.4h0A23.59,23.59,0,0,0,601.6,304h23.6Z"/><path class="cls-3" d="M884.8,256.8h23.6A23.59,23.59,0,0,1,932,280.4h0A23.59,23.59,0,0,1,908.4,304H884.8Z"/><path class="cls-5" d="M625.2,162.4H884.8V150.6A129.81,129.81,0,0,0,755,20.8h0A129.8,129.8,0,0,0,625.2,150.6v11.8Z"/><path class="cls-6" d="M766.8,162.4h0A47.2,47.2,0,0,0,814,209.6H955.6a47.2,47.2,0,0,0-47.2-47.2Z"/><rect class="cls-3" x="342" y="103.4" width="70.8" height="47.2"/><path class="cls-7" d="M625.2,221.4h35.4a59,59,0,0,0,59-59H625.2v59Z"/><path class="cls-1" d="M530.8,142A236.14,236.14,0,0,1,468,186H483.6a47.2,47.2,0,0,0,94.4,0H530.8Z"/><path class="cls-1" d="M562.31,103.88A236.87,236.87,0,0,1,534,138.8h44A46.87,46.87,0,0,0,562.31,103.88Z"/><path d="M755,386.6a47.2,47.2,0,0,0,47.2-47.2V315.8H707.8v23.6A47.2,47.2,0,0,0,755,386.6Zm23.6-47.2a23.6,23.6,0,1,1-47.2,0Z"/><path d="M979.2,422H814v-1.18a140.36,140.36,0,0,0,80.58-105H908.4a35.4,35.4,0,0,0,0-70.8H896.6V221.4h70.8V209.6a59.06,59.06,0,0,0-59-59H896.6a141.6,141.6,0,0,0-283.2,0V245H601.6a35.4,35.4,0,1,0,0,70.8h13.82a140.36,140.36,0,0,0,80.58,105V422H483.6a11.81,11.81,0,0,0-11.8,11.8v11.8H436.4a11.81,11.81,0,0,1-11.8-11.8v-236H473A59,59,0,0,0,589.8,186V174.2H542.6V150.6h47.2V138.8A59,59,0,0,0,473,127H424.6V103.4a11.81,11.81,0,0,0-11.8-11.8H342a11.81,11.81,0,0,0-11.8,11.8V127H318.4a35.4,35.4,0,1,0,0,70.8h11.8V457.4A82.71,82.71,0,0,0,412.8,540h59v11.8a11.81,11.81,0,0,0,11.8,11.8H519V705.2A11.81,11.81,0,0,0,530.8,717H979.2A11.81,11.81,0,0,0,991,705.2V433.8A11.81,11.81,0,0,0,979.2,422ZM967.4,605.91l-59-59V445.6h59Zm-59-337.31a11.8,11.8,0,1,1,0,23.6H896.6V268.6Zm0-94.4a35.45,35.45,0,0,1,33.38,23.6H814a35.45,35.45,0,0,1-33.38-23.6ZM755,32.6a118.13,118.13,0,0,1,118,118H637A118.13,118.13,0,0,1,755,32.6ZM706.3,174.2a47.26,47.26,0,0,1-45.7,35.4H637V174.2Zm-104.7,118a11.8,11.8,0,0,1,0-23.6h11.8v23.6Zm35.4,0v-59h23.6a70.86,70.86,0,0,0,69.74-59h25.84A59.11,59.11,0,0,0,814,221.4h59v70.8A117.26,117.26,0,0,1,797.91,402a11.81,11.81,0,0,0-7.51,11V457.4a35.61,35.61,0,0,1-10.37,25,36.25,36.25,0,0,1-50.06,0,35.61,35.61,0,0,1-10.37-25V413a11.8,11.8,0,0,0-7.5-11A117.27,117.27,0,0,1,637,292.2Zm76.29,206.91A59,59,0,0,0,814,457.4V445.6h23.6V540H672.4V445.6H696v11.8A58.55,58.55,0,0,0,713.29,499.11ZM353.8,115.2H401v23.6H353.8Zm-35.4,59a11.8,11.8,0,1,1,0-23.6h11.8A11.81,11.81,0,0,0,342,162.4h70.8a11.81,11.81,0,0,0,11.8-11.8h70.8V138.8A35.4,35.4,0,0,1,564.18,127H519v70.8h45.18A35.4,35.4,0,0,1,495.4,186V174.2Zm94.4,342.2a59.07,59.07,0,0,1-59-59V197.8H401v236a35.4,35.4,0,0,0,35.4,35.4h35.4v47.2ZM495.4,540V445.6H601.6V546.91l-59,59V551.8A11.81,11.81,0,0,0,530.8,540Zm472,153.4H542.6V639.28l79.14-79.14a11.74,11.74,0,0,0,3.46-8.34V445.6h23.6V551.8a11.81,11.81,0,0,0,11.8,11.8H849.4a11.81,11.81,0,0,0,11.8-11.8V445.6h23.6V551.8a11.74,11.74,0,0,0,3.46,8.34l79.14,79.14Z"/><path d="M707.8,292.2h23.6V280.4a35.4,35.4,0,0,0-70.8,0v11.8h23.6V280.4a11.8,11.8,0,0,1,23.6,0v11.8Z"/><path d="M802.2,280.4a11.8,11.8,0,0,1,23.6,0v11.8h23.6V280.4a35.4,35.4,0,0,0-70.8,0v11.8h23.6V280.4Z"/></g><g id="Lixeira"><path class="cls-8" d="M359.29,576.06a31.93,31.93,0,0,1,0,63.86H50.89a31.93,31.93,0,1,1,0-63.86Z"/><path class="cls-8" d="M358.6,640.38V931c0,28.62-20.42,49-45.62,49H97.2C72,980,51.58,959.6,51.58,931V639.92h307Z"/><path class="cls-9" d="M272.38,681.44A11.4,11.4,0,0,0,261,692.85V908.4a11.41,11.41,0,1,0,22.81,0V692.85A11.41,11.41,0,0,0,272.38,681.44Z"/><path class="cls-9" d="M137.8,681.44a11.4,11.4,0,0,0-11.4,11.41V908.4a11.41,11.41,0,1,0,22.81,0V692.85A11.41,11.41,0,0,0,137.8,681.44Z"/><path class="cls-9" d="M39.72,650V931c0,16.61,6.08,32.2,16.73,43.4A56.16,56.16,0,0,0,97.2,992H313a56.16,56.16,0,0,0,40.75-17.62c10.65-11.2,16.74-26.79,16.74-43.4V650a45.84,45.84,0,0,0,19.7-11.37,43.66,43.66,0,0,0-30.88-74.32H300.9V550.05a44.81,44.81,0,0,0-45.17-45H154.45a44.8,44.8,0,0,0-45.16,45v14.26H50.89A43.56,43.56,0,0,0,39.72,650ZM313,969.19H97.2c-19.51,0-34.67-16.75-34.67-38.21V651H347.66V931C347.66,952.44,332.49,969.19,313,969.19ZM132.1,550.05a22,22,0,0,1,22.35-22.24H255.73a22,22,0,0,1,22.36,22.24v14.26h-146ZM36.37,593.31a20.59,20.59,0,0,1,14.52-6.19h308.4a20.71,20.71,0,0,1,20.53,20.7,20.38,20.38,0,0,1-20.53,20.36H50.89a20.5,20.5,0,0,1-20.53-20.44A20.24,20.24,0,0,1,36.37,593.31Z"/><path class="cls-9" d="M205.09,681.44a11.4,11.4,0,0,0-11.4,11.41V908.4a11.41,11.41,0,1,0,22.81,0V692.85A11.41,11.41,0,0,0,205.09,681.44Z"/></g></svg>