<svg id="Pessoas" xmlns="http://www.w3.org/2000/svg" viewBox="0 0 1000 1000"><defs><style>.cls-1{fill:#49b86e;}.cls-2{fill:#29718f;}.cls-3{fill:#898989;}.cls-4{fill:#ecc19c;}.cls-5{fill:#f5e0cd;}.cls-6{fill:#dfb28b;}.cls-7{fill:#f0d0b4;}.cls-8{fill:#e6e9ed;}</style></defs><title>Open Source</title><path class="cls-1" d="M847,14.9a135.89,135.89,0,0,0-66.84,254.23,5.57,5.57,0,0,0,4.3.53,5.65,5.65,0,0,0,3.4-2.65l41.92-74.08a5.67,5.67,0,0,0-2.14-7.72,39.65,39.65,0,1,1,38.84,0,5.67,5.67,0,0,0-2.14,7.72L906.15,267a5.66,5.66,0,0,0,3.4,2.66,5.18,5.18,0,0,0,1.52.22,5.57,5.57,0,0,0,2.79-.74A135.89,135.89,0,0,0,847,14.9Z"/><path d="M911.09,269.88a5.27,5.27,0,0,1-1.52-.22,5.66,5.66,0,0,1-3.4-2.66l-41.91-74.08a5.66,5.66,0,0,1,2.13-7.72h0a39.65,39.65,0,1,0-38.83,0,5.68,5.68,0,0,1,2.15,7.72h0L787.86,267a5.67,5.67,0,0,1-7.72,2.14h0a136,136,0,1,1,133.69,0A5.67,5.67,0,0,1,911.09,269.88ZM876.77,192l36.39,64.39a124.62,124.62,0,1,0-132.31,0L817.24,192a51,51,0,1,1,59.52,0Z"/><path class="cls-2" d="M689.18,349.63,637.58,298l-36,23.45a192.89,192.89,0,0,0-56.19-23.3l-8.88-42h-73l-8.89,42a192.77,192.77,0,0,0-56.19,23.3l-36-23.45-51.6,51.6,18.68,44.56,1.77,93h22.8a145.94,145.94,0,0,1,291.88,0h24.32l-.1-93Z"/><path class="cls-2" d="M317.86,366.44l11.64,27.75.24,93h24.32a145,145,0,0,1,26.8-84.09C365.44,383.52,343.14,369.81,317.86,366.44Z"/><path class="cls-2" d="M682,366.53a97.2,97.2,0,0,0-63.37,35.87,145.26,145.26,0,0,1,27.33,84.83h24.32l-.1-93Z"/><path class="cls-3" d="M828.35,694V634.66a48.65,48.65,0,0,0-36.84-47.2l-60.45-15.11,0-22a72.88,72.88,0,0,0,36.51-63.14V466c0-40-30.8-74.79-70.72-76a73,73,0,0,0-75.22,72.93v24.33a72.84,72.84,0,0,0,36.49,63.12v22l-60.45,15.12a48.64,48.64,0,0,0-36.84,47.19V694Z"/><path class="cls-3" d="M658.1,634.66a72.66,72.66,0,0,0-26.17-55.76l-34.28,8.57a48.64,48.64,0,0,0-36.84,47.19V694H658.1Z"/><path class="cls-3" d="M439.19,694V634.66a48.66,48.66,0,0,0-36.84-47.2L341.9,572.35l0-22a72.9,72.9,0,0,0,36.51-63.14V466c0-40-30.8-74.79-70.72-76a73,73,0,0,0-75.22,72.93v24.33a72.84,72.84,0,0,0,36.49,63.12v22l-60.45,15.12a48.63,48.63,0,0,0-36.84,47.19V694Z"/><path class="cls-3" d="M439.19,634.66a48.65,48.65,0,0,0-36.84-47.2l-34.28-8.57a72.73,72.73,0,0,0-26.17,55.77V694h97.29Z"/><path class="cls-3" d="M633.77,694V634.66a48.66,48.66,0,0,0-36.84-47.2l-60.45-15.11,0-22A72.9,72.9,0,0,0,573,487.23V466c0-40-30.8-74.79-70.72-76A73,73,0,0,0,427,462.9v24.33a72.84,72.84,0,0,0,36.49,63.12v22l-60.45,15.12a48.64,48.64,0,0,0-36.84,47.19V694Z"/><path class="cls-3" d="M828.35,634.66a48.64,48.64,0,0,0-36.84-47.2l-13.4-3.35L615.6,669.65h-2.75l-52-14.87V694H828.35Z"/><path class="cls-3" d="M633.77,660.08l-18.17,9.57h-2.75l-73.14-20.9a88.57,88.57,0,0,0-19.6-3.09l-53.11-17a161.79,161.79,0,0,0-84.49-3.78l-15.76,3.65a45.93,45.93,0,0,0-.52,6.12V694H633.77Z"/><path class="cls-3" d="M382.51,624.89l-52.77,12.23V619.19l-74.45-43.43-46.8,11.7a48.65,48.65,0,0,0-36.84,47.2V694H439.19V634.66a48.21,48.21,0,0,0-1.76-12.35,156.64,156.64,0,0,0-54.92,2.58Z"/><path class="cls-4" d="M637.58,832.39,534.82,739.9l-19.56-70.25-55.67-17.81a137.32,137.32,0,0,0-71.6-3.25L244.61,681.81,232.45,779.1,318.19,833,474.16,963,493,979.62a24.85,24.85,0,0,0,16.44,6.22h2.24a24.86,24.86,0,0,0,15.91-43.94,32.07,32.07,0,0,0,20.57,7.45A24.84,24.84,0,0,0,564,905.42l-46.6-38.84,48.62,40.53A24.9,24.9,0,0,0,582,912.87h2.64a24.85,24.85,0,0,0,15.9-43.94l1.92,1.61a25.26,25.26,0,0,0,16.15,5.85h2.11a25.24,25.24,0,0,0,16.89-44Z"/><path class="cls-5" d="M637.58,832.39,534.82,739.9a36.83,36.83,0,0,0-43.57-4.21L446,762.86a28.56,28.56,0,0,1-43.27-24.49V736a28.57,28.57,0,0,1,15.8-25.55l67.84-33.92A64.62,64.62,0,0,1,533,672.14L609.45,694h12.16L852.68,572.35h12.16v158.1L645.94,839.9Z"/><path class="cls-6" d="M500,852.06l-16.91,17.59,67.4,56.16a49.23,49.23,0,0,0,19.75,9.79A24.57,24.57,0,0,0,573,924.51,24.85,24.85,0,0,0,564,905.42Z"/><path class="cls-5" d="M427,947.88a25.8,25.8,0,0,0,44,18.24l21.36-21.36A25.8,25.8,0,1,0,456,908.26L434.6,929.63A25.8,25.8,0,0,0,427,947.88Z"/><path class="cls-5" d="M390.55,911.4a25.8,25.8,0,0,0,44,18.24L456,908.27a25.8,25.8,0,0,0-36.47-36.49l-21.37,21.36A25.82,25.82,0,0,0,390.55,911.4Z"/><path class="cls-5" d="M354.06,874.91a25.8,25.8,0,0,0,44,18.25l21.37-21.37A25.8,25.8,0,1,0,383,835.3l-21.37,21.36A25.8,25.8,0,0,0,354.06,874.91Z"/><path class="cls-7" d="M400.19,852.49a50.26,50.26,0,0,0,12.57-21.92A25.44,25.44,0,0,0,383,835.3l-21.37,21.36a25.83,25.83,0,0,0-7.57,18.25,25.51,25.51,0,0,0,2.84,11.52,50,50,0,0,0,21.91-12.56Z"/><path class="cls-7" d="M436.68,889a50.34,50.34,0,0,0,12.56-21.92,25.46,25.46,0,0,0-29.76,4.72l-21.37,21.36a25.83,25.83,0,0,0-7.56,18.26,25.54,25.54,0,0,0,2.83,11.52,50.2,50.2,0,0,0,21.92-12.57Z"/><path class="cls-7" d="M473.16,925.46a50.14,50.14,0,0,0,12.56-21.92,25.51,25.51,0,0,0-11.52-2.83A25.79,25.79,0,0,0,456,908.26L434.6,929.63A25.83,25.83,0,0,0,427,947.88a25.54,25.54,0,0,0,2.83,11.52,50.07,50.07,0,0,0,21.92-12.56Z"/><path class="cls-5" d="M317.58,838.43a25.8,25.8,0,0,0,44,18.24L383,835.31a25.8,25.8,0,1,0-36.47-36.5l-21.36,21.37A25.75,25.75,0,0,0,317.58,838.43Z"/><path class="cls-6" d="M325.66,663l-81.05,18.78L232.45,779.1l50.91,32Z"/><path class="cls-8" d="M305.42,645.32,256.77,815.58H244.61L135.16,779.1V548h24.32l145.94,85.13Z"/><path class="cls-1" d="M257.58,605.25,159.48,548H135.16V779.1l73,24.32,48.64-194.58Z"/><path class="cls-6" d="M536.48,815.58l-16.9,17.58L587,889.33a49.24,49.24,0,0,0,19.75,9.79A24.56,24.56,0,0,0,609.45,888a24.87,24.87,0,0,0-8.94-19.1Z"/><path d="M877,560.19H849.67l-40.73,21.43a60.43,60.43,0,0,0-14.49-6l-51.24-12.82V557a85.41,85.41,0,0,0,36.5-69.79V466c0-47.25-37-86.78-82.52-88.16-2.31-.06-4.58,0-6.87.14l13.29-31.1-64.4-64.38-38,24.71a205.66,205.66,0,0,0-45.53-18.89L546.35,244H453.66l-9.37,44.3a205.39,205.39,0,0,0-45.52,18.89l-38-24.71-64.34,64.34L309.52,378c-.5,0-1-.12-1.48-.13a85.18,85.18,0,0,0-87.75,85.08v24.33A85.36,85.36,0,0,0,256.77,557v5.84l-33.42,8.36-60.57-35.33H123v252l119.64,39.87h23.3l2.91-10.19,36.68,22A37.87,37.87,0,0,0,342,876.25a37.85,37.85,0,0,0,36.48,36.48A37.87,37.87,0,0,0,415,949.22a37.93,37.93,0,0,0,37.82,36.62,38.35,38.35,0,0,0,21.32-6.59l10.77,9.51A37,37,0,0,0,509.39,998h2.25a37,37,0,0,0,37-36.53A37,37,0,0,0,585.08,925a37,37,0,0,0,36.49-36.51,37.4,37.4,0,0,0,36.53-37.32,34.32,34.32,0,0,0-.19-3.65L877,738ZM755.39,466v21.26A61.05,61.05,0,0,1,725,539.85l-6.08,3.51,0,38.49L779.67,597,645.94,667.42V634.66a60.52,60.52,0,0,0-17.42-42.38l41.74-10.43V543.34l-6.07-3.51a61,61,0,0,1-30.42-52.6V462.9a60.82,60.82,0,0,1,62.69-60.77C729,403.11,755.39,431.75,755.39,466Zm-237,191.89-55.06-17.6a150.15,150.15,0,0,0-77.92-3.55l-7,1.55v-3.6A36.47,36.47,0,0,1,406,599.25l69.66-17.4V543.34l-6.07-3.51a61,61,0,0,1-30.42-52.6V462.9a60.82,60.82,0,0,1,62.69-60.77c32.49,1,58.93,29.62,58.93,63.84v21.26a61.05,61.05,0,0,1-30.44,52.62l-6.08,3.51,0,38.49L594,599.25a36.47,36.47,0,0,1,27.63,35.41v45.57l-3,1.58h-7.45l-74.77-21.37A76.5,76.5,0,0,0,518.34,657.86ZM381.11,426a133.68,133.68,0,0,1,237.28-1,84.52,84.52,0,0,0-8.94,37.86v24.33A85.35,85.35,0,0,0,645.94,557v5.84L597.29,575l-48.66-12.18V557a85.41,85.41,0,0,0,36.5-69.79V466c0-47.25-37-86.78-82.52-88.16a85.16,85.16,0,0,0-87.74,85.09v24.33A85.36,85.36,0,0,0,451.35,557v5.84L402.71,575l-48.66-12.18V557a85.41,85.41,0,0,0,36.5-69.79V466A89.64,89.64,0,0,0,381.11,426Zm-55.93-73.55L364,313.61l34.2,22.26,6.55-4A181.68,181.68,0,0,1,457.44,310l7.48-1.79,8.46-39.9h53.25l8.44,39.89,7.48,1.79a181.68,181.68,0,0,1,52.66,21.84l6.55,4L636,313.6l38.81,38.82L661,384.72a85.07,85.07,0,0,0-25.67,17.06c-.49.49-.92,1-1.41,1.51a157.93,157.93,0,0,0-268.22.73,85.9,85.9,0,0,0-26.83-19ZM281.1,581.85V543.34L275,539.83a61,61,0,0,1-30.42-52.6V462.9a60.82,60.82,0,0,1,62.69-60.77c32.49,1,58.93,29.62,58.93,63.84v21.26a61.05,61.05,0,0,1-30.44,52.62l-6.08,3.51,0,38.49,41.73,10.43a60.52,60.52,0,0,0-17.42,42.38v9l-37.93,8.43,1-3.45.46-22.47-64.14-37.42ZM147.32,560.19h8.87l87.46,51L199.52,787.73l-52.2-17.4Zm99.26,243.23-23.93-8L265.52,624l27.74,16.17v3.48l-45.65,159.8Zm83.16,35a13.72,13.72,0,0,1,4-9.64l21.38-21.38A13.64,13.64,0,0,1,374.4,826.7L353,848.07a13.64,13.64,0,0,1-23.28-9.64Zm36.49,36.48a13.69,13.69,0,0,1,4-9.64l21.37-21.38a13.64,13.64,0,0,1,19.29,19.29L389.5,884.56a13.63,13.63,0,0,1-23.27-9.65Zm36.48,36.49a13.76,13.76,0,0,1,4-9.65l21.38-21.37a13.63,13.63,0,0,1,19.28,19.28L426,921a13.64,13.64,0,0,1-23.28-9.64Zm50.12,50.12a13.64,13.64,0,0,1-9.65-23.28l21.38-21.38a13.64,13.64,0,0,1,19.29,19.29l-21.38,21.38A13.73,13.73,0,0,1,452.83,961.52Zm58.81,12.16h-2.25A12.6,12.6,0,0,1,501,970.5l-9.1-8,9.14-9.13a38,38,0,0,0,7.66-11.3l11.05,9.2a12.69,12.69,0,0,1-8.12,22.43ZM620.7,864.23h-2.1a13,13,0,0,1-8.37-3l-66-55L528.7,824.92l64,53.36a12.69,12.69,0,0,1-8.13,22.43H582a12.68,12.68,0,0,1-8.11-3l-66.06-55-15.58,18.7,64.05,53.36a12.67,12.67,0,0,1-8.13,22.41,20.05,20.05,0,0,1-12.79-4.63l-27.15-22.62a37.85,37.85,0,0,0-32.65-21.26,37.87,37.87,0,0,0-36.48-36.48,37.87,37.87,0,0,0-36.49-36.48,37.87,37.87,0,0,0-64.65-25.51l-21.37,21.38a37.5,37.5,0,0,0-3.41,4.16l-37.36-22.41,32.75-114.62,82.1-18.26a125.27,125.27,0,0,1,65.25,3l17.91,5.73-60.73,30.36A40.55,40.55,0,0,0,390.55,736v2.41a40.72,40.72,0,0,0,61.7,34.92l45.28-27.15a25.1,25.1,0,0,1,29.16,2.81l102.76,92.47a13.1,13.1,0,0,1-8.75,22.82Zm232-141.3L647.79,825.38c-.66-.7-1.36-1.37-2.09-2L543,730.88a48.94,48.94,0,0,0-58-5.61L439.7,752.44a16.4,16.4,0,0,1-24.83-14.08V736a16.33,16.33,0,0,1,9.07-14.68l67.84-33.92a52.86,52.86,0,0,1,37.9-3.51l76.43,21.83,18.51.46,228.06-120Z"/><path d="M159.78,21.57c-73.52,0-133.14,59.86-133.14,133.69a133.67,133.67,0,0,0,91.08,126.85c6.65,1.23,9.08-2.9,9.08-6.44,0-3.18-.11-11.59-.18-22.74C89.59,261,81.76,235,81.76,235,75.72,219.56,67,215.45,67,215.45c-12.1-8.29.9-8.12.9-8.12,13.37.95,20.39,13.78,20.39,13.78,11.89,20.42,31.18,14.53,38.77,11.1,1.2-8.64,4.64-14.53,8.45-17.88-29.56-3.37-60.65-14.84-60.65-66.06a51.76,51.76,0,0,1,13.72-35.88c-1.39-3.38-6-17,1.29-35.37,0,0,11.19-3.6,36.62,13.69a125.76,125.76,0,0,1,66.68,0C218.57,73.44,229.73,77,229.73,77c7.26,18.41,2.7,32,1.34,35.37a51.77,51.77,0,0,1,13.68,35.89c0,51.35-31.13,62.65-60.79,66,4.78,4.13,9,12.28,9,24.75,0,17.88-.17,32.29-.17,36.67,0,3.58,2.4,7.74,9.16,6.42a133.7,133.7,0,0,0,91-126.83C293,81.43,233.33,21.57,159.78,21.57Z"/></svg>