<svg xmlns="http://www.w3.org/2000/svg" id="Pessoas" viewBox="0 0 1000 1000"><defs><style>.cls-1{fill:#49b86e}.cls-2{fill:#29718f}.cls-3{fill:#898989}.cls-5{fill:#f5e0cd}.cls-6{fill:#dfb28b}.cls-7{fill:#f0d0b4}</style></defs><path d="M847 14.9a135.89 135.89 0 00-66.84 254.23 5.57 5.57 0 004.3.53 5.65 5.65 0 003.4-2.65l41.92-74.08a5.67 5.67 0 00-2.14-7.72 39.65 39.65 0 1138.84 0 5.67 5.67 0 00-2.14 7.72L906.15 267a5.66 5.66 0 003.4 2.66 5.18 5.18 0 001.52.22 5.57 5.57 0 002.79-.74A135.89 135.89 0 00847 14.9z" class="cls-1"/><path d="M911.09 269.88a5.27 5.27 0 01-1.52-.22 5.66 5.66 0 01-3.4-2.66l-41.91-74.08a5.66 5.66 0 012.13-7.72 39.65 39.65 0 10-38.83 0 5.68 5.68 0 012.15 7.72L787.86 267a5.67 5.67 0 01-7.72 2.14 136 136 0 11133.69 0 5.67 5.67 0 01-2.74.74zM876.77 192l36.39 64.39a124.62 124.62 0 10-132.31 0L817.24 192a51 51 0 1159.52 0z"/><path d="M689.18 349.63L637.58 298l-36 23.45a192.89 192.89 0 00-56.19-23.3l-8.88-42h-73l-8.89 42a192.77 192.77 0 00-56.19 23.3l-36-23.45-51.6 51.6 18.68 44.56 1.77 93h22.8a145.94 145.94 0 01291.88 0h24.32l-.1-93z" class="cls-2"/><path d="M317.86 366.44l11.64 27.75.24 93h24.32a145 145 0 0126.8-84.09c-15.42-19.58-37.72-33.29-63-36.66zM682 366.53a97.2 97.2 0 00-63.37 35.87 145.26 145.26 0 0127.33 84.83h24.32l-.1-93z" class="cls-2"/><path d="M828.35 694v-59.34a48.65 48.65 0 00-36.84-47.2l-60.45-15.11v-22a72.88 72.88 0 0036.51-63.14V466c0-40-30.8-74.79-70.72-76a73 73 0 00-75.22 72.93v24.33a72.84 72.84 0 0036.49 63.12v22l-60.45 15.12a48.64 48.64 0 00-36.84 47.19V694z" class="cls-3"/><path d="M658.1 634.66a72.66 72.66 0 00-26.17-55.76l-34.28 8.57a48.64 48.64 0 00-36.84 47.19V694h97.29zM439.19 694v-59.34a48.66 48.66 0 00-36.84-47.2l-60.45-15.11v-22a72.9 72.9 0 0036.51-63.14V466c0-40-30.8-74.79-70.72-76a73 73 0 00-75.22 72.93v24.33a72.84 72.84 0 0036.49 63.12v22l-60.45 15.12a48.63 48.63 0 00-36.84 47.19V694z" class="cls-3"/><path d="M439.19 634.66a48.65 48.65 0 00-36.84-47.2l-34.28-8.57a72.73 72.73 0 00-26.17 55.77V694h97.29z" class="cls-3"/><path d="M633.77 694v-59.34a48.66 48.66 0 00-36.84-47.2l-60.45-15.11v-22A72.9 72.9 0 00573 487.23V466c0-40-30.8-74.79-70.72-76A73 73 0 00427 462.9v24.33a72.84 72.84 0 0036.49 63.12v22l-60.45 15.12a48.64 48.64 0 00-36.84 47.19V694z" class="cls-3"/><path d="M828.35 634.66a48.64 48.64 0 00-36.84-47.2l-13.4-3.35-162.51 85.54h-2.75l-52-14.87V694h267.5z" class="cls-3"/><path d="M633.77 660.08l-18.17 9.57h-2.75l-73.14-20.9a88.57 88.57 0 00-19.6-3.09l-53.11-17a161.79 161.79 0 00-84.49-3.78l-15.76 3.65a45.93 45.93 0 00-.52 6.12V694h267.54z" class="cls-3"/><path d="M382.51 624.89l-52.77 12.23v-17.93l-74.45-43.43-46.8 11.7a48.65 48.65 0 00-36.84 47.2V694h267.54v-59.34a48.21 48.21 0 00-1.76-12.35 156.64 156.64 0 00-54.92 2.58z" class="cls-3"/><path d="M637.58 832.39L534.82 739.9l-19.56-70.25-55.67-17.81a137.32 137.32 0 00-71.6-3.25l-143.38 33.22-12.16 97.29 85.74 53.9 155.97 130L493 979.62a24.85 24.85 0 0016.44 6.22h2.24a24.86 24.86 0 0015.91-43.94 32.07 32.07 0 0020.57 7.45A24.84 24.84 0 00564 905.42l-46.6-38.84 48.62 40.53a24.9 24.9 0 0015.98 5.76h2.64a24.85 24.85 0 0015.9-43.94l1.92 1.61a25.26 25.26 0 0016.15 5.85h2.11a25.24 25.24 0 0016.89-44z" fill="#ecc19c"/><path d="M637.58 832.39L534.82 739.9a36.83 36.83 0 00-43.57-4.21L446 762.86a28.56 28.56 0 01-43.27-24.49V736a28.57 28.57 0 0115.8-25.55l67.84-33.92a64.62 64.62 0 0146.63-4.39L609.45 694h12.16l231.07-121.65h12.16v158.1L645.94 839.9z" class="cls-5"/><path d="M500 852.06l-16.91 17.59 67.4 56.16a49.23 49.23 0 0019.75 9.79 24.57 24.57 0 002.76-11.09 24.85 24.85 0 00-9-19.09z" class="cls-6"/><path d="M427 947.88a25.8 25.8 0 0044 18.24l21.36-21.36a25.8 25.8 0 10-36.36-36.5l-21.4 21.37a25.8 25.8 0 00-7.6 18.25z" class="cls-5"/><path d="M390.55 911.4a25.8 25.8 0 0044 18.24L456 908.27a25.8 25.8 0 00-36.47-36.49l-21.37 21.36a25.82 25.82 0 00-7.61 18.26z" class="cls-5"/><path d="M354.06 874.91a25.8 25.8 0 0044 18.25l21.37-21.37A25.8 25.8 0 10383 835.3l-21.37 21.36a25.8 25.8 0 00-7.57 18.25z" class="cls-5"/><path d="M400.19 852.49a50.26 50.26 0 0012.57-21.92A25.44 25.44 0 00383 835.3l-21.37 21.36a25.83 25.83 0 00-7.57 18.25 25.51 25.51 0 002.84 11.52 50 50 0 0021.91-12.56zM436.68 889a50.34 50.34 0 0012.56-21.92 25.46 25.46 0 00-29.76 4.72l-21.37 21.36a25.83 25.83 0 00-7.56 18.26 25.54 25.54 0 002.83 11.52 50.2 50.2 0 0021.92-12.57zM473.16 925.46a50.14 50.14 0 0012.56-21.92 25.51 25.51 0 00-11.52-2.83 25.79 25.79 0 00-18.2 7.55l-21.4 21.37a25.83 25.83 0 00-7.6 18.25 25.54 25.54 0 002.83 11.52 50.07 50.07 0 0021.92-12.56z" class="cls-7"/><path d="M317.58 838.43a25.8 25.8 0 0044 18.24L383 835.31a25.8 25.8 0 10-36.47-36.5l-21.36 21.37a25.75 25.75 0 00-7.59 18.25z" class="cls-5"/><path d="M325.66 663l-81.05 18.78-12.16 97.32 50.91 32z" class="cls-6"/><path d="M305.42 645.32l-48.65 170.26h-12.16L135.16 779.1V548h24.32l145.94 85.13z" fill="#e6e9ed"/><path d="M257.58 605.25L159.48 548h-24.32v231.1l73 24.32 48.64-194.58z" class="cls-1"/><path d="M536.48 815.58l-16.9 17.58L587 889.33a49.24 49.24 0 0019.75 9.79 24.56 24.56 0 002.7-11.12 24.87 24.87 0 00-8.94-19.1z" class="cls-6"/><path d="M877 560.19h-27.33l-40.73 21.43a60.43 60.43 0 00-14.49-6l-51.24-12.82V557a85.41 85.41 0 0036.5-69.79V466c0-47.25-37-86.78-82.52-88.16-2.31-.06-4.58 0-6.87.14l13.29-31.1-64.4-64.38-38 24.71a205.66 205.66 0 00-45.53-18.89L546.35 244h-92.69l-9.37 44.3a205.39 205.39 0 00-45.52 18.89l-38-24.71-64.34 64.34L309.52 378c-.5 0-1-.12-1.48-.13a85.18 85.18 0 00-87.75 85.08v24.33A85.36 85.36 0 00256.77 557v5.84l-33.42 8.36-60.57-35.33H123v252l119.64 39.87h23.3l2.91-10.19 36.68 22a37.87 37.87 0 0036.47 36.7 37.85 37.85 0 0036.48 36.48A37.87 37.87 0 00415 949.22a37.93 37.93 0 0037.82 36.62 38.35 38.35 0 0021.32-6.59l10.77 9.51a37 37 0 0024.48 9.24h2.25a37 37 0 0037-36.53A37 37 0 00585.08 925a37 37 0 0036.49-36.51 37.4 37.4 0 0036.53-37.32 34.32 34.32 0 00-.19-3.65L877 738zM755.39 466v21.26A61.05 61.05 0 01725 539.85l-6.08 3.51v38.49L779.67 597l-133.73 70.42v-32.76a60.52 60.52 0 00-17.42-42.38l41.74-10.43v-38.51l-6.07-3.51a61 61 0 01-30.42-52.6V462.9a60.82 60.82 0 0162.69-60.77c32.54.98 58.93 29.62 58.93 63.87zm-237 191.89l-55.06-17.6a150.15 150.15 0 00-77.92-3.55l-7 1.55v-3.6A36.47 36.47 0 01406 599.25l69.66-17.4v-38.51l-6.07-3.51a61 61 0 01-30.42-52.6V462.9a60.82 60.82 0 0162.69-60.77c32.49 1 58.93 29.62 58.93 63.84v21.26a61.05 61.05 0 01-30.44 52.62l-6.08 3.51v38.49l69.73 17.4a36.47 36.47 0 0127.63 35.41v45.57l-3 1.58h-7.45l-74.77-21.37a76.5 76.5 0 00-18.07-2.58zM381.11 426a133.68 133.68 0 01237.28-1 84.52 84.52 0 00-8.94 37.86v24.33A85.35 85.35 0 00645.94 557v5.84L597.29 575l-48.66-12.18V557a85.41 85.41 0 0036.5-69.79V466c0-47.25-37-86.78-82.52-88.16a85.16 85.16 0 00-87.74 85.09v24.33A85.36 85.36 0 00451.35 557v5.84L402.71 575l-48.66-12.18V557a85.41 85.41 0 0036.5-69.79V466a89.64 89.64 0 00-9.44-40zm-55.93-73.55L364 313.61l34.2 22.26 6.55-4A181.68 181.68 0 01457.44 310l7.48-1.79 8.46-39.9h53.25l8.44 39.89 7.48 1.79a181.68 181.68 0 0152.66 21.84l6.55 4L636 313.6l38.81 38.82-13.81 32.3a85.07 85.07 0 00-25.67 17.06c-.49.49-.92 1-1.41 1.51a157.93 157.93 0 00-268.22.73 85.9 85.9 0 00-26.83-19zm-44.08 229.4v-38.51l-6.1-3.51a61 61 0 01-30.42-52.6V462.9a60.82 60.82 0 0162.69-60.77c32.49 1 58.93 29.62 58.93 63.84v21.26a61.05 61.05 0 01-30.44 52.62l-6.08 3.51v38.49l41.73 10.43a60.52 60.52 0 00-17.42 42.38v9l-37.93 8.43 1-3.45.46-22.47-64.14-37.42zm-133.78-21.66h8.87l87.46 51-44.13 176.54-52.2-17.4zm99.26 243.23l-23.93-8L265.52 624l27.74 16.17v3.48l-45.65 159.8zm83.16 35a13.72 13.72 0 014-9.64l21.38-21.38a13.64 13.64 0 0119.28 19.3L353 848.07a13.64 13.64 0 01-23.28-9.64zm36.49 36.48a13.69 13.69 0 014-9.64l21.37-21.38a13.64 13.64 0 0119.29 19.29l-21.39 21.39a13.63 13.63 0 01-23.27-9.65zm36.48 36.49a13.76 13.76 0 014-9.65l21.38-21.37a13.63 13.63 0 0119.28 19.28L426 921a13.64 13.64 0 01-23.28-9.64zm50.12 50.12a13.64 13.64 0 01-9.65-23.28l21.38-21.38a13.64 13.64 0 0119.29 19.29l-21.38 21.38a13.73 13.73 0 01-9.64 4zm58.81 12.16h-2.25a12.6 12.6 0 01-8.39-3.17l-9.1-8 9.14-9.13a38 38 0 007.66-11.3l11.05 9.2a12.69 12.69 0 01-8.12 22.43zM620.7 864.23h-2.1a13 13 0 01-8.37-3l-66-55-15.53 18.69 64 53.36a12.69 12.69 0 01-8.13 22.43H582a12.68 12.68 0 01-8.11-3l-66.06-55-15.58 18.7 64.05 53.36a12.67 12.67 0 01-8.13 22.41 20.05 20.05 0 01-12.79-4.63l-27.15-22.62a37.85 37.85 0 00-32.65-21.26 37.87 37.87 0 00-36.48-36.48 37.87 37.87 0 00-36.49-36.48 37.87 37.87 0 00-64.65-25.51l-21.37 21.38a37.5 37.5 0 00-3.41 4.16l-37.36-22.41 32.75-114.62 82.1-18.26a125.27 125.27 0 0165.25 3l17.91 5.73-60.73 30.36A40.55 40.55 0 00390.55 736v2.41a40.72 40.72 0 0061.7 34.92l45.28-27.15a25.1 25.1 0 0129.16 2.81l102.76 92.47a13.1 13.1 0 01-8.75 22.82zm232-141.3L647.79 825.38c-.66-.7-1.36-1.37-2.09-2L543 730.88a48.94 48.94 0 00-58-5.61l-45.3 27.17a16.4 16.4 0 01-24.83-14.08V736a16.33 16.33 0 019.07-14.68l67.84-33.92a52.86 52.86 0 0137.9-3.51l76.43 21.83 18.51.46 228.06-120zM159.78 21.57c-73.52 0-133.14 59.86-133.14 133.69a133.67 133.67 0 0091.08 126.85c6.65 1.23 9.08-2.9 9.08-6.44 0-3.18-.11-11.59-.18-22.74C89.59 261 81.76 235 81.76 235 75.72 219.56 67 215.45 67 215.45c-12.1-8.29.9-8.12.9-8.12 13.37.95 20.39 13.78 20.39 13.78 11.89 20.42 31.18 14.53 38.77 11.1 1.2-8.64 4.64-14.53 8.45-17.88-29.56-3.37-60.65-14.84-60.65-66.06a51.76 51.76 0 0113.72-35.88c-1.39-3.38-6-17 1.29-35.37 0 0 11.19-3.6 36.62 13.69a125.76 125.76 0 0166.68 0C218.57 73.44 229.73 77 229.73 77c7.26 18.41 2.7 32 1.34 35.37a51.77 51.77 0 0113.68 35.89c0 51.35-31.13 62.65-60.79 66 4.78 4.13 9 12.28 9 24.75 0 17.88-.17 32.29-.17 36.67 0 3.58 2.4 7.74 9.16 6.42a133.7 133.7 0 0091-126.83c.05-73.84-59.62-133.7-133.17-133.7z"/></svg>