<svg xmlns="http://www.w3.org/2000/svg" width="512" height="512" viewBox="0 -43 512 512"><path fill="#B9B9B9" d="M312.105 296.145h-112.21a7.523 7.523 0 00-7.524 7.527v63.441a7.523 7.523 0 007.524 7.528h112.21a7.523 7.523 0 007.524-7.528v-63.441a7.523 7.523 0 00-7.524-7.527zm0 0" data-old_color="#c4c4c4" data-original="#C4C4C4"/><path fill="#B9B9B9" d="M312.105 296.145h-112.21a7.523 7.523 0 00-7.524 7.527v27.094H319.63v-27.094a7.523 7.523 0 00-7.524-7.527zm0 0" class="active-path" data-old_color="#afafaf" data-original="#AFAFAF"/><path fill="#B9B9B9" d="M434.82 156.84H77.18C34.62 156.84 0 191.46 0 234.02c0 42.554 34.621 77.175 77.18 77.175h357.64c42.559 0 77.18-34.62 77.18-77.175 0-42.56-34.621-77.18-77.18-77.18zm0 0" data-old_color="#3e5359" data-original="#3E5359"/><path fill="#898989" d="M434.82 277.352H77.18c-36.743 0-67.551-25.817-75.285-60.258A77.006 77.006 0 000 234.02c0 42.554 34.621 77.175 77.18 77.175h357.64c42.559 0 77.18-34.62 77.18-77.175a77.18 77.18 0 00-1.89-16.922c-7.739 34.437-38.548 60.254-75.29 60.254zm0 0" data-old_color="#334549" data-original="#334549"/><path fill="#898989" d="M129.273 248.828c-8.168 0-14.812-6.644-14.812-14.808 0-8.168 6.644-14.813 14.812-14.813 8.165 0 14.809 6.645 14.809 14.813 0 8.164-6.644 14.808-14.809 14.808zm0 0" data-old_color="#ddd" data-original="#DDD"/><path fill="#802927" d="M209.516 206.477c-15.188 0-27.543 12.355-27.543 27.543 0 15.183 12.355 27.539 27.543 27.539 15.183 0 27.539-12.356 27.539-27.54 0-15.187-12.356-27.542-27.54-27.542zm0 0" data-old_color="#c90e0e" data-original="#C90E0E"/><path fill="#29718F" d="M289.758 206.477c-15.188 0-27.543 12.355-27.543 27.543 0 15.183 12.355 27.539 27.543 27.539 15.183 0 27.539-12.356 27.539-27.54 0-15.187-12.356-27.542-27.54-27.542zm0 0" data-old_color="#ffdb56" data-original="#FFDB56"/><path fill="#49B86E" d="M370 206.477c-15.188 0-27.543 12.355-27.543 27.543 0 15.183 12.356 27.539 27.543 27.539 15.184 0 27.54-12.356 27.54-27.54 0-15.187-12.356-27.542-27.54-27.542zm0 0" data-old_color="#68bd45" data-original="#68BD45"/><path fill="#898989" d="M390.168 359.59H121.832c-18.223 0-33.047 14.824-33.047 33.043 0 18.222 14.824 33.047 33.047 33.047h268.336c18.219 0 33.043-14.825 33.043-33.047 0-18.219-14.824-33.043-33.043-33.043zm0 0" data-old_color="#ddd" data-original="#DDD"/><path fill="#B9B9B9" d="M390.168 390.57H121.832c-11.773 0-22.125-6.195-27.977-15.492a32.84 32.84 0 00-5.07 17.555c0 18.222 14.824 33.047 33.047 33.047h268.336c18.219 0 33.043-14.825 33.043-33.047 0-6.445-1.86-12.461-5.066-17.555-5.856 9.297-16.204 15.492-27.977 15.492zm0 0" data-old_color="#c4c4c4" data-original="#C4C4C4"/><g fill="#802927"><path d="M334.852 39.066a7.5 7.5 0 01-4.145-1.25C308.203 22.926 282.371 15.051 256 15.051c-26.375 0-52.207 7.875-74.707 22.765a7.527 7.527 0 01-8.309-12.554C197.957 8.734 226.664 0 256 0s58.043 8.734 83.016 25.262c3.464 2.293 4.414 6.965 2.12 10.433a7.522 7.522 0 01-6.284 3.371zm0 0M306.863 76.98a7.476 7.476 0 01-4.066-1.199C288.645 66.664 272.46 61.844 256 61.844c-16.465 0-32.648 4.82-46.797 13.937a7.53 7.53 0 01-10.406-2.25 7.528 7.528 0 012.25-10.402c16.59-10.688 35.59-16.336 54.953-16.336 19.36 0 38.363 5.648 54.95 16.336a7.528 7.528 0 012.25 10.402 7.523 7.523 0 01-6.337 3.45zm0 0M277.531 116.508a7.49 7.49 0 01-4.527-1.516c-5.317-4.012-11.04-6.043-17.004-6.043-5.969 0-11.688 2.031-17.004 6.043a7.526 7.526 0 11-9.063-12.02c7.872-5.937 16.887-9.077 26.067-9.077s18.191 3.14 26.066 9.078a7.526 7.526 0 01-4.535 13.535zm0 0" data-old_color="#C90E0E" data-original="#C90E0E"/></g></svg>