<?xml version="1.0"?>
<svg xmlns="http://www.w3.org/2000/svg" height="512px" viewBox="0 -43 512 512" width="512px" class=""><g><path d="m312.105469 296.144531h-112.210938c-4.15625 0-7.523437 3.367188-7.523437 7.527344v63.441406c0 4.160157 3.367187 7.527344 7.523437 7.527344h112.210938c4.15625 0 7.523437-3.367187 7.523437-7.527344v-63.441406c0-4.160156-3.367187-7.527344-7.523437-7.527344zm0 0" fill="#c4c4c4" data-original="#C4C4C4" class="" style="fill:#B9B9B9" data-old_color="#c4c4c4"/><path d="m312.105469 296.144531h-112.210938c-4.15625 0-7.523437 3.367188-7.523437 7.527344v27.09375h127.257812v-27.09375c0-4.160156-3.367187-7.527344-7.523437-7.527344zm0 0" fill="#afafaf" data-original="#AFAFAF" class="active-path" style="fill:#B9B9B9" data-old_color="#afafaf"/><path d="m434.820312 156.839844h-357.640624c-42.558594 0-77.179688 34.621094-77.179688 77.179687 0 42.554688 34.621094 77.175781 77.179688 77.175781h357.640624c42.558594 0 77.179688-34.621093 77.179688-77.175781 0-42.558593-34.621094-77.179687-77.179688-77.179687zm0 0" fill="#3e5359" data-original="#3E5359" class="" style="fill:#B9B9B9" data-old_color="#3e5359"/><path d="m434.820312 277.351562h-357.640624c-36.742188 0-67.550782-25.816406-75.285157-60.257812-1.226562 5.453125-1.894531 11.109375-1.894531 16.925781 0 42.554688 34.621094 77.175781 77.179688 77.175781h357.640624c42.558594 0 77.179688-34.621093 77.179688-77.175781 0-5.816406-.667969-11.472656-1.890625-16.921875-7.738281 34.4375-38.546875 60.253906-75.289063 60.253906zm0 0" fill="#334549" data-original="#334549" class="" style="fill:#898989" data-old_color="#334549"/><path d="m129.273438 248.828125c-8.167969 0-14.8125-6.644531-14.8125-14.808594 0-8.167969 6.644531-14.8125 14.8125-14.8125 8.164062 0 14.808593 6.644531 14.808593 14.8125 0 8.164063-6.644531 14.808594-14.808593 14.808594zm0 0" fill="#ddd" data-original="#DDD" class="" data-old_color="#ddd" style="fill:#898989"/><path d="m209.515625 206.476562c-15.1875 0-27.542969 12.355469-27.542969 27.542969 0 15.183594 12.355469 27.539063 27.542969 27.539063 15.183594 0 27.539063-12.355469 27.539063-27.539063 0-15.1875-12.355469-27.542969-27.539063-27.542969zm0 0" fill="#c90e0e" data-original="#C90E0E" class="" style="fill:#802927" data-old_color="#c90e0e"/><path d="m289.757812 206.476562c-15.1875 0-27.542968 12.355469-27.542968 27.542969 0 15.183594 12.355468 27.539063 27.542968 27.539063 15.183594 0 27.539063-12.355469 27.539063-27.539063 0-15.1875-12.355469-27.542969-27.539063-27.542969zm0 0" fill="#ffdb56" data-original="#FFDB56" class="" style="fill:#29718F" data-old_color="#ffdb56"/><path d="m370 206.476562c-15.1875 0-27.542969 12.355469-27.542969 27.542969 0 15.183594 12.355469 27.539063 27.542969 27.539063 15.183594 0 27.539062-12.355469 27.539062-27.539063 0-15.1875-12.355468-27.542969-27.539062-27.542969zm0 0" fill="#68bd45" data-original="#68BD45" class="" style="fill:#49B86E" data-old_color="#68bd45"/><path d="m390.167969 359.589844h-268.335938c-18.222656 0-33.046875 14.824218-33.046875 33.042968 0 18.222657 14.824219 33.046876 33.046875 33.046876h268.335938c18.21875 0 33.042969-14.824219 33.042969-33.046876 0-18.21875-14.824219-33.042968-33.042969-33.042968zm0 0" fill="#ddd" data-original="#DDD" class="" data-old_color="#ddd" style="fill:#898989"/><path d="m390.167969 390.570312h-268.335938c-11.773437 0-22.125-6.195312-27.976562-15.492187-3.207031 5.09375-5.070313 11.109375-5.070313 17.554687 0 18.222657 14.824219 33.046876 33.046875 33.046876h268.335938c18.21875 0 33.042969-14.824219 33.042969-33.046876 0-6.445312-1.859376-12.460937-5.066407-17.554687-5.855469 9.296875-16.203125 15.492187-27.976562 15.492187zm0 0" fill="#c4c4c4" data-original="#C4C4C4" class="" style="fill:#B9B9B9" data-old_color="#c4c4c4"/><g fill="#c90e0e"><path d="m334.851562 39.066406c-1.425781 0-2.867187-.40625-4.144531-1.25-22.503906-14.890625-48.335937-22.765625-74.707031-22.765625-26.375 0-52.207031 7.875-74.707031 22.765625-3.46875 2.292969-8.136719 1.34375-10.429688-2.121094-2.292969-3.46875-1.34375-8.136718 2.121094-10.433593 24.972656-16.527344 53.679687-25.261719 83.015625-25.261719s58.042969 8.734375 83.015625 25.261719c3.464844 2.292969 4.414063 6.964843 2.121094 10.433593-1.449219 2.1875-3.84375 3.371094-6.285157 3.371094zm0 0" data-original="#C90E0E" class="" style="fill:#802927" data-old_color="#C90E0E"/><path d="m306.863281 76.980469c-1.394531 0-2.808593-.386719-4.066406-1.199219-14.152344-9.117188-30.335937-13.9375-46.796875-13.9375-16.464844 0-32.648438 4.820312-46.796875 13.9375-3.496094 2.25-8.152344 1.246094-10.40625-2.25-2.25-3.492188-1.242187-8.152344 2.25-10.402344 16.589844-10.6875 35.589844-16.335937 54.953125-16.335937 19.359375 0 38.363281 5.648437 54.949219 16.335937 3.492187 2.25 4.5 6.910156 2.25 10.402344-1.441407 2.234375-3.863281 3.449219-6.335938 3.449219zm0 0" data-original="#C90E0E" class="" style="fill:#802927" data-old_color="#C90E0E"/><path d="m277.53125 116.507812c-1.578125 0-3.171875-.492187-4.527344-1.515624-5.316406-4.011719-11.039062-6.042969-17.003906-6.042969-5.96875 0-11.6875 2.03125-17.003906 6.042969-3.316406 2.5-8.039063 1.839843-10.542969-1.480469-2.5-3.316407-1.839844-8.039063 1.480469-10.539063 7.871094-5.9375 16.886718-9.078125 26.066406-9.078125s18.191406 3.140625 26.066406 9.078125c3.320313 2.5 3.980469 7.222656 1.480469 10.539063-1.480469 1.964843-3.734375 2.996093-6.015625 2.996093zm0 0" data-original="#C90E0E" class="" style="fill:#802927" data-old_color="#C90E0E"/></g></g> </svg>
